<svg width="130" height="39" viewBox="0 0 130 39" fill="none" xmlns="http://www.w3.org/2000/svg">
<g clip-path="url(#clip0_20613_36867)">
<mask id="mask0_20613_36867" style="mask-type:luminance" maskUnits="userSpaceOnUse" x="0" y="0" width="130" height="38">
<path d="M129.124 0.580078H0V37.7854H129.124V0.580078Z" fill="white"/>
</mask>
<g mask="url(#mask0_20613_36867)">
<path d="M53.7569 25.225H45.7165L43.8783 28.8116H39.5293L49.4378 9.44995H50.5736L59.7647 28.8116H55.4606L53.7569 25.225ZM51.9336 21.3556L49.9011 17.0398L47.7042 21.3556H51.9336Z" fill="#626262"/>
<path d="M66.7741 20.6116C66.1314 20.4479 64.9358 20.1353 63.8299 19.3912C62.2756 18.3644 61.4088 16.8762 61.3341 15.0308C61.2444 13.483 61.7526 12.1288 62.7539 11.087C64.2035 9.59883 66.2809 9.18213 67.2822 9.18213C70.1068 9.18213 71.6909 10.209 73.1107 11.1168L73.7533 11.5335L71.7208 14.8224L71.0334 14.376C69.778 13.5723 68.9859 13.0515 67.2822 13.0515C67.0281 13.0515 66.0567 13.2449 65.5635 13.7658C65.3991 13.9295 65.2048 14.242 65.2347 14.8671C65.2646 15.8642 65.9521 16.4148 67.7305 16.8613C67.9547 16.9208 68.1191 16.9655 68.2835 17.025C70.1367 17.6649 71.5863 18.5132 72.5876 19.5996C73.5889 20.7009 74.112 22.0105 74.112 23.3796C74.112 24.7339 73.5292 26.1477 72.5577 27.2192C71.4219 28.4842 69.8378 29.2134 68.0892 29.2134C67.2224 29.2134 66.0567 29.1539 64.6818 28.7372C62.9332 28.1866 61.3789 27.2192 60.0488 25.8054L62.8734 23.1564C64.9209 25.3441 67.2224 25.3441 68.0892 25.3441C69.7033 25.3441 70.2263 23.8856 70.2263 23.3796C70.2263 22.323 69.0307 21.3557 67.0132 20.6711L66.9235 20.6413L66.7741 20.6116Z" fill="#626262"/>
<path d="M90.8654 9.44994V13.3193H85.4852V28.8265H81.5995V13.3044H76.1895V9.43506H90.8654V9.44994Z" fill="#626262"/>
<path d="M103.239 28.8113L99.6078 21.0429H97.665V28.7816H93.7793V9.41992H101.102C104.315 9.41992 106.931 12.0392 106.931 15.2537C106.931 17.6051 105.541 19.6142 103.523 20.5369L107.379 28.8262H103.239V28.8113ZM97.665 13.2893V17.1884H101.102C102.178 17.1884 103.045 16.3252 103.045 15.2537C103.045 14.1822 102.178 13.2893 101.102 13.2893H97.665Z" fill="#626262"/>
<path d="M123.13 25.225H115.09L113.251 28.8116H108.902L118.811 9.44995H119.947L129.123 28.8116H124.819L123.13 25.225ZM121.292 21.3556L119.259 17.0398L117.062 21.3556H121.292Z" fill="#626262"/>
<path fill-rule="evenodd" clip-rule="evenodd" d="M18.5317 37.6369C28.7665 37.6369 37.0634 29.3748 37.0634 19.1831C37.0634 8.99131 28.7665 0.729248 18.5317 0.729248C8.29694 0.729248 0 8.99131 0 19.1831C0 29.3748 8.29694 37.6369 18.5317 37.6369ZM18.3075 8.9145C16.7384 12.2107 15.1693 15.5106 13.6002 18.8104C12.0309 22.1108 10.4615 25.4111 8.89221 28.7077H12.9273C14.1977 26.1554 15.468 23.5994 16.7383 21.0434C18.0086 18.4874 19.2789 15.9314 20.5493 13.3791L18.3075 8.9145ZM20.5492 21.1176C21.1955 19.7783 21.8418 18.439 22.4919 17.0997C23.4408 19.0342 24.386 20.9688 25.3312 22.9033C26.2766 24.8381 27.2219 26.7729 28.171 28.7077H23.8369C23.5904 28.1348 23.34 27.5655 23.0897 26.9963C22.8394 26.4271 22.589 25.8578 22.3424 25.2848H18.6062H18.5315L18.6062 25.136C19.2564 23.7965 19.9028 22.4571 20.5492 21.1176Z" fill="#626262"/>
</g>
</g>
<defs>
<clipPath id="clip0_20613_36867">
<rect width="130" height="38" fill="white" transform="translate(0 0.580078)"/>
</clipPath>
</defs>
</svg>
