<svg width="71" height="20" viewBox="0 0 71 20" fill="none" xmlns="http://www.w3.org/2000/svg">
<g clip-path="url(#clip0_39810_79634)">
<path d="M29.8975 13.2749H25.5404L24.5443 15.2185H22.1876L27.557 4.72656H28.1724L33.153 15.2185H30.8206L29.8975 13.2749ZM28.9094 11.1782L27.808 8.83945L26.6175 11.1782H28.9094Z" fill="#453E6B"/>
<path d="M36.9514 10.7717C36.6031 10.683 35.9551 10.5136 35.3558 10.1104C34.5138 9.55395 34.0439 8.74748 34.0034 7.74748C33.955 6.90877 34.2302 6.17492 34.7728 5.61039C35.5585 4.80395 36.6841 4.57812 37.2267 4.57812C38.7572 4.57812 39.6158 5.1346 40.3852 5.62651L40.7334 5.85233L39.6321 7.6346L39.2593 7.39265C38.5791 6.95715 38.1499 6.67492 37.2267 6.67492C37.089 6.67492 36.5627 6.77974 36.2954 7.06201C36.2062 7.15071 36.101 7.32007 36.1173 7.65877C36.1332 8.1991 36.506 8.49748 37.4697 8.73942C37.5911 8.77168 37.68 8.79586 37.7692 8.82813C38.7734 9.17489 39.5591 9.6346 40.1017 10.2233C40.6442 10.8201 40.9278 11.5297 40.9278 12.2717C40.9278 13.0055 40.6118 13.7717 40.0854 14.3523C39.4699 15.0378 38.6116 15.433 37.6641 15.433C37.1942 15.433 36.5627 15.4007 35.8175 15.1749C34.87 14.8765 34.0276 14.3523 33.3069 13.5862L34.8375 12.1507C35.9472 13.3362 37.1942 13.3362 37.6641 13.3362C38.5386 13.3362 38.8222 12.5459 38.8222 12.2717C38.8222 11.6991 38.1742 11.1749 37.0807 10.8039L37.0323 10.7878L36.9514 10.7717Z" fill="#453E6B"/>
<path d="M50.0062 4.72681V6.82357H47.0908V15.2268H44.9851V6.81551H42.0534V4.71875H50.0062V4.72681Z" fill="#453E6B"/>
<path d="M56.7117 15.219L54.7438 11.0094H53.6908V15.2029H51.5852V4.71094H55.5536C57.2948 4.71094 58.7119 6.13029 58.7119 7.87223C58.7119 9.14644 57.9588 10.2351 56.8656 10.7351L58.955 15.2271H56.7117V15.219ZM53.6908 6.80773V8.92061H55.5536C56.1367 8.92061 56.6063 8.45288 56.6063 7.87223C56.6063 7.29158 56.1367 6.80773 55.5536 6.80773H53.6908Z" fill="#453E6B"/>
<path d="M67.4909 13.2749H63.1337L62.1378 15.2185H59.7811L65.1505 4.72656H65.766L70.7383 15.2185H68.4059L67.4909 13.2749ZM66.4949 11.1782L65.3932 8.83945L64.2029 11.1782H66.4949Z" fill="#453E6B"/>
<path d="M10.8092 20C16.3553 20 20.8514 15.5229 20.8514 10C20.8514 4.47715 16.3553 0 10.8092 0C5.26301 0 0.766968 4.47715 0.766968 10C0.766968 15.5229 5.26301 20 10.8092 20Z" fill="url(#paint0_linear_39810_79634)"/>
<path d="M10.6877 4.4375C8.98695 8.01006 7.28628 11.5907 5.58557 15.1633C6.31446 15.1633 7.04331 15.1633 7.77217 15.1633C9.14893 12.3972 10.5257 9.62297 11.9024 6.85685L10.6877 4.4375Z" fill="white"/>
<path d="M12.9552 8.86719C12.2507 10.3188 11.5542 11.7704 10.8496 13.222L10.8091 13.3027H10.8496C11.5218 13.3027 12.2021 13.3027 12.8743 13.3027C13.1415 13.9237 13.4169 14.5365 13.6841 15.1575C14.4697 15.1575 15.2471 15.1575 16.0327 15.1575C15.0042 13.0607 13.9838 10.964 12.9552 8.86719Z" fill="white"/>
</g>
<defs>
<linearGradient id="paint0_linear_39810_79634" x1="3.34629" y1="16.6914" x2="18.2157" y2="3.24638" gradientUnits="userSpaceOnUse">
<stop stop-color="#492CDD"/>
<stop offset="1" stop-color="#AD38E2"/>
</linearGradient>
<clipPath id="clip0_39810_79634">
<rect width="70" height="20" fill="white" transform="translate(0.766968)"/>
</clipPath>
</defs>
</svg>
