<svg width="183" height="35" viewBox="0 0 183 35" fill="none" xmlns="http://www.w3.org/2000/svg">
<g clip-path="url(#clip0_20613_36880)">
<mask id="mask0_20613_36880" style="mask-type:luminance" maskUnits="userSpaceOnUse" x="0" y="0" width="183" height="35">
<path d="M182.621 0.370117H0.244141V34.0703H182.621V0.370117Z" fill="white"/>
</mask>
<g mask="url(#mask0_20613_36880)">
<path d="M20.9093 2.56047C19.7062 3.73998 18.9463 5.3618 18.9463 7.19425V17.9362C18.9463 19.5159 17.6586 20.8007 16.0755 20.8007H8.8564C7.27327 20.8007 5.98565 19.5159 5.98565 17.9362C5.98565 16.3565 7.27327 15.0717 8.8564 15.0717H16.7721V9.34264H8.8564C8.37091 9.34264 7.88541 9.38476 7.42102 9.44792C3.34709 10.143 0.244141 13.6816 0.244141 17.9362C0.244141 21.6853 2.65051 24.8658 5.98565 26.0452C6.45004 26.2138 6.93553 26.3402 7.42102 26.4244C7.88541 26.5086 8.37091 26.5508 8.8564 26.5508H16.0755C16.561 26.5508 17.0465 26.5086 17.5109 26.4244C17.9964 26.3402 18.4819 26.2138 18.9463 26.0452C22.3025 24.8658 24.6878 21.6853 24.6878 17.9362V15.0717C27.8541 15.0717 30.4293 12.5021 30.4293 9.34264H24.6878V7.19425C24.6878 6.79406 25.0044 6.47812 25.4055 6.47812H26.8409C28.5929 6.47812 30.176 5.78305 31.3581 4.64567C32.3924 3.63467 33.11 2.2656 33.279 0.728027H25.4055C23.6746 0.74909 22.0704 1.44416 20.9093 2.56047Z" fill="#626262"/>
<path d="M8.85708 27.9622C7.27394 27.9622 5.98633 29.247 5.98633 30.8267C5.98633 32.4064 7.27394 33.6912 8.85708 33.6912C10.4403 33.6912 11.7278 32.4064 11.7278 30.8267C11.7278 29.247 10.4403 27.9622 8.85708 27.9622Z" fill="#626262"/>
<path d="M17.4685 27.9622C15.8853 27.9622 14.5977 29.247 14.5977 30.8267C14.5977 32.4064 15.8853 33.6912 17.4685 33.6912C19.0516 33.6912 20.3392 32.4064 20.3392 30.8267C20.3392 29.247 19.0727 27.9622 17.4685 27.9622Z" fill="#626262"/>
<path d="M48.9414 29.6684C47.2949 29.6684 45.8173 29.4157 44.5297 28.9101C43.2209 28.4046 42.1233 27.6675 41.2157 26.6986C40.308 25.7086 39.6115 24.5291 39.126 23.118C38.6404 21.7068 38.4082 20.106 38.4082 18.2735C38.4082 16.4621 38.6827 14.8403 39.2526 13.4291C39.8014 12.018 40.5613 10.8385 41.5323 9.84852C42.5033 8.87961 43.6431 8.12135 44.9308 7.63692C46.2395 7.13141 47.6327 6.87866 49.1314 6.87866C50.039 6.87866 50.8623 6.94185 51.601 7.08929C52.3399 7.23672 52.9731 7.38416 53.5219 7.55266C54.0708 7.72116 54.514 7.88967 54.8728 8.07923C55.2317 8.2688 55.4851 8.39517 55.6328 8.47942L54.4507 11.7442C53.9441 11.4282 53.2264 11.1333 52.2977 10.8385C51.3689 10.5646 50.3557 10.4172 49.258 10.4172C48.3081 10.4172 47.4215 10.5857 46.5984 10.9016C45.7751 11.2386 45.0785 11.7231 44.4664 12.376C43.8754 13.0289 43.3899 13.8504 43.0732 14.8192C42.7355 15.8092 42.5666 16.9466 42.5666 18.2524C42.5666 19.4109 42.6932 20.464 42.9466 21.4329C43.1998 22.4018 43.622 23.2443 44.1708 23.9393C44.7197 24.6344 45.4163 25.1821 46.2395 25.5823C47.0839 25.9824 48.0971 26.172 49.258 26.172C50.6723 26.172 51.8122 26.0246 52.6987 25.7507C53.5852 25.4769 54.2607 25.2031 54.7462 24.9504L55.8227 28.194C55.5695 28.3625 55.2317 28.5521 54.7884 28.6995C54.3662 28.868 53.8597 29.0365 53.2686 29.184C52.6776 29.3314 52.0232 29.4578 51.2845 29.5631C50.5667 29.6263 49.7857 29.6684 48.9414 29.6684Z" fill="#626262"/>
<path d="M64.6456 12.3337C65.9121 12.3337 66.9675 12.4812 67.833 12.8182C68.6985 13.1341 69.395 13.5765 69.9016 14.1451C70.4082 14.7138 70.7882 15.4089 70.9993 16.2093C71.2314 17.0096 71.337 17.8943 71.337 18.8631V28.8468C70.7459 28.9732 69.8594 29.1206 68.6774 29.3102C67.4952 29.4787 66.1443 29.584 64.6667 29.584C63.6746 29.584 62.7669 29.4787 61.9437 29.2891C61.1204 29.0995 60.4239 28.8047 59.854 28.3834C59.2629 27.9622 58.8197 27.4146 58.503 26.7616C58.1864 26.0876 58.0176 25.2661 58.0176 24.2762C58.0176 23.3284 58.2075 22.528 58.5664 21.8751C58.9463 21.2222 59.4318 20.6956 60.065 20.2954C60.6984 19.8742 61.416 19.6003 62.2603 19.4108C63.0836 19.2212 63.949 19.1369 64.8567 19.1369C65.2788 19.1369 65.7221 19.158 66.1865 19.2212C66.6509 19.2844 67.1364 19.3686 67.6641 19.495V18.8631C67.6641 18.4208 67.6219 17.9996 67.5163 17.5994C67.4108 17.1992 67.2209 16.8622 66.9675 16.5463C66.7142 16.2514 66.3554 15.9987 65.9332 15.8302C65.5111 15.6616 64.9623 15.5774 64.3078 15.5774C63.4213 15.5774 62.6192 15.6406 61.8804 15.767C61.1416 15.8933 60.5505 16.0408 60.0861 16.2093L59.6218 13.1341C60.1072 12.9656 60.8039 12.7971 61.7327 12.6287C62.5981 12.418 63.5902 12.3337 64.6456 12.3337ZM64.9623 26.5299C66.1443 26.5299 67.0308 26.4668 67.643 26.3404V22.1068C67.4319 22.0436 67.1364 21.9804 66.7353 21.9173C66.3343 21.854 65.891 21.8119 65.4055 21.8119C64.9834 21.8119 64.5612 21.854 64.139 21.9173C63.6957 21.9804 63.3158 22.1068 62.978 22.2753C62.6403 22.4438 62.3448 22.6755 62.1337 22.9914C61.9226 23.2863 61.8171 23.6865 61.8171 24.1288C61.8171 25.0345 62.0915 25.6664 62.6614 26.0034C63.2313 26.3614 63.9913 26.5299 64.9623 26.5299Z" fill="#626262"/>
<path d="M85.3949 16.1669C85.0782 16.0616 84.6349 15.9563 84.0861 15.8299C83.5373 15.7036 82.8829 15.6615 82.1442 15.6615C81.722 15.6615 81.2787 15.7036 80.7932 15.7878C80.3288 15.8721 79.9911 15.9352 79.8011 15.9984V29.1836H75.9805V13.5341C76.7193 13.2603 77.648 13.0075 78.7457 12.7548C79.8433 12.5231 81.0677 12.3967 82.4185 12.3967C82.6719 12.3967 82.9674 12.4177 83.3051 12.4388C83.6429 12.4599 83.9806 12.5231 84.3183 12.5652C84.656 12.6284 84.9727 12.6916 85.2894 12.7548C85.6059 12.818 85.8593 12.9022 86.0492 12.9654L85.3949 16.1669Z" fill="#626262"/>
<path d="M88.5195 8.39506L92.3402 7.76318V12.734H98.2088V15.9144H92.3402V22.6123C92.3402 23.9393 92.5512 24.866 92.9733 25.4347C93.3954 26.0034 94.1137 26.2772 95.1055 26.2772C95.8021 26.2772 96.4144 26.193 96.9633 26.0666C97.4905 25.9192 97.9343 25.7927 98.2504 25.6454L98.8836 28.6573C98.4406 28.8469 97.8709 29.0365 97.1526 29.2471C96.4352 29.4366 95.591 29.5419 94.62 29.5419C93.438 29.5419 92.467 29.3734 91.6644 29.0786C90.8836 28.7626 90.2504 28.2992 89.786 27.7095C89.3216 27.1197 89.005 26.3825 88.815 25.54C88.6251 24.6975 88.5406 23.7286 88.5406 22.6333L88.5195 8.39506Z" fill="#626262"/>
<path d="M102.092 29.2049V7.38403H115.918V10.7541H106.082V16.3145H114.821V19.6846H106.082V29.2049H102.092Z" fill="#626262"/>
<path d="M125.017 29.5207C123.899 29.4997 122.949 29.3734 122.189 29.1417C121.45 28.91 120.859 28.5729 120.416 28.1517C119.973 27.7094 119.656 27.1828 119.487 26.5509C119.297 25.898 119.213 25.1819 119.213 24.3605V5.4041L123.034 4.77222V23.6232C123.034 24.0866 123.054 24.4658 123.139 24.7817C123.224 25.0977 123.35 25.3714 123.54 25.5821C123.73 25.7927 123.983 25.9612 124.3 26.0876C124.638 26.1929 125.039 26.2982 125.545 26.3614L125.017 29.5207Z" fill="#626262"/>
<path d="M143.572 20.9483C143.572 22.2542 143.381 23.4337 143.002 24.5079C142.642 25.5821 142.094 26.4878 141.397 27.2461C140.7 27.9832 139.878 28.573 138.907 29.0153C137.914 29.4366 136.838 29.6472 135.677 29.6472C134.495 29.6472 133.419 29.4366 132.448 29.0153C131.477 28.5941 130.653 28.0044 129.957 27.2461C129.26 26.4878 128.732 25.5821 128.331 24.5079C127.93 23.4337 127.74 22.2542 127.74 20.9483C127.74 19.6425 127.93 18.4629 128.331 17.4099C128.711 16.3567 129.26 15.451 129.978 14.6928C130.674 13.9345 131.518 13.3658 132.489 12.9446C133.46 12.5443 134.516 12.3337 135.677 12.3337C136.838 12.3337 137.893 12.5443 138.885 12.9446C139.856 13.3658 140.7 13.9345 141.397 14.6928C142.094 15.451 142.621 16.3567 143.023 17.4099C143.381 18.4629 143.572 19.6425 143.572 20.9483ZM139.667 20.9483C139.667 19.3055 139.307 18.0206 138.611 17.0517C137.914 16.0829 136.922 15.6195 135.656 15.6195C134.39 15.6195 133.397 16.0829 132.7 17.0517C132.004 17.9995 131.645 19.3055 131.645 20.9483C131.645 22.6123 132.004 23.9182 132.7 24.8871C133.397 25.8559 134.39 26.3404 135.656 26.3404C136.922 26.3404 137.893 25.8559 138.611 24.8871C139.307 23.9182 139.667 22.6123 139.667 20.9483Z" fill="#626262"/>
<path d="M157.017 18.8421C156.531 20.6745 156.003 22.4859 155.454 24.2342C154.905 25.9823 154.356 27.6463 153.808 29.2049H150.663C150.241 28.236 149.798 27.1408 149.333 25.8981C148.868 24.6554 148.404 23.3495 147.94 21.9383C147.475 20.5271 147.011 19.0527 146.547 17.4941C146.082 15.9354 145.639 14.3557 145.195 12.7339H149.227C149.417 13.6186 149.649 14.5664 149.903 15.5774C150.156 16.6094 150.409 17.6416 150.683 18.6946C150.958 19.7478 151.254 20.7799 151.528 21.7909C151.824 22.8018 152.119 23.7287 152.414 24.5711C152.731 23.6023 153.048 22.6123 153.344 21.5592C153.639 20.5482 153.934 19.5161 154.209 18.484C154.483 17.452 154.737 16.4409 154.99 15.4721C155.243 14.5032 155.454 13.5765 155.644 12.7129H158.578C158.769 13.5765 158.98 14.4822 159.211 15.4721C159.443 16.4409 159.697 17.452 159.951 18.484C160.225 19.5161 160.5 20.5482 160.795 21.5592C161.111 22.5912 161.407 23.5812 161.723 24.5711C161.998 23.7287 162.293 22.8018 162.589 21.7909C162.884 20.7799 163.18 19.7478 163.454 18.6946C163.75 17.6416 164.003 16.5884 164.278 15.5774C164.531 14.5664 164.742 13.6186 164.953 12.7339H168.901C168.457 14.3557 167.993 15.9354 167.549 17.4941C167.085 19.0527 166.621 20.5271 166.156 21.9383C165.692 23.3495 165.228 24.6554 164.763 25.8981C164.298 27.1408 163.855 28.236 163.413 29.2049H160.309C159.76 27.6463 159.212 26.0034 158.621 24.2342C158.029 22.4859 157.501 20.6956 157.017 18.8421Z" fill="#626262"/>
<path d="M175.909 26.4665C176.921 26.4665 177.66 26.3402 178.103 26.1085C178.568 25.8558 178.8 25.4556 178.8 24.8658C178.8 24.3182 178.568 23.8759 178.062 23.5178C177.554 23.1597 176.753 22.7595 175.612 22.3383C174.916 22.0855 174.283 21.8117 173.713 21.5379C173.122 21.243 172.637 20.9271 172.214 20.5479C171.792 20.1689 171.476 19.7266 171.222 19.1789C170.968 18.6523 170.863 17.9994 170.863 17.1991C170.863 15.6825 171.412 14.503 172.531 13.6184C173.629 12.7548 175.149 12.3125 177.069 12.3125C178.04 12.3125 178.969 12.3967 179.855 12.5863C180.742 12.7759 181.397 12.9444 181.84 13.1129L181.143 16.188C180.721 15.9984 180.193 15.83 179.539 15.6615C178.884 15.514 178.125 15.4298 177.28 15.4298C176.499 15.4298 175.866 15.5561 175.38 15.83C174.895 16.0827 174.663 16.4828 174.663 17.0516C174.663 17.3254 174.705 17.5571 174.811 17.7677C174.895 17.9783 175.063 18.1679 175.296 18.3575C175.528 18.547 175.823 18.7155 176.204 18.884C176.583 19.0736 177.048 19.2421 177.597 19.4316C178.504 19.7687 179.264 20.1056 179.898 20.4216C180.531 20.7375 181.059 21.1167 181.46 21.5169C181.86 21.917 182.177 22.4015 182.368 22.9281C182.557 23.4546 182.642 24.0654 182.642 24.8026C182.642 26.3823 182.051 27.5828 180.889 28.3833C179.707 29.2048 178.062 29.6049 175.887 29.6049C174.43 29.6049 173.27 29.4785 172.383 29.2469C171.496 29.0152 170.884 28.8256 170.525 28.6781L171.18 25.4977C171.75 25.7294 172.425 25.961 173.227 26.1717C173.987 26.3613 174.895 26.4665 175.909 26.4665Z" fill="#626262"/>
</g>
</g>
<defs>
<clipPath id="clip0_20613_36880">
<rect width="182.969" height="34.42" fill="white" transform="translate(0.015625 0.370117)"/>
</clipPath>
</defs>
</svg>
