<svg width="50" height="50" viewBox="0 0 50 50" fill="none" xmlns="http://www.w3.org/2000/svg">
<g clip-path="url(#clip0_20613_37018)">
<path d="M44.6055 0.58252H5C2.23857 0.58252 0 2.82109 0 5.58252V44.6044C0 47.3658 2.23857 49.6044 5 49.6044H44.6055C47.3669 49.6044 49.6055 47.3658 49.6055 44.6044V5.58252C49.6055 2.82109 47.3669 0.58252 44.6055 0.58252Z" fill="#FDF4FF"/>
<path d="M15 13.9575C15 13.4325 15 13.17 15.1022 12.9694C15.1921 12.793 15.3355 12.6496 15.5119 12.5597C15.7124 12.4575 15.9749 12.4575 16.5 12.4575H26.2967C26.5279 12.4575 26.6434 12.4575 26.7521 12.4838C26.8484 12.5071 26.9404 12.5455 27.0246 12.5976C27.1197 12.6564 27.2009 12.7386 27.3634 12.9029L33.9416 19.556C34.1016 19.7178 34.1816 19.7987 34.2388 19.8928C34.2895 19.9763 34.3268 20.0672 34.3494 20.1622C34.375 20.2693 34.375 20.3831 34.375 20.6106V36.5825C34.375 37.1076 34.375 37.3701 34.2728 37.5706C34.1829 37.747 34.0395 37.8905 33.8631 37.9803C33.6626 38.0825 33.4001 38.0825 32.875 38.0825H16.5C15.9749 38.0825 15.7124 38.0825 15.5119 37.9803C15.3355 37.8905 15.1921 37.747 15.1022 37.5706C15 37.3701 15 37.1076 15 36.5825V13.9575Z" fill="#FDF4FF" stroke="#E90B76" stroke-width="1.875"/>
<path d="M19.375 26.2075H30H19.375Z" fill="#FDF4FF"/>
<path d="M19.375 26.2075H30" stroke="#E90B76" stroke-width="1.875" stroke-linecap="round"/>
<path d="M19.375 30.5825H25.625H19.375Z" fill="#FDF4FF"/>
<path d="M19.375 30.5825H25.625" stroke="#E90B76" stroke-width="1.875" stroke-linecap="round"/>
<path d="M25.625 12.4575V19.7075C25.625 20.2326 25.625 20.4951 25.7272 20.6956C25.8171 20.872 25.9605 21.0155 26.1369 21.1053C26.3374 21.2075 26.5999 21.2075 27.125 21.2075H34.375" stroke="#E90B76" stroke-width="1.875"/>
<path d="M26.5625 20.27V13.7075V13.395L33.4375 20.27H26.5625Z" fill="#FDF4FF"/>
</g>
<defs>
<clipPath id="clip0_20613_37018">
<rect width="50" height="49.375" fill="white" transform="translate(0 0.58252)"/>
</clipPath>
</defs>
</svg>
