<svg width="160" height="160" viewBox="0 0 160 160" fill="none" xmlns="http://www.w3.org/2000/svg">
<g clip-path="url(#clip0_1196_178)">
<path d="M80 0L87.5716 8.39L96.732 1.74L102.383 11.52L112.73 6.91L116.209 17.64L127.29 15.27L128.446 26.49L139.779 26.47L138.572 37.68L149.663 40L146.134 50.72L156.501 55.28L150.809 65.03L159.99 71.64L152.388 80L159.99 88.36L150.809 94.97L156.501 104.72L146.134 109.28L149.663 119.99L138.572 122.31L139.779 133.52L128.446 133.5L127.29 144.71L116.209 142.34L112.73 153.07L102.383 148.46L96.732 158.24L87.5716 151.59L80 159.98L72.4284 151.59L63.268 158.24L57.6169 148.46L47.27 153.07L43.7908 142.34L32.7099 144.71L31.5535 133.5L20.2212 133.52L21.4279 122.31L10.3369 119.99L13.8663 109.28L3.49925 104.72L9.19055 94.97L0 88.36L7.60181 80L0 71.64L9.19055 65.03L3.49925 55.28L13.8663 50.72L10.3369 40L21.4279 37.68L20.2212 26.47L31.5535 26.49L32.7099 15.27L43.7908 17.64L47.27 6.91L57.6169 11.52L63.268 1.74L72.4284 8.39L80 0Z" fill="#F2B52F"/>
<path d="M80.0001 142C114.431 142 142.343 114.242 142.343 80C142.343 45.7583 114.431 18 80.0001 18C45.5691 18 17.6572 45.7583 17.6572 80C17.6572 114.242 45.5691 142 80.0001 142Z" fill="#FFD176"/>
<path d="M80.0002 121C102.769 121 121.227 102.644 121.227 80C121.227 57.3563 102.769 39 80.0002 39C57.2313 39 38.7734 57.3563 38.7734 80C38.7734 102.644 57.2313 121 80.0002 121Z" fill="#4D4D4D"/>
<path d="M80.0606 86.5799C77.8283 86.5799 75.8575 86.1999 74.138 85.4399C72.4286 84.6699 71.0711 83.6199 70.0857 82.2699C69.1003 80.9299 68.5875 79.3799 68.5674 77.6299H75.6765C75.7066 78.2599 75.9078 78.8299 76.2899 79.3199C76.672 79.7999 77.1848 80.1799 77.8484 80.4599C78.502 80.7299 79.2562 80.8699 80.0908 80.8699C80.9254 80.8699 81.6694 80.7199 82.3029 80.4299C82.9465 80.1299 83.4593 79.7199 83.8213 79.1899C84.1833 78.6599 84.3643 78.0499 84.3542 77.3699C84.3542 76.6899 84.1732 76.0799 83.771 75.5499C83.3688 75.0199 82.8057 74.6099 82.0717 74.3099C81.3477 74.0199 80.493 73.8699 79.4975 73.8699H76.6518V68.8699H79.4975C80.3623 68.8699 81.1265 68.7299 81.7801 68.4399C82.4437 68.1599 82.9666 67.7599 83.3386 67.2499C83.7107 66.7299 83.8917 66.1299 83.8816 65.4599C83.8816 64.8099 83.7308 64.2299 83.409 63.7399C83.0973 63.2399 82.6549 62.8499 82.0817 62.5799C81.5186 62.3099 80.865 62.1699 80.1209 62.1699C79.3366 62.1699 78.6327 62.3099 77.9892 62.5799C77.3658 62.8499 76.863 63.2399 76.491 63.7399C76.1189 64.2399 75.9279 64.8199 75.9078 65.4899H69.1506C69.1707 63.7599 69.6534 62.2299 70.6086 60.9199C71.5639 59.5899 72.8509 58.5599 74.49 57.8099C76.139 57.0599 78.0093 56.6899 80.1209 56.6899C82.2325 56.6899 84.0626 57.0499 85.6513 57.7799C87.2401 58.5099 88.4769 59.4999 89.3618 60.7599C90.2466 62.0099 90.6891 63.4299 90.6891 65.0099C90.6891 66.6499 90.1561 67.9999 89.0701 69.0599C87.9942 70.1199 86.6066 70.7699 84.9173 71.0199V71.2499C87.1797 71.5199 88.8892 72.2399 90.0455 73.4399C91.2119 74.6299 91.7851 76.1199 91.775 77.9099C91.775 79.5999 91.2723 81.0899 90.2768 82.3999C89.2914 83.6999 87.9037 84.7199 86.134 85.4699C84.3743 86.2099 82.3532 86.5799 80.0606 86.5799Z" fill="white"/>
<path d="M64.7764 103.18H60.9956V93H64.7764C65.8221 93 66.7171 93.2 67.4712 93.61C68.2254 94.01 68.8086 94.6 69.2208 95.36C69.6331 96.12 69.8342 97.03 69.8342 98.08C69.8342 99.13 69.6331 100.05 69.2208 100.81C68.8186 101.57 68.2354 102.16 67.4712 102.56C66.7171 102.96 65.8121 103.17 64.7764 103.17V103.18ZM63.4692 101.08H64.6859C65.2591 101.08 65.7417 100.98 66.1439 100.79C66.5461 100.59 66.8478 100.28 67.0489 99.84C67.2601 99.4 67.3606 98.81 67.3606 98.08C67.3606 97.35 67.2601 96.76 67.0489 96.33C66.8377 95.89 66.5361 95.58 66.1339 95.39C65.7317 95.19 65.2389 95.1 64.6557 95.1H63.4793V101.09L63.4692 101.08ZM72.891 103.18H70.2364L73.6955 93H76.9936L80.4526 103.18H77.798L75.3948 95.56H75.3144L72.9111 103.18H72.891ZM72.5391 99.17H78.0997V101.04H72.5391V99.17ZM79.9901 93H82.7553L84.9172 97.26H85.0077L87.1696 93H89.9348L86.1942 99.78V103.18H83.7306V99.78L79.9901 93ZM96.5109 96.05C96.4808 95.69 96.3299 95.4 96.0685 95.2C95.8071 94.99 95.435 94.89 94.9524 94.89C94.6306 94.89 94.3692 94.93 94.1479 95.01C93.9368 95.09 93.7759 95.21 93.6653 95.35C93.5547 95.49 93.5044 95.66 93.5044 95.84C93.5044 95.99 93.5245 96.13 93.5949 96.24C93.6653 96.36 93.7658 96.46 93.8966 96.55C94.0273 96.64 94.1882 96.71 94.3792 96.78C94.5703 96.85 94.7714 96.9 95.0127 96.95L95.8976 97.15C96.4003 97.26 96.8528 97.41 97.2349 97.59C97.6271 97.77 97.9488 97.99 98.2103 98.24C98.4818 98.49 98.6829 98.78 98.8136 99.11C98.9443 99.44 99.0248 99.81 99.0248 100.21C99.0248 100.85 98.8538 101.4 98.5321 101.87C98.2103 102.33 97.7477 102.68 97.1344 102.93C96.531 103.18 95.8071 103.3 94.9524 103.3C94.0977 103.3 93.3536 103.17 92.71 102.92C92.0765 102.66 91.5738 102.28 91.2218 101.76C90.8699 101.24 90.6889 100.58 90.6789 99.79H93.0519C93.072 100.12 93.1625 100.39 93.3134 100.61C93.4742 100.83 93.6854 100.99 93.9569 101.11C94.2384 101.22 94.5502 101.28 94.9121 101.28C95.244 101.28 95.5255 101.24 95.7668 101.15C96.0082 101.06 96.1892 100.94 96.3098 100.78C96.4405 100.62 96.5009 100.44 96.5009 100.23C96.5009 100.04 96.4406 99.87 96.3199 99.74C96.1992 99.6 96.0182 99.48 95.7769 99.38C95.5356 99.28 95.2339 99.18 94.8619 99.1L93.796 98.85C92.9111 98.65 92.2073 98.32 91.7045 97.87C91.1917 97.42 90.9403 96.8 90.9403 96.03C90.9403 95.4 91.1112 94.85 91.4531 94.37C91.795 93.9 92.2676 93.53 92.881 93.26C93.4843 92.99 94.1781 92.86 94.9524 92.86C95.7266 92.86 96.4305 92.99 97.0137 93.26C97.5969 93.53 98.0595 93.9 98.3812 94.38C98.703 94.86 98.8739 95.42 98.8739 96.05H96.5009H96.5109Z" fill="white"/>
<path d="M28.215 82.5C29.6033 82.5 30.7288 81.3807 30.7288 80C30.7288 78.6193 29.6033 77.5 28.215 77.5C26.8267 77.5 25.7012 78.6193 25.7012 80C25.7012 81.3807 26.8267 82.5 28.215 82.5Z" fill="#4D4D4D"/>
<path d="M131.785 82.5C133.174 82.5 134.299 81.3807 134.299 80C134.299 78.6193 133.174 77.5 131.785 77.5C130.397 77.5 129.271 78.6193 129.271 80C129.271 81.3807 130.397 82.5 131.785 82.5Z" fill="#4D4D4D"/>
<path d="M28.0847 64.8199L26.2646 64.2199L27.3205 61.0699L35.6764 63.8399L34.9927 65.8699L28.4567 63.6999L28.0746 64.8299L28.0847 64.8199Z" fill="#4D4D4D"/>
<path d="M29.7237 57.74C29.2511 56.91 29.2813 55.96 29.8243 54.91C30.3572 53.85 31.1013 53.26 32.0566 53.15C33.0118 53.04 34.0978 53.28 35.3346 53.9C36.5815 54.53 37.4462 55.25 37.9188 56.09C38.3914 56.92 38.3613 57.87 37.8183 58.92C37.2853 59.98 36.5412 60.57 35.586 60.68C34.6307 60.8 33.5347 60.55 32.2778 59.92C31.041 59.3 30.1863 58.58 29.7137 57.74H29.7237ZM32.6297 55.09C32.1571 55.05 31.7951 55.28 31.5438 55.77C31.2924 56.26 31.3225 56.69 31.6343 57.04C31.946 57.39 32.4688 57.75 33.1928 58.12C33.6855 58.37 34.0978 58.54 34.4497 58.64C34.8017 58.74 35.1134 58.76 35.405 58.68C35.6966 58.6 35.9178 58.39 36.0988 58.05C36.2698 57.71 36.2999 57.4 36.1994 57.12C36.0888 56.85 35.8877 56.6 35.596 56.38C35.3044 56.16 34.9123 55.93 34.4296 55.69C33.7057 55.33 33.1023 55.13 32.6297 55.09Z" fill="#4D4D4D"/>
<path d="M34.5 49.21C34.1883 48.31 34.3894 47.38 35.1033 46.44C35.8173 45.49 36.6518 45.05 37.6172 45.1C38.5724 45.15 39.6081 45.59 40.7142 46.42C41.8303 47.26 42.5443 48.13 42.866 49.03C43.1878 49.93 42.9766 50.86 42.2627 51.8C41.5488 52.74 40.7142 53.19 39.7489 53.14C38.7936 53.09 37.7479 52.64 36.6317 51.81C35.5257 50.98 34.8117 50.12 34.5 49.22V49.21ZM37.8283 47.11C37.3758 46.99 36.9736 47.15 36.6418 47.59C36.31 48.03 36.2597 48.45 36.5111 48.86C36.7524 49.26 37.2049 49.71 37.8484 50.19C38.2808 50.52 38.6629 50.76 38.9947 50.92C39.3165 51.08 39.6282 51.15 39.9198 51.13C40.2114 51.11 40.4829 50.94 40.7142 50.63C40.9455 50.32 41.036 50.03 40.9756 49.74C40.9153 49.45 40.7645 49.17 40.5131 48.91C40.2617 48.65 39.9198 48.35 39.4874 48.02C38.8339 47.53 38.2808 47.23 37.8283 47.11Z" fill="#4D4D4D"/>
<path d="M40.2617 41.56C40.312 41.05 40.5533 40.6 41.0058 40.21C41.4482 39.82 41.9309 39.63 42.4437 39.66C42.9565 39.68 43.4291 39.93 43.8615 40.42C44.2939 40.91 44.4849 41.4 44.4447 41.91C44.4045 42.42 44.1531 42.87 43.7107 43.26C43.2683 43.65 42.7856 43.84 42.2728 43.82C41.76 43.8 41.2874 43.55 40.855 43.06C40.4226 42.57 40.2316 42.08 40.2818 41.57L40.2617 41.56ZM41.9108 42.12C42.2728 42.53 42.5946 42.61 42.8862 42.35C43.0269 42.23 43.0873 42.08 43.0772 41.91C43.0671 41.74 42.9666 41.55 42.7856 41.35C42.4236 40.94 42.0918 40.86 41.7901 41.12C41.4985 41.37 41.5387 41.71 41.9007 42.12H41.9108ZM45.7318 36.25L47.8535 45.64L46.3552 46.95L44.2336 37.56L45.7318 36.25ZM47.6624 41.29C47.7026 40.78 47.954 40.33 48.3965 39.94C48.8389 39.55 49.3215 39.36 49.8344 39.39C50.3472 39.41 50.8198 39.66 51.2522 40.15C51.6845 40.64 51.8756 41.13 51.8354 41.64C51.7952 42.15 51.5438 42.6 51.1013 42.99C50.6589 43.38 50.1762 43.57 49.6634 43.54C49.1506 43.52 48.678 43.27 48.2456 42.78C47.8133 42.29 47.6222 41.8 47.6624 41.29ZM48.9998 41.29C49.0199 41.46 49.1104 41.65 49.3014 41.86C49.6634 42.27 49.9852 42.35 50.2768 42.09C50.4176 41.97 50.4779 41.82 50.4679 41.65C50.4578 41.48 50.3572 41.29 50.1762 41.09C49.9953 40.89 49.8243 40.77 49.6433 40.73C49.4724 40.69 49.3115 40.73 49.1808 40.86C49.04 40.98 48.9797 41.13 48.9897 41.29H48.9998Z" fill="#4D4D4D"/>
<path d="M62.0415 27.39L65.4502 35.1L63.5598 35.93L61.5186 31.31L61.8303 36.69L60.3019 37.36L56.511 33.49L58.5623 38.13L56.6719 38.96L53.2632 31.25L55.4955 30.27L60.0304 34.66L59.8293 28.38L62.0515 27.41L62.0415 27.39Z" fill="#4D4D4D"/>
<path d="M69.0602 33.8199C68.3363 33.5799 67.7229 33.1699 67.2201 32.5899C66.7174 32.0099 66.3855 31.3199 66.2347 30.5099C66.0839 29.6999 66.1342 28.9399 66.3956 28.2199C66.657 27.4999 67.0794 26.8999 67.6626 26.4199C68.2458 25.9399 68.9295 25.6199 69.7138 25.4799C70.4982 25.3299 71.2523 25.3799 71.9662 25.6199C72.6902 25.8599 73.2935 26.2699 73.7963 26.8399C74.289 27.4199 74.6208 28.1099 74.7717 28.9199C74.9225 29.7299 74.8722 30.4899 74.6108 31.2099C74.3493 31.9299 73.9371 32.5299 73.3539 33.0099C72.7707 33.4899 72.0869 33.8099 71.3126 33.9499C70.5384 34.0899 69.7742 34.0499 69.0602 33.8099V33.8199ZM72.4388 31.1699C72.7505 30.6599 72.841 30.0399 72.7103 29.3099C72.5695 28.5799 72.2679 28.0299 71.7852 27.6699C71.3026 27.3099 70.7294 27.1899 70.0658 27.3099C69.3921 27.4299 68.8994 27.7499 68.5776 28.2599C68.2558 28.7699 68.1653 29.3899 68.3061 30.1299C68.4469 30.8599 68.7485 31.4099 69.2312 31.7699C69.7138 32.1299 70.287 32.2499 70.9607 32.1299C71.6244 32.0099 72.1171 31.6899 72.4288 31.1699H72.4388Z" fill="#4D4D4D"/>
<path d="M84.7767 33.18L82.7154 33.14L79.377 27.87L79.2664 33.06L77.2051 33.02L77.376 24.6L79.4374 24.64L82.7757 29.93L82.8863 24.71L84.9477 24.75L84.7767 33.17V33.18Z" fill="#4D4D4D"/>
<path d="M90.1866 27.26L89.8548 28.93L92.5597 29.47L92.2479 31.02L89.533 30.48L89.171 32.29L92.2379 32.9L91.9161 34.51L86.8281 33.5L88.4873 25.24L93.5752 26.25L93.2535 27.86L90.1866 27.25V27.26Z" fill="#4D4D4D"/>
<path d="M103.59 29.71L98.8238 33.93L97.8183 36.53L95.8877 35.8L96.8932 33.2L96.1793 26.89L98.3613 27.72L98.6227 31.6L101.408 28.88L103.57 29.7L103.59 29.71Z" fill="#4D4D4D"/>
<path d="M111.916 40.59C111.936 41.07 111.805 41.51 111.523 41.91C111.111 42.48 110.588 42.8 109.945 42.85C109.301 42.9 108.617 42.67 107.893 42.16L104.676 39.89L109.583 33.02L112.69 35.22C113.394 35.72 113.826 36.26 113.997 36.86C114.168 37.46 114.057 38.03 113.665 38.58C113.374 38.98 113.032 39.25 112.63 39.36C112.227 39.48 111.805 39.46 111.383 39.32C111.725 39.69 111.906 40.11 111.926 40.59H111.916ZM109.351 40.87C109.593 40.85 109.804 40.72 109.975 40.48C110.146 40.24 110.206 39.99 110.136 39.74C110.075 39.49 109.905 39.26 109.623 39.07L108.406 38.21L107.32 39.73L108.557 40.61C108.839 40.81 109.1 40.9 109.351 40.88V40.87ZM109.281 36.98L110.387 37.76C110.659 37.95 110.92 38.04 111.151 38.03C111.383 38.01 111.584 37.89 111.755 37.65C111.926 37.41 111.976 37.18 111.916 36.96C111.855 36.73 111.694 36.52 111.413 36.33L110.317 35.55L109.291 36.99L109.281 36.98Z" fill="#4D4D4D"/>
<path d="M116.229 47.64L114.037 45.37L112.61 46.04L111.111 44.49L119.347 40.86L120.996 42.58L117.004 50.61L115.495 49.04L116.229 47.65V47.64ZM117.014 46.16L118.522 43.27L115.566 44.66L117.014 46.16Z" fill="#4D4D4D"/>
<path d="M123.469 48.5C124.213 48.46 124.917 48.61 125.571 48.96C126.224 49.31 126.767 49.83 127.21 50.52C127.743 51.37 127.984 52.23 127.914 53.11C127.843 53.99 127.491 54.78 126.838 55.47L125.631 53.56C125.842 53.23 125.943 52.89 125.933 52.53C125.933 52.17 125.812 51.83 125.601 51.49C125.259 50.96 124.797 50.64 124.213 50.54C123.63 50.44 123.027 50.59 122.393 50.98C121.77 51.37 121.378 51.85 121.207 52.42C121.046 52.99 121.126 53.54 121.468 54.07C121.679 54.4 121.941 54.65 122.263 54.81C122.584 54.97 122.936 55.03 123.329 54.98L124.535 56.89C123.63 57.17 122.765 57.15 121.941 56.83C121.116 56.51 120.433 55.92 119.9 55.08C119.457 54.39 119.226 53.67 119.186 52.94C119.145 52.2 119.306 51.51 119.668 50.86C120.03 50.21 120.563 49.66 121.267 49.22C121.971 48.78 122.705 48.53 123.449 48.49L123.469 48.5Z" fill="#4D4D4D"/>
<path d="M124.605 64.6199L127.079 60.6499L123.59 61.9799L122.855 60.0599L130.769 57.0599L131.503 58.9799L128.034 60.2999L132.519 61.5999L133.383 63.8499L128.336 62.2699L125.51 66.9599L124.605 64.6199Z" fill="#4D4D4D"/>
<path d="M46.033 117.16C46.1235 116.85 46.1135 116.55 46.0129 116.24C45.9124 115.94 45.7213 115.65 45.4498 115.38C44.9672 114.92 44.4342 114.7 43.841 114.73C43.2477 114.76 42.6947 115.04 42.1818 115.56C41.6389 116.11 41.3674 116.7 41.3573 117.3C41.3472 117.9 41.6187 118.46 42.1416 118.98C42.5036 119.33 42.8958 119.54 43.3281 119.6C43.7605 119.66 44.203 119.57 44.6554 119.34L42.7852 117.52L43.851 116.44L47.0687 119.56L45.7314 120.93C45.2588 121.19 44.7459 121.35 44.1728 121.41C43.5996 121.47 43.0164 121.41 42.4232 121.21C41.8299 121.01 41.2769 120.67 40.7741 120.18C40.1708 119.6 39.7686 118.95 39.5574 118.23C39.3462 117.51 39.3362 116.8 39.5272 116.08C39.7183 115.36 40.1104 114.7 40.6937 114.11C41.2769 113.52 41.9305 113.11 42.6544 112.9C43.3784 112.69 44.0923 112.68 44.8163 112.87C45.5403 113.06 46.1939 113.45 46.7972 114.03C47.5212 114.73 47.9636 115.5 48.1145 116.34C48.2653 117.17 48.1245 117.98 47.6821 118.75L46.0531 117.17L46.033 117.16Z" fill="#4D4D4D"/>
<path d="M53.0918 119.31L50.3668 123.56C50.0953 123.98 49.9847 124.38 50.0551 124.74C50.1154 125.1 50.3567 125.41 50.759 125.67C51.1612 125.93 51.5533 126.01 51.9153 125.92C52.2773 125.83 52.5991 125.57 52.8706 125.14L55.5956 120.89L57.3351 121.99L54.6202 126.23C54.218 126.86 53.7353 127.31 53.1823 127.58C52.6292 127.85 52.0561 127.95 51.4528 127.88C50.8495 127.81 50.2662 127.6 49.7031 127.24C49.1401 126.88 48.7077 126.45 48.406 125.95C48.1044 125.45 47.9636 124.9 47.9937 124.29C48.0239 123.68 48.2351 123.06 48.6473 122.43L51.3623 118.19L53.1018 119.29L53.0918 119.31Z" fill="#4D4D4D"/>
<path d="M61.981 131.47L59.0247 130.35L58.0192 131.56L55.998 130.8L61.8804 124.01L64.1127 124.86L63.9619 133.82L61.9206 133.05L61.981 131.48V131.47ZM62.0513 129.8L62.172 126.55L60.1006 129.06L62.0513 129.8Z" fill="#4D4D4D"/>
<path d="M71.7641 135.37L70.5575 131.94L70.0648 131.86L69.5419 135L67.5107 134.66L68.9084 126.35L72.3272 126.92C72.9808 127.03 73.5238 127.24 73.9562 127.54C74.3886 127.84 74.6802 128.22 74.8411 128.65C75.0019 129.09 75.0422 129.55 74.9617 130.04C74.8712 130.59 74.6299 131.06 74.2377 131.44C73.8456 131.82 73.3328 132.05 72.6993 132.13L74.0769 135.74L71.7842 135.36L71.7641 135.37ZM70.3061 130.43L71.563 130.64C71.9351 130.7 72.2267 130.66 72.4479 130.51C72.6691 130.36 72.7998 130.12 72.8602 129.79C72.9104 129.47 72.8602 129.21 72.7093 129C72.5585 128.79 72.287 128.65 71.915 128.59L70.658 128.38L70.3162 130.44L70.3061 130.43Z" fill="#4D4D4D"/>
<path d="M83.2076 134.39L80.0502 134.48L79.5877 135.98L77.4258 136.04L80.2413 127.53L82.6244 127.46L85.9326 135.79L83.7506 135.85L83.1975 134.38L83.2076 134.39ZM82.6344 132.82L81.4982 129.77L80.553 132.88L82.6445 132.82H82.6344Z" fill="#4D4D4D"/>
<path d="M96.963 133.49L94.962 133.97L90.3768 129.73L91.6036 134.78L89.5925 135.26L87.6016 127.07L89.6026 126.59L94.1878 130.86L92.951 125.79L94.952 125.31L96.9429 133.5L96.963 133.49Z" fill="#4D4D4D"/>
<path d="M102.906 121.85L103.6 123.34L101.558 124.27L104.404 130.43L102.534 131.29L99.6882 125.13L97.6469 126.06L96.9531 124.57L102.906 121.85Z" fill="#4D4D4D"/>
<path d="M107.391 120.95L108.356 122.36L110.639 120.82L111.533 122.13L109.251 123.67L110.297 125.2L112.881 123.45L113.806 124.81L109.512 127.71L104.746 120.74L109.04 117.84L109.965 119.2L107.381 120.95H107.391Z" fill="#4D4D4D"/>
<path d="M113.625 116.05L114.801 117.29L116.812 115.4L117.908 116.55L115.897 118.44L117.174 119.78L119.447 117.65L120.583 118.85L116.812 122.39L110.99 116.27L114.761 112.73L115.897 113.93L113.625 116.06V116.05Z" fill="#4D4D4D"/>
</g>
<defs>
<clipPath id="clip0_1196_178">
<rect width="160" height="160" fill="white"/>
</clipPath>
</defs>
</svg>
