<svg width="160" height="160" viewBox="0 0 160 160" fill="none" xmlns="http://www.w3.org/2000/svg">
<path d="M80 0L87.526 8.39442L96.6329 1.74819L102.249 11.5239L112.539 6.91637L116 17.6462L127.023 15.2786L128.177 26.4936L139.452 26.4696L138.249 37.6795L149.282 40L145.775 50.715L156.085 55.2786L150.427 65.0304L159.562 71.6377L152 80L159.562 88.3623L150.427 94.9696L156.085 104.721L145.775 109.285L149.282 120L138.249 122.321L139.452 133.53L128.177 133.506L127.023 144.721L116 142.354L112.539 153.084L102.249 148.476L96.6329 158.252L87.526 151.606L80 160L72.474 151.606L63.3671 158.252L57.7508 148.476L47.4611 153.084L44 142.354L32.9772 144.721L31.8226 133.506L20.5484 133.53L21.7508 122.321L10.718 120L14.2247 109.285L3.91548 104.721L9.57337 94.9696L0.438248 88.3623L8 80L0.438248 71.6377L9.57337 65.0304L3.91548 55.2786L14.2247 50.715L10.718 40L21.7508 37.6795L20.5484 26.4696L31.8226 26.4936L32.9772 15.2786L44 17.6462L47.4611 6.91637L57.7508 11.5239L63.3671 1.74819L72.474 8.39442L80 0Z" fill="#00971C"/>
<circle cx="80" cy="80" r="62" fill="#27B241"/>
<circle cx="80" cy="80" r="41" fill="white"/>
<path d="M70.5491 86.1665L81.8747 62.7266L81.8715 62.542L68.152 62.7815L68.0531 57.1147L89.0442 56.7483L89.1438 62.4577L77.7781 86.0403L70.5491 86.1665Z" fill="#191F2D"/>
<path d="M65.4769 103.258L61.714 103.323L61.5363 93.143L65.2942 93.0774C66.3315 93.0593 67.2281 93.2475 67.9842 93.6421C68.7435 94.0332 69.3336 94.6063 69.7545 95.3614C70.1754 96.1132 70.395 97.0176 70.4135 98.0748C70.432 99.1352 70.2441 100.05 69.8498 100.819C69.4588 101.589 68.8907 102.184 68.1456 102.604C67.4004 103.022 66.5108 103.24 65.4769 103.258ZM64.1379 101.183L65.3458 101.162C65.9158 101.152 66.3963 101.047 66.7873 100.848C67.1816 100.646 67.4759 100.324 67.6704 99.8829C67.8682 99.4385 67.9607 98.8502 67.9479 98.1178C67.9351 97.3854 67.8222 96.804 67.6092 96.3734C67.3961 95.9396 67.0874 95.6301 66.683 95.4449C66.282 95.2563 65.7898 95.1671 65.2066 95.1773L64.0334 95.1977L64.1379 101.183ZM73.5396 103.117L70.8951 103.163L74.1522 92.9228L77.428 92.8656L81.0406 102.986L78.3961 103.032L75.8722 95.4585L75.7926 95.4599L73.5396 103.117ZM73.1167 99.1165L78.6443 99.02L78.6769 100.889L73.1493 100.986L73.1167 99.1165ZM80.413 92.8135L83.1619 92.7655L85.3886 96.988L85.4781 96.9864L87.5561 92.6888L90.305 92.6408L86.7002 99.486L86.7595 102.886L84.3139 102.929L84.2545 99.5287L80.413 92.8135ZM96.8924 95.5789C96.8529 95.2149 96.7005 94.9342 96.4352 94.7366C96.1731 94.5356 95.8018 94.4394 95.3213 94.4477C95.0031 94.4533 94.7388 94.4994 94.5281 94.5859C94.3175 94.6724 94.1604 94.7896 94.0569 94.9372C93.9533 95.0816 93.9015 95.2466 93.9015 95.4322C93.8975 95.5847 93.9297 95.7184 93.998 95.8333C94.0696 95.948 94.1708 96.049 94.3016 96.1363C94.4356 96.2201 94.596 96.2935 94.7828 96.3566C94.9695 96.4196 95.1793 96.474 95.4121 96.5196L96.2905 96.7032C96.7961 96.8038 97.2427 96.9418 97.6303 97.1174C98.0212 97.2929 98.3498 97.5043 98.6159 97.7515C98.8855 97.9988 99.091 98.2852 99.2326 98.6109C99.3742 98.9366 99.4502 99.3033 99.4606 99.7108C99.4685 100.354 99.3158 100.908 99.0024 101.375C98.689 101.841 98.2329 102.202 97.634 102.458C97.0385 102.713 96.3165 102.849 95.4682 102.863C94.6165 102.878 93.872 102.764 93.2346 102.519C92.5972 102.275 92.0983 101.896 91.7379 101.382C91.3776 100.868 91.1855 100.213 91.1617 99.4181L93.5178 99.377C93.5434 99.7047 93.636 99.9766 93.7956 100.193C93.9552 100.409 94.1718 100.571 94.4455 100.678C94.7225 100.786 95.0417 100.837 95.4029 100.831C95.7343 100.825 96.0152 100.775 96.2456 100.682C96.4793 100.588 96.6577 100.461 96.7809 100.3C96.904 100.138 96.9655 99.9549 96.9652 99.7494C96.9585 99.5573 96.896 99.3943 96.7777 99.2604C96.6592 99.1233 96.4782 99.0071 96.2346 98.9119C95.9942 98.8133 95.6876 98.7242 95.315 98.6445L94.2469 98.4145C93.3619 98.2278 92.6619 97.9135 92.147 97.4716C91.6321 97.0265 91.3695 96.4178 91.3593 95.6456C91.345 95.016 91.5044 94.4613 91.8375 93.9815C92.1705 93.5016 92.6363 93.1239 93.2348 92.8483C93.8333 92.5726 94.5186 92.4281 95.2908 92.4146C96.0795 92.4008 96.7661 92.5231 97.3507 92.7814C97.9386 93.0363 98.3975 93.4012 98.7273 93.8761C99.0571 94.351 99.2309 94.9049 99.2486 95.5378L96.8924 95.5789Z" fill="#191F2D"/>
<path d="M28.5896 60.8683L36.9075 63.5098L36.1904 65.768L29.9519 63.7869L29.9365 63.8356L30.4471 66.0008L28.5301 65.392L27.9292 62.9478L28.5896 60.8683Z" fill="white"/>
<path d="M39.7878 58.0483C39.4237 58.7523 38.9483 59.278 38.3616 59.6253C37.7749 59.9726 37.1056 60.1291 36.3538 60.0949C35.602 60.0606 34.8007 59.8238 33.9501 59.3846C33.0969 58.944 32.4426 58.433 31.9873 57.8515C31.5332 57.2676 31.2816 56.6406 31.2325 55.9705C31.1846 55.2979 31.3415 54.6089 31.7031 53.9036C32.0646 53.1983 32.5337 52.6694 33.1103 52.3169C33.6843 51.9631 34.341 51.8001 35.0801 51.8279C35.8193 51.8556 36.6143 52.0892 37.4649 52.5285C38.3219 52.9678 38.9838 53.4827 39.4505 54.0731C39.9172 54.6636 40.1808 55.2983 40.2413 55.9774C40.3005 56.6527 40.1494 57.343 39.7878 58.0483ZM38.0738 57.1696C38.2604 56.8056 38.2237 56.41 37.9637 55.9831C37.7025 55.5522 37.163 55.1288 36.3451 54.7127C35.8117 54.4392 35.3484 54.2688 34.9552 54.2013C34.562 54.1338 34.2366 54.1521 33.9789 54.2562C33.7187 54.3591 33.5263 54.5318 33.4019 54.7745C33.2153 55.1386 33.2475 55.5302 33.4987 55.9495C33.7499 56.3688 34.2736 56.7857 35.0699 57.2003C35.6121 57.4815 36.0861 57.6591 36.492 57.733C36.8953 57.8057 37.2283 57.7913 37.4911 57.6897C37.7551 57.5857 37.9493 57.4123 38.0738 57.1696Z" fill="white"/>
<path d="M44.5735 50.9875C44.0853 51.6119 43.5209 52.0405 42.88 52.2732C42.2392 52.506 41.5525 52.5359 40.82 52.3631C40.0875 52.1902 39.344 51.8093 38.5893 51.2201C37.8324 50.6292 37.284 50.0059 36.9442 49.3503C36.6061 48.6924 36.4749 48.0296 36.5506 47.362C36.628 46.6922 36.9097 46.0442 37.3956 45.4179C37.8815 44.7917 38.4404 44.3588 39.0723 44.1191C39.7019 43.8777 40.3773 43.839 41.0986 44.0032C41.8198 44.1673 42.5578 44.5439 43.3125 45.1331C44.0733 45.7235 44.6284 46.352 44.9778 47.0186C45.3271 47.6852 45.4687 48.3578 45.4025 49.0363C45.3357 49.7109 45.0594 50.3613 44.5735 50.9875ZM43.0517 49.8067C43.3025 49.4835 43.3397 49.088 43.1632 48.6203C42.9863 48.1486 42.5344 47.6326 41.8077 47.0723C41.3342 46.7048 40.9104 46.4515 40.5365 46.3124C40.1626 46.1733 39.8394 46.1311 39.5669 46.1857C39.2921 46.2386 39.0711 46.3728 38.9039 46.5883C38.6531 46.9115 38.6123 47.3023 38.7816 47.7609C38.9508 48.2194 39.3883 48.726 40.094 49.2809C40.5749 49.6576 41.0078 49.9198 41.393 50.0676C41.7758 50.2137 42.1058 50.2611 42.3828 50.21C42.6616 50.1566 42.8845 50.0222 43.0517 49.8067Z" fill="white"/>
<path d="M50.2228 42.7902L49.9223 42.4416C49.6812 42.1619 49.5188 41.8517 49.4353 41.5112C49.3539 41.1687 49.3673 40.8253 49.4754 40.4808C49.5835 40.1363 49.8043 39.8203 50.1379 39.5328C50.48 39.2379 50.8285 39.0612 51.1833 39.0029C51.5402 38.9428 51.881 38.9791 52.2055 39.1119C52.5301 39.2447 52.8148 39.4532 53.0596 39.7372L53.3601 40.0858C53.6012 40.3655 53.7625 40.6766 53.8439 41.019C53.9274 41.3596 53.9141 41.703 53.8038 42.0494C53.6935 42.3957 53.4695 42.7145 53.1316 43.0057C52.7938 43.297 52.4466 43.4707 52.0899 43.5268C51.7332 43.583 51.3926 43.5446 51.0681 43.4118C50.7457 43.2771 50.4639 43.0699 50.2228 42.7902ZM51.0455 41.4734L51.346 41.822C51.4518 41.9446 51.5867 42.0402 51.7508 42.1088C51.9152 42.1733 52.0824 42.1323 52.2524 41.9858C52.431 41.8319 52.4982 41.6727 52.454 41.5082C52.4119 41.342 52.3353 41.1943 52.224 41.0652L51.9235 40.7166C51.8122 40.5875 51.6777 40.4859 51.52 40.4117C51.3624 40.3376 51.191 40.3803 51.0059 40.5398C50.836 40.6863 50.7717 40.8468 50.8132 41.0211C50.8568 41.1935 50.9342 41.3443 51.0455 41.4734ZM43.5019 41.9901L43.2014 41.6415C42.9565 41.3574 42.7934 41.0442 42.712 40.7018C42.6328 40.3575 42.6481 40.0142 42.7581 39.6718C42.8681 39.3295 43.0877 39.0164 43.4169 38.7326C43.759 38.4377 44.1075 38.2611 44.4623 38.2028C44.8193 38.1426 45.16 38.1789 45.4846 38.3118C45.8091 38.4446 46.0938 38.653 46.3386 38.937L46.6391 39.2856C46.884 39.5697 47.0462 39.8818 47.1257 40.2221C47.2074 40.5605 47.1912 40.9007 47.0773 41.2428C46.9633 41.5848 46.7374 41.9015 46.3996 42.1927C46.0617 42.4839 45.7154 42.6587 45.3606 42.717C45.0058 42.7753 44.667 42.7391 44.3444 42.6084C44.0238 42.4759 43.743 42.2698 43.5019 41.9901ZM44.3375 40.6621L44.638 41.0107C44.7493 41.1398 44.8851 41.2365 45.0455 41.3007C45.206 41.365 45.3679 41.3266 45.5315 41.1857C45.7101 41.0317 45.7773 40.8725 45.733 40.7081C45.691 40.5418 45.6143 40.3941 45.503 40.265L45.2025 39.9164C45.0912 39.7873 44.9567 39.6857 44.7991 39.6116C44.6414 39.5374 44.47 39.5801 44.285 39.7397C44.115 39.8862 44.0547 40.0469 44.1042 40.2218C44.154 40.3927 44.2318 40.5394 44.3375 40.6621ZM48.3799 46.5393L47.2262 36.0115L48.1428 35.2213L49.2965 45.7491L48.3799 46.5393Z" fill="white"/>
<path d="M56.1233 30.6677L58.8556 29.5585L62.5944 33.3757L62.6892 33.3372L62.7093 27.9941L65.4416 26.8848L68.7243 34.9712L66.5764 35.8431L64.6785 31.1682L64.6154 31.1939L64.6871 36.5365L63.392 37.0623L59.7065 33.1499L59.6433 33.1756L61.554 37.8821L59.4061 38.754L56.1233 30.6677Z" fill="white"/>
<path d="M76.8564 29.47C77.0235 30.4271 76.9784 31.267 76.721 31.9897C76.4631 32.7095 76.0475 33.294 75.4742 33.7431C74.9003 34.1893 74.2244 34.4804 73.4464 34.6162C72.6628 34.7531 71.9252 34.7074 71.2336 34.4792C70.5443 34.2477 69.9564 33.8371 69.4698 33.2472C68.9856 32.654 68.6604 31.8817 68.4942 30.9302C68.3271 29.9731 68.3711 29.1348 68.6261 28.4155C68.8835 27.6928 69.2977 27.1086 69.8688 26.6628C70.4421 26.2137 71.1206 25.9208 71.9042 25.784C72.6822 25.6481 73.417 25.6943 74.1086 25.9225C74.7997 26.1479 75.3888 26.5569 75.8758 27.1496C76.3624 27.7394 76.6892 28.5129 76.8564 29.47ZM74.4552 29.8893C74.3653 29.3744 74.221 28.9526 74.0223 28.6239C73.8259 28.2919 73.5789 28.0582 73.2812 27.9227C72.9859 27.784 72.6451 27.7483 72.2589 27.8157C71.8727 27.8832 71.5628 28.0325 71.3292 28.2636C71.0979 28.4914 70.9447 28.795 70.8697 29.1744C70.7969 29.5505 70.8055 29.996 70.8954 30.5109C70.9853 31.0258 71.1285 31.4493 71.3249 31.7812C71.5236 32.1099 71.7706 32.3436 72.0659 32.4824C72.3635 32.6179 72.7054 32.6519 73.0916 32.5845C73.4778 32.517 73.7866 32.3694 74.0179 32.1416C74.2515 31.9104 74.4047 31.6068 74.4775 31.2308C74.5525 30.8514 74.5451 30.4042 74.4552 29.8893Z" fill="white"/>
<path d="M86.1522 25.4339L85.9781 34.1594L84.0013 34.12L80.9399 29.4728L80.8888 29.4718L80.7974 34.0561L78.4285 34.0088L78.6026 25.2833L80.6135 25.3234L83.6241 29.9526L83.6923 29.9539L83.7834 25.3866L86.1522 25.4339Z" fill="white"/>
<path d="M87.0251 34.5376L88.7544 25.9834L94.9195 27.2297L94.5412 29.1009L90.6985 28.3241L90.4013 29.7943L93.9265 30.507L93.5483 32.3782L90.023 31.6656L89.7258 33.1358L93.5518 33.9093L93.1735 35.7805L87.0251 34.5376Z" fill="white"/>
<path d="M97.6432 28.1601L100.098 29.1376L100.37 33.0621L100.433 33.0874L103.328 30.4242L105.783 31.4017L100.592 35.7744L99.5768 38.324L97.3915 37.4537L98.4068 34.9041L97.6432 28.1601Z" fill="white"/>
<path d="M106.754 42.5447L112.138 35.6765L115.116 38.0112C115.64 38.4214 116.024 38.8362 116.269 39.2558C116.516 39.6771 116.629 40.0872 116.609 40.4863C116.591 40.8872 116.445 41.262 116.171 41.6108C115.973 41.8634 115.737 42.0499 115.462 42.1701C115.19 42.2922 114.899 42.3456 114.589 42.3305C114.282 42.3131 113.974 42.227 113.666 42.072L113.613 42.1391C113.899 42.3816 114.109 42.6669 114.242 42.9948C114.376 43.3205 114.42 43.6601 114.374 44.0138C114.33 44.3652 114.18 44.703 113.926 45.0271C113.632 45.4028 113.271 45.6599 112.845 45.7985C112.421 45.9389 111.963 45.9518 111.472 45.8373C110.98 45.7228 110.485 45.4701 109.987 45.0793L106.754 42.5447ZM109.786 42.5175L110.658 43.2011C110.971 43.4465 111.251 43.5724 111.499 43.5789C111.748 43.5831 111.963 43.47 112.144 43.2397C112.27 43.0788 112.34 42.9135 112.354 42.7438C112.368 42.5742 112.329 42.4069 112.238 42.2418C112.15 42.0785 112.01 41.9224 111.82 41.7734L110.922 41.0688L109.786 42.5175ZM111.826 39.9151L112.591 40.5146C112.754 40.6425 112.918 40.7299 113.084 40.7766C113.249 40.8233 113.404 40.8258 113.549 40.784C113.698 40.7417 113.827 40.6502 113.938 40.5093C114.104 40.2969 114.155 40.0752 114.091 39.8443C114.028 39.611 113.881 39.4033 113.648 39.221L112.857 38.6005L111.826 39.9151Z" fill="white"/>
<path d="M114.298 49.3419L112.613 47.4192L121.075 43.8326L123.21 46.268L118.546 54.1871L116.86 52.2644L120.357 46.6602L120.312 46.6089L114.298 49.3419ZM116.573 46.7133L119.742 50.328L118.409 51.4965L115.24 47.8819L116.573 46.7133Z" fill="white"/>
<path d="M127.381 59.1412L126.186 57.0557C126.35 56.9421 126.484 56.813 126.588 56.6684C126.693 56.5263 126.765 56.3708 126.802 56.202C126.844 56.0342 126.847 55.8571 126.812 55.6708C126.78 55.483 126.707 55.2905 126.594 55.0933C126.396 54.7482 126.145 54.5041 125.841 54.361C125.538 54.2204 125.194 54.1782 124.81 54.2343C124.428 54.2928 124.018 54.4478 123.579 54.6992C123.115 54.9647 122.763 55.2487 122.52 55.5513C122.281 55.855 122.151 56.1703 122.129 56.4974C122.109 56.823 122.195 57.1522 122.385 57.485C122.494 57.6748 122.615 57.8314 122.748 57.955C122.883 58.0771 123.028 58.1675 123.183 58.2262C123.338 58.2848 123.499 58.312 123.667 58.3075C123.839 58.3042 124.013 58.2682 124.19 58.1997L125.37 60.2935C125.035 60.4525 124.657 60.5496 124.235 60.585C123.816 60.6189 123.384 60.5734 122.939 60.4485C122.498 60.3246 122.072 60.1018 121.662 59.7802C121.252 59.4586 120.888 59.0205 120.57 58.4659C120.172 57.7707 119.964 57.0616 119.946 56.3386C119.929 55.618 120.119 54.9316 120.514 54.2792C120.911 53.6294 121.529 53.0644 122.367 52.5842C123.21 52.1012 124.013 51.8572 124.777 51.8521C125.542 51.8456 126.231 52.0337 126.843 52.4164C127.458 52.7977 127.96 53.3285 128.35 54.0088C128.624 54.4871 128.811 54.9645 128.91 55.4411C129.01 55.9178 129.021 56.3797 128.943 56.827C128.868 57.2728 128.701 57.6927 128.442 58.0866C128.183 58.4804 127.829 58.832 127.381 59.1412Z" fill="white"/>
<path d="M122.854 62.9712L131.117 60.1643L131.879 62.4077L128.538 63.5426L128.577 63.6555L132.762 65.0062L133.65 67.6209L129.022 66.0787L125.408 70.4924L124.498 67.8131L126.967 64.9045L125.746 64.491L123.616 65.2146L122.854 62.9712Z" fill="white"/>
<path d="M38.1903 106.453C38.3031 106.347 38.3894 106.231 38.4491 106.106C38.5113 105.979 38.5476 105.844 38.5581 105.701C38.5724 105.559 38.5584 105.411 38.516 105.255C38.4776 105.1 38.4128 104.943 38.3219 104.782C38.126 104.436 37.8759 104.187 37.5717 104.036C37.2689 103.888 36.9254 103.838 36.5411 103.885C36.1582 103.936 35.7468 104.085 35.3067 104.334C34.8617 104.586 34.5152 104.862 34.2673 105.162C34.0194 105.463 33.8793 105.78 33.8469 106.115C33.8145 106.45 33.8991 106.796 34.1006 107.152C34.2783 107.466 34.4717 107.701 34.6807 107.857C34.8911 108.015 35.1098 108.099 35.3367 108.107C35.5636 108.116 35.7908 108.056 36.0182 107.927L36.1826 108.304L35.2003 106.569L36.6688 105.737L38.5748 109.105L37.5216 109.701C36.8293 110.093 36.1539 110.281 35.4954 110.265C34.8408 110.25 34.2369 110.06 33.6837 109.694C33.1345 109.329 32.6723 108.816 32.2973 108.153C31.8789 107.414 31.6685 106.676 31.6662 105.939C31.664 105.203 31.8645 104.513 32.2678 103.87C32.6724 103.23 33.2753 102.683 34.0763 102.23C34.7043 101.874 35.3145 101.655 35.9068 101.571C36.5005 101.489 37.0608 101.525 37.5877 101.677C38.1171 101.828 38.5937 102.079 39.0176 102.43C39.4439 102.779 39.8019 103.21 40.0916 103.722C40.3463 104.172 40.5185 104.626 40.6082 105.084C40.7019 105.544 40.7152 105.988 40.6482 106.418C40.5852 106.849 40.4459 107.246 40.2306 107.609C40.0152 107.973 39.7283 108.282 39.37 108.537L38.1903 106.453Z" fill="white"/>
<path d="M47.7179 113.77L49.3501 115.488L45.2976 119.339C44.8157 119.797 44.2891 120.078 43.7178 120.182C43.1505 120.286 42.5764 120.225 41.9954 119.997C41.4165 119.767 40.8696 119.381 40.3549 118.84C39.8363 118.294 39.4769 117.726 39.2769 117.137C39.079 116.545 39.0464 115.968 39.1792 115.407C39.3161 114.846 39.6254 114.336 40.1073 113.878L44.1598 110.027L45.7921 111.744L41.8878 115.455C41.6922 115.641 41.5582 115.85 41.486 116.084C41.4158 116.315 41.4099 116.548 41.4682 116.782C41.5285 117.019 41.6516 117.235 41.8376 117.431C42.0254 117.628 42.235 117.762 42.4664 117.833C42.6977 117.903 42.9306 117.909 43.1652 117.85C43.4018 117.79 43.618 117.667 43.8136 117.481L47.7179 113.77Z" fill="white"/>
<path d="M49.1929 126.167L47.0346 124.796L54.1454 118.974L56.8792 120.71L54.6317 129.622L52.4734 128.251L54.2525 121.889L54.1949 121.852L49.1929 126.167ZM50.6361 123.005L54.6936 125.582L53.7431 127.078L49.6856 124.501L50.6361 123.005Z" fill="white"/>
<path d="M59.3772 131.649L62.2002 123.391L65.7647 124.61C66.3776 124.819 66.8758 125.114 67.2592 125.494C67.6426 125.874 67.8903 126.318 68.0023 126.825C68.1144 127.331 68.0702 127.878 67.8699 128.464C67.6677 129.055 67.3655 129.509 66.9633 129.824C66.5638 130.141 66.0921 130.322 65.5482 130.368C65.007 130.414 64.4219 130.329 63.7929 130.114L61.6639 129.386L62.2593 127.645L63.9368 128.218C64.2002 128.308 64.4357 128.352 64.6432 128.351C64.8544 128.348 65.0345 128.291 65.1836 128.18C65.3354 128.07 65.4512 127.898 65.5312 127.664C65.612 127.428 65.6267 127.218 65.575 127.035C65.527 126.851 65.4209 126.691 65.2566 126.557C65.096 126.421 64.8839 126.308 64.6205 126.218L63.8301 125.948L61.6192 132.416L59.3772 131.649ZM65.5116 129.513L66.2805 134.009L63.845 133.176L63.1245 128.697L65.5116 129.513Z" fill="white"/>
<path d="M73.2588 135.17L70.713 134.933L74.3909 126.511L77.6156 126.811L79.6742 135.768L77.1284 135.531L75.8142 129.057L75.7463 129.051L73.2588 135.17ZM73.103 131.698L77.8891 132.144L77.7246 133.909L72.9385 133.463L73.103 131.698Z" fill="white"/>
<path d="M90.9962 125.663L92.3178 134.29L90.3634 134.59L86.5519 130.535L86.5014 130.542L87.1958 135.075L84.8538 135.434L83.5321 126.807L85.5203 126.502L89.2786 130.548L89.346 130.538L88.6542 126.022L90.9962 125.663Z" fill="white"/>
<path d="M94.7236 126.533L94.0004 124.766L101.02 121.892L101.744 123.659L99.3142 124.654L101.897 130.964L99.7358 131.848L97.153 125.538L94.7236 126.533Z" fill="white"/>
<path d="M109.191 127.167L104.144 120.047L109.276 116.41L110.38 117.967L107.181 120.234L108.049 121.458L110.983 119.378L112.087 120.936L109.152 123.016L110.02 124.239L113.205 121.982L114.308 123.54L109.191 127.167Z" fill="white"/>
<path d="M118.602 119.672L112.126 113.822L116.342 109.155L117.759 110.435L115.131 113.344L116.244 114.349L118.655 111.68L120.072 112.96L117.661 115.629L118.774 116.634L121.39 113.738L122.807 115.018L118.602 119.672Z" fill="white"/>
<path d="M127.821 107.364L126.191 110.3L118.56 106.066L120.173 103.159C120.609 102.375 121.138 101.781 121.76 101.379C122.382 100.974 123.064 100.774 123.808 100.781C124.551 100.783 125.319 101.005 126.114 101.446C126.909 101.887 127.506 102.422 127.905 103.049C128.302 103.675 128.495 104.358 128.485 105.096C128.472 105.833 128.251 106.589 127.821 107.364ZM125.582 107.253L126.021 106.463C126.23 106.085 126.348 105.73 126.374 105.396C126.401 105.061 126.304 104.74 126.083 104.436C125.864 104.129 125.488 103.828 124.956 103.533C124.425 103.238 123.97 103.08 123.592 103.058C123.215 103.035 122.89 103.127 122.615 103.335C122.341 103.541 122.095 103.842 121.874 104.24L121.469 104.97L125.582 107.253Z" fill="white"/>
<circle cx="28.5" cy="82.5" r="2.5" fill="white"/>
<circle cx="131.5" cy="82.5" r="2.5" fill="white"/>
</svg>
