<svg width="160" height="160" viewBox="0 0 160 160" fill="none" xmlns="http://www.w3.org/2000/svg">
<path d="M80 0L87.526 8.39442L96.6329 1.74819L102.249 11.5239L112.539 6.91637L116 17.6462L127.023 15.2786L128.177 26.4936L139.452 26.4696L138.249 37.6795L149.282 40L145.775 50.715L156.085 55.2786L150.427 65.0304L159.562 71.6377L152 80L159.562 88.3623L150.427 94.9696L156.085 104.721L145.775 109.285L149.282 120L138.249 122.321L139.452 133.53L128.177 133.506L127.023 144.721L116 142.354L112.539 153.084L102.249 148.476L96.6329 158.252L87.526 151.606L80 160L72.474 151.606L63.3671 158.252L57.7508 148.476L47.4611 153.084L44 142.354L32.9772 144.721L31.8226 133.506L20.5484 133.53L21.7508 122.321L10.718 120L14.2247 109.285L3.91548 104.721L9.57337 94.9696L0.438248 88.3623L8 80L0.438248 71.6377L9.57337 65.0304L3.91548 55.2786L14.2247 50.715L10.718 40L21.7508 37.6795L20.5484 26.4696L31.8226 26.4936L32.9772 15.2786L44 17.6462L47.4611 6.91637L57.7508 11.5239L63.3671 1.74819L72.474 8.39442L80 0Z" fill="#F2B52F"/>
<circle cx="80" cy="80" r="62" fill="#FFD176"/>
<circle cx="80" cy="80" r="41" fill="#4D4D4D"/>
<path d="M70.553 86.1655L81.8786 62.7257L81.8754 62.541L68.1559 62.7805L68.057 57.1138L89.0481 56.7474L89.1477 62.4567L77.782 86.0393L70.553 86.1655Z" fill="white"/>
<path d="M65.473 103.258L61.7101 103.324L61.5324 93.1435L65.2903 93.0779C66.3276 93.0598 67.2242 93.248 67.9803 93.6425C68.7396 94.0337 69.3297 94.6068 69.7506 95.3619C70.1714 96.1137 70.3911 97.0181 70.4096 98.0753C70.4281 99.1357 70.2402 100.051 69.8459 100.82C69.4549 101.589 68.8868 102.184 68.1417 102.605C67.3965 103.022 66.5069 103.24 65.473 103.258ZM64.134 101.183L65.3419 101.162C65.9119 101.152 66.3924 101.048 66.7834 100.848C67.1776 100.646 67.472 100.324 67.6665 99.8833C67.8643 99.439 67.9568 98.8507 67.944 98.1183C67.9312 97.3859 67.8183 96.8045 67.6053 96.3739C67.3922 95.9401 67.0835 95.6306 66.6791 95.4454C66.2781 95.2568 65.7859 95.1676 65.2027 95.1778L64.0295 95.1982L64.134 101.183ZM73.5357 103.117L70.8912 103.164L74.1483 92.9233L77.4241 92.8661L81.0367 102.986L78.3922 103.033L75.8683 95.459L75.7887 95.4604L73.5357 103.117ZM73.1128 99.117L78.6404 99.0205L78.673 100.89L73.1454 100.986L73.1128 99.117ZM80.4091 92.814L83.158 92.766L85.3847 96.9884L85.4742 96.9869L87.5522 92.6893L90.3011 92.6413L86.6963 99.4865L86.7556 102.887L84.3099 102.929L84.2506 99.5292L80.4091 92.814ZM96.8885 95.5794C96.849 95.2154 96.6966 94.9347 96.4313 94.7371C96.1692 94.5361 95.7979 94.4398 95.3174 94.4482C94.9992 94.4538 94.7349 94.4998 94.5242 94.5864C94.3136 94.6729 94.1565 94.79 94.053 94.9377C93.9494 95.0821 93.8976 95.247 93.8976 95.4327C93.8936 95.5852 93.9258 95.7189 93.9941 95.8338C94.0657 95.9485 94.1669 96.0495 94.2977 96.1367C94.4317 96.2206 94.5921 96.294 94.7789 96.3571C94.9656 96.4201 95.1754 96.4745 95.4082 96.5201L96.2866 96.7037C96.7922 96.8042 97.2388 96.9423 97.6264 97.1179C98.0173 97.2934 98.3458 97.5047 98.612 97.752C98.8815 97.9993 99.0871 98.2857 99.2287 98.6114C99.3703 98.9371 99.4463 99.3038 99.4567 99.7113C99.4646 100.354 99.3119 100.909 98.9985 101.375C98.6851 101.841 98.229 102.202 97.6301 102.458C97.0346 102.714 96.3126 102.849 95.4643 102.864C94.6126 102.879 93.8681 102.764 93.2307 102.52C92.5932 102.276 92.0944 101.897 91.734 101.383C91.3737 100.868 91.1816 100.214 91.1577 99.4186L93.5139 99.3775C93.5395 99.7052 93.6321 99.9771 93.7917 100.193C93.9513 100.409 94.1679 100.571 94.4416 100.679C94.7186 100.787 95.0377 100.838 95.399 100.831C95.7303 100.826 96.0112 100.776 96.2417 100.682C96.4754 100.589 96.6538 100.461 96.777 100.3C96.9001 100.139 96.9616 99.9554 96.9613 99.7499C96.9546 99.5578 96.8921 99.3948 96.7737 99.2609C96.6553 99.1238 96.4743 99.0076 96.2307 98.9124C95.9903 98.8138 95.6837 98.7247 95.3111 98.645L94.243 98.415C93.358 98.2283 92.658 97.914 92.1431 97.4721C91.6282 97.027 91.3656 96.4183 91.3554 95.6461C91.3411 95.0165 91.5005 94.4618 91.8336 93.982C92.1666 93.5021 92.6324 93.1244 93.2309 92.8488C93.8294 92.5731 94.5147 92.4286 95.2869 92.4151C96.0756 92.4013 96.7622 92.5236 97.3468 92.7819C97.9347 93.0368 98.3936 93.4017 98.7234 93.8766C99.0532 94.3515 99.227 94.9054 99.2447 95.5382L96.8885 95.5794Z" fill="white"/>
<path d="M28.5896 60.8683L36.9075 63.5098L36.1904 65.768L29.9519 63.7869L29.9365 63.8356L30.4471 66.0008L28.5301 65.392L27.9292 62.9478L28.5896 60.8683Z" fill="#4D4D4D"/>
<path d="M39.7878 58.0483C39.4237 58.7523 38.9483 59.278 38.3616 59.6253C37.7749 59.9726 37.1056 60.1291 36.3538 60.0949C35.602 60.0606 34.8007 59.8238 33.9501 59.3846C33.0969 58.944 32.4426 58.433 31.9873 57.8515C31.5332 57.2676 31.2816 56.6406 31.2325 55.9705C31.1846 55.2979 31.3415 54.6089 31.7031 53.9036C32.0646 53.1983 32.5337 52.6694 33.1103 52.3169C33.6843 51.9631 34.341 51.8001 35.0801 51.8279C35.8193 51.8556 36.6143 52.0892 37.4649 52.5285C38.3219 52.9678 38.9838 53.4827 39.4505 54.0731C39.9172 54.6636 40.1808 55.2983 40.2413 55.9774C40.3005 56.6527 40.1494 57.343 39.7878 58.0483ZM38.0738 57.1696C38.2604 56.8056 38.2237 56.41 37.9637 55.9831C37.7025 55.5522 37.163 55.1288 36.3451 54.7127C35.8117 54.4392 35.3484 54.2688 34.9552 54.2013C34.562 54.1338 34.2366 54.1521 33.9789 54.2562C33.7187 54.3591 33.5263 54.5318 33.4019 54.7745C33.2153 55.1386 33.2475 55.5302 33.4987 55.9495C33.7499 56.3688 34.2736 56.7857 35.0699 57.2003C35.6121 57.4815 36.0861 57.6591 36.492 57.733C36.8953 57.8057 37.2283 57.7913 37.4911 57.6897C37.7551 57.5857 37.9493 57.4123 38.0738 57.1696Z" fill="#4D4D4D"/>
<path d="M44.5735 50.987C44.0853 51.6115 43.5209 52.04 42.88 52.2728C42.2392 52.5055 41.5525 52.5354 40.82 52.3626C40.0875 52.1898 39.344 51.8088 38.5893 51.2196C37.8324 50.6287 37.284 50.0054 36.9442 49.3498C36.6061 48.6919 36.4749 48.0291 36.5506 47.3615C36.628 46.6917 36.9097 46.0437 37.3956 45.4175C37.8815 44.7912 38.4404 44.3583 39.0723 44.1186C39.7019 43.8772 40.3773 43.8386 41.0986 44.0027C41.8198 44.1668 42.5578 44.5434 43.3125 45.1326C44.0733 45.723 44.6284 46.3515 44.9778 47.0181C45.3271 47.6847 45.4687 48.3573 45.4025 49.0358C45.3357 49.7104 45.0594 50.3608 44.5735 50.987ZM43.0517 49.8062C43.3025 49.483 43.3397 49.0875 43.1632 48.6198C42.9863 48.1481 42.5344 47.6321 41.8077 47.0718C41.3342 46.7043 40.9104 46.4511 40.5365 46.312C40.1626 46.1729 39.8394 46.1306 39.5669 46.1852C39.2921 46.2381 39.0711 46.3723 38.9039 46.5878C38.6531 46.911 38.6123 47.3019 38.7816 47.7604C38.9508 48.2189 39.3883 48.7256 40.094 49.2804C40.5749 49.6571 41.0078 49.9193 41.393 50.0671C41.7758 50.2132 42.1058 50.2606 42.3828 50.2095C42.6616 50.1561 42.8845 50.0217 43.0517 49.8062Z" fill="#4D4D4D"/>
<path d="M50.2228 42.7885L49.9223 42.4399C49.6812 42.1602 49.5188 41.85 49.4353 41.5095C49.3539 41.167 49.3673 40.8236 49.4754 40.4791C49.5835 40.1346 49.8043 39.8186 50.1379 39.5311C50.48 39.2361 50.8285 39.0595 51.1833 39.0012C51.5402 38.941 51.881 38.9774 52.2055 39.1102C52.5301 39.243 52.8148 39.4514 53.0596 39.7355L53.3601 40.0841C53.6012 40.3638 53.7625 40.6749 53.8439 41.0173C53.9274 41.3579 53.9141 41.7013 53.8038 42.0477C53.6935 42.394 53.4695 42.7128 53.1316 43.004C52.7938 43.2953 52.4466 43.4689 52.0899 43.5251C51.7332 43.5813 51.3926 43.5429 51.0681 43.4101C50.7457 43.2754 50.4639 43.0682 50.2228 42.7885ZM51.0455 41.4717L51.346 41.8202C51.4518 41.9429 51.5867 42.0385 51.7508 42.1071C51.9152 42.1716 52.0824 42.1306 52.2524 41.9841C52.431 41.8301 52.4982 41.671 52.454 41.5065C52.4119 41.3403 52.3353 41.1926 52.224 41.0635L51.9235 40.7149C51.8122 40.5858 51.6777 40.4841 51.52 40.41C51.3624 40.3359 51.191 40.3786 51.0059 40.5381C50.836 40.6846 50.7717 40.8451 50.8132 41.0193C50.8568 41.1918 50.9342 41.3426 51.0455 41.4717ZM43.5019 41.9883L43.2014 41.6398C42.9565 41.3557 42.7934 41.0425 42.712 40.7001C42.6328 40.3558 42.6481 40.0125 42.7581 39.6701C42.8681 39.3278 43.0877 39.0147 43.4169 38.7309C43.759 38.436 44.1075 38.2594 44.4623 38.2011C44.8193 38.1409 45.16 38.1772 45.4846 38.31C45.8091 38.4429 46.0938 38.6513 46.3386 38.9353L46.6391 39.2839C46.884 39.5679 47.0462 39.8801 47.1257 40.2204C47.2074 40.5588 47.1912 40.899 47.0773 41.2411C46.9633 41.5831 46.7374 41.8998 46.3996 42.191C46.0617 42.4822 45.7154 42.657 45.3606 42.7153C45.0058 42.7736 44.667 42.7374 44.3444 42.6067C44.0238 42.4742 43.743 42.2681 43.5019 41.9883ZM44.3375 40.6604L44.638 41.009C44.7493 41.1381 44.8851 41.2348 45.0455 41.299C45.206 41.3633 45.3679 41.3249 45.5315 41.1839C45.7101 41.03 45.7773 40.8708 45.733 40.7064C45.691 40.5401 45.6143 40.3924 45.503 40.2633L45.2025 39.9147C45.0912 39.7856 44.9567 39.684 44.7991 39.6099C44.6414 39.5357 44.47 39.5784 44.285 39.738C44.115 39.8845 44.0547 40.0452 44.1042 40.2201C44.154 40.391 44.2318 40.5377 44.3375 40.6604ZM48.3799 46.5376L47.2262 36.0098L48.1428 35.2196L49.2965 45.7474L48.3799 46.5376Z" fill="#4D4D4D"/>
<path d="M56.1194 30.6684L58.8517 29.5592L62.5905 33.3764L62.6853 33.3379L62.7054 27.9948L65.4376 26.8856L68.7204 34.9719L66.5725 35.8439L64.6746 31.169L64.6115 31.1946L64.6832 36.5373L63.3881 37.063L59.7026 33.1506L59.6394 33.1763L61.5501 37.8828L59.4022 38.7548L56.1194 30.6684Z" fill="#4D4D4D"/>
<path d="M76.8603 29.4715C77.0274 30.4286 76.9823 31.2685 76.7249 31.9911C76.467 32.711 76.0514 33.2955 75.4781 33.7445C74.9042 34.1908 74.2283 34.4819 73.4503 34.6177C72.6667 34.7545 71.9291 34.7089 71.2375 34.4807C70.5482 34.2492 69.9603 33.8385 69.4737 33.2487C68.9895 32.6555 68.6643 31.8832 68.4981 30.9316C68.331 29.9745 68.375 29.1363 68.63 28.4169C68.8874 27.6943 69.3016 27.1101 69.8727 26.6643C70.446 26.2152 71.1245 25.9223 71.9081 25.7854C72.6861 25.6496 73.4209 25.6958 74.1125 25.9239C74.8036 26.1493 75.3927 26.5584 75.8797 27.151C76.3663 27.7409 76.6931 28.5144 76.8603 29.4715ZM74.4591 29.8908C74.3692 29.3758 74.2249 28.954 74.0262 28.6254C73.8298 28.2934 73.5828 28.0597 73.2851 27.9242C72.9898 27.7854 72.6491 27.7498 72.2629 27.8172C71.8767 27.8846 71.5667 28.0339 71.3331 28.265C71.1018 28.4929 70.9486 28.7965 70.8736 29.1759C70.8008 29.5519 70.8094 29.9974 70.8993 30.5124C70.9892 31.0273 71.1324 31.4508 71.3288 31.7827C71.5275 32.1114 71.7745 32.3451 72.0698 32.4839C72.3674 32.6194 72.7093 32.6534 73.0956 32.5859C73.4818 32.5185 73.7905 32.3709 74.0218 32.143C74.2554 31.9119 74.4086 31.6083 74.4814 31.2322C74.5564 30.8529 74.549 30.4057 74.4591 29.8908Z" fill="#4D4D4D"/>
<path d="M86.1561 25.4339L85.9821 34.1594L84.0052 34.12L80.9438 29.4728L80.8927 29.4718L80.8013 34.0561L78.4324 34.0088L78.6065 25.2833L80.6175 25.3234L83.628 29.9526L83.6962 29.9539L83.7873 25.3866L86.1561 25.4339Z" fill="#4D4D4D"/>
<path d="M87.0251 34.5376L88.7544 25.9834L94.9195 27.2297L94.5412 29.1009L90.6985 28.3241L90.4013 29.7943L93.9265 30.507L93.5483 32.3782L90.023 31.6656L89.7258 33.1358L93.5518 33.9093L93.1735 35.7805L87.0251 34.5376Z" fill="#4D4D4D"/>
<path d="M97.6432 28.1591L100.098 29.1366L100.37 33.0612L100.433 33.0864L103.328 30.4232L105.783 31.4007L100.592 35.7735L99.5768 38.323L97.3915 37.4527L98.4068 34.9032L97.6432 28.1591Z" fill="#4D4D4D"/>
<path d="M106.75 42.5447L112.134 35.6765L115.112 38.0112C115.636 38.4214 116.02 38.8362 116.265 39.2558C116.512 39.6771 116.625 40.0872 116.605 40.4863C116.587 40.8872 116.441 41.262 116.167 41.6108C115.969 41.8634 115.733 42.0499 115.458 42.1701C115.186 42.2922 114.895 42.3456 114.585 42.3305C114.278 42.3131 113.97 42.227 113.662 42.072L113.609 42.1391C113.895 42.3816 114.105 42.6669 114.238 42.9948C114.372 43.3205 114.416 43.6601 114.37 44.0138C114.326 44.3652 114.176 44.703 113.922 45.0271C113.628 45.4028 113.267 45.6599 112.841 45.7985C112.417 45.9389 111.959 45.9518 111.468 45.8373C110.976 45.7228 110.481 45.4701 109.983 45.0793L106.75 42.5447ZM109.782 42.5175L110.654 43.2011C110.967 43.4465 111.247 43.5724 111.495 43.5789C111.744 43.5831 111.959 43.47 112.14 43.2397C112.266 43.0788 112.336 42.9135 112.35 42.7438C112.364 42.5742 112.325 42.4069 112.234 42.2418C112.146 42.0785 112.006 41.9224 111.816 41.7734L110.918 41.0688L109.782 42.5175ZM111.822 39.9151L112.587 40.5146C112.75 40.6425 112.914 40.7299 113.08 40.7766C113.245 40.8233 113.4 40.8258 113.545 40.784C113.694 40.7417 113.823 40.6502 113.934 40.5093C114.1 40.2969 114.151 40.0752 114.087 39.8443C114.024 39.611 113.877 39.4033 113.644 39.221L112.853 38.6005L111.822 39.9151Z" fill="#4D4D4D"/>
<path d="M114.302 49.3427L112.617 47.42L121.079 43.8333L123.213 46.2687L118.55 54.1878L116.864 52.2651L120.361 46.6609L120.316 46.6097L114.302 49.3427ZM116.577 46.7141L119.746 50.3287L118.412 51.4973L115.244 47.8826L116.577 46.7141Z" fill="#4D4D4D"/>
<path d="M127.385 59.1397L126.19 57.0543C126.354 56.9406 126.488 56.8115 126.592 56.6669C126.697 56.5248 126.769 56.3693 126.806 56.2005C126.847 56.0327 126.851 55.8557 126.816 55.6693C126.784 55.4815 126.711 55.289 126.598 55.0918C126.4 54.7467 126.149 54.5026 125.845 54.3596C125.541 54.2189 125.198 54.1767 124.814 54.2328C124.432 54.2914 124.022 54.4463 123.583 54.6977C123.119 54.9632 122.766 55.2473 122.524 55.5499C122.285 55.8535 122.155 56.1689 122.133 56.4959C122.113 56.8215 122.199 57.1507 122.389 57.4835C122.498 57.6733 122.619 57.83 122.752 57.9535C122.887 58.0756 123.032 58.166 123.187 58.2247C123.342 58.2834 123.503 58.3105 123.671 58.3061C123.842 58.3027 124.017 58.2668 124.193 58.1982L125.373 60.2921C125.039 60.451 124.661 60.5482 124.239 60.5835C123.82 60.6175 123.388 60.572 122.943 60.447C122.502 60.3231 122.076 60.1004 121.666 59.7788C121.256 59.4572 120.892 59.019 120.574 58.4644C120.176 57.7693 119.968 57.0602 119.95 56.3371C119.933 55.6166 120.123 54.9301 120.518 54.2778C120.915 53.6279 121.533 53.0629 122.371 52.5827C123.214 52.0997 124.017 51.8557 124.78 51.8506C125.546 51.8441 126.235 52.0322 126.847 52.4149C127.462 52.7962 127.964 53.327 128.354 54.0074C128.628 54.4856 128.815 54.963 128.914 55.4397C129.014 55.9163 129.025 56.3783 128.947 56.8255C128.872 57.2713 128.704 57.6912 128.446 58.0851C128.187 58.479 127.833 58.8305 127.385 59.1397Z" fill="#4D4D4D"/>
<path d="M122.858 62.9702L131.121 60.1633L131.883 62.4068L128.542 63.5416L128.581 63.6546L132.766 65.0053L133.654 67.6199L129.026 66.0777L125.412 70.4914L124.502 67.8122L126.971 64.9035L125.75 64.49L123.62 65.2137L122.858 62.9702Z" fill="#4D4D4D"/>
<path d="M38.1903 106.453C38.3031 106.347 38.3894 106.231 38.4491 106.106C38.5113 105.979 38.5476 105.844 38.5581 105.701C38.5724 105.559 38.5584 105.411 38.516 105.255C38.4776 105.1 38.4128 104.943 38.3219 104.782C38.126 104.436 37.8759 104.187 37.5717 104.036C37.2689 103.888 36.9254 103.838 36.5411 103.885C36.1582 103.936 35.7468 104.085 35.3067 104.334C34.8617 104.586 34.5152 104.862 34.2673 105.162C34.0194 105.463 33.8793 105.78 33.8469 106.115C33.8145 106.45 33.8991 106.796 34.1006 107.152C34.2783 107.466 34.4717 107.701 34.6807 107.857C34.8911 108.015 35.1098 108.099 35.3367 108.107C35.5636 108.116 35.7908 108.056 36.0182 107.927L36.1826 108.304L35.2003 106.569L36.6688 105.737L38.5748 109.105L37.5216 109.701C36.8293 110.093 36.1539 110.281 35.4954 110.265C34.8408 110.25 34.2369 110.06 33.6837 109.694C33.1345 109.329 32.6723 108.816 32.2973 108.153C31.8789 107.414 31.6685 106.676 31.6662 105.939C31.664 105.203 31.8645 104.513 32.2678 103.87C32.6724 103.23 33.2753 102.683 34.0763 102.23C34.7043 101.874 35.3145 101.655 35.9068 101.571C36.5005 101.489 37.0608 101.525 37.5877 101.677C38.1171 101.828 38.5937 102.079 39.0176 102.43C39.4439 102.779 39.8019 103.21 40.0916 103.722C40.3463 104.172 40.5185 104.626 40.6082 105.084C40.7019 105.544 40.7152 105.988 40.6482 106.418C40.5852 106.849 40.4459 107.246 40.2306 107.609C40.0152 107.973 39.7283 108.282 39.37 108.537L38.1903 106.453Z" fill="#4D4D4D"/>
<path d="M47.714 113.769L49.3462 115.487L45.2937 119.338C44.8118 119.796 44.2852 120.077 43.7139 120.181C43.1466 120.285 42.5725 120.224 41.9915 119.996C41.4126 119.766 40.8657 119.38 40.351 118.839C39.8324 118.293 39.473 117.725 39.273 117.136C39.0751 116.544 39.0425 115.967 39.1753 115.406C39.3122 114.845 39.6215 114.335 40.1034 113.877L44.1559 110.026L45.7882 111.743L41.8839 115.454C41.6883 115.64 41.5543 115.849 41.4821 116.083C41.4119 116.314 41.406 116.547 41.4643 116.781C41.5246 117.018 41.6477 117.234 41.8337 117.43C42.0215 117.627 42.2311 117.761 42.4625 117.832C42.6938 117.902 42.9267 117.908 43.1613 117.849C43.3979 117.789 43.6141 117.666 43.8097 117.48L47.714 113.769Z" fill="#4D4D4D"/>
<path d="M49.189 126.166L47.0307 124.795L54.1415 118.973L56.8753 120.709L54.6278 129.621L52.4695 128.25L54.2486 121.888L54.191 121.852L49.189 126.166ZM50.6322 123.004L54.6897 125.581L53.7392 127.077L49.6817 124.5L50.6322 123.004Z" fill="#4D4D4D"/>
<path d="M59.3772 131.65L62.2002 123.392L65.7647 124.611C66.3776 124.82 66.8758 125.115 67.2592 125.495C67.6426 125.875 67.8903 126.319 68.0023 126.826C68.1144 127.332 68.0702 127.879 67.8699 128.465C67.6677 129.056 67.3655 129.51 66.9633 129.825C66.5638 130.142 66.0921 130.323 65.5482 130.369C65.007 130.415 64.4219 130.33 63.7929 130.115L61.6639 129.387L62.2593 127.645L63.9368 128.219C64.2002 128.309 64.4357 128.353 64.6432 128.352C64.8544 128.349 65.0345 128.292 65.1836 128.181C65.3354 128.071 65.4512 127.899 65.5312 127.665C65.612 127.429 65.6267 127.219 65.575 127.036C65.527 126.852 65.4209 126.692 65.2566 126.558C65.096 126.422 64.8839 126.309 64.6205 126.219L63.8301 125.949L61.6192 132.417L59.3772 131.65ZM65.5116 129.514L66.2805 134.01L63.845 133.177L63.1245 128.698L65.5116 129.514Z" fill="#4D4D4D"/>
<path d="M73.2588 135.172L70.713 134.934L74.3909 126.512L77.6156 126.813L79.6742 135.769L77.1284 135.532L75.8142 129.059L75.7463 129.052L73.2588 135.172ZM73.103 131.699L77.8891 132.145L77.7246 133.91L72.9385 133.464L73.103 131.699Z" fill="#4D4D4D"/>
<path d="M90.9922 125.662L92.3139 134.289L90.3595 134.589L86.548 130.534L86.4975 130.542L87.1919 135.074L84.8499 135.433L83.5282 126.806L85.5164 126.501L89.2747 130.547L89.3421 130.537L88.6503 126.021L90.9922 125.662Z" fill="#4D4D4D"/>
<path d="M94.7236 126.532L94.0004 124.766L101.02 121.892L101.744 123.659L99.3142 124.653L101.897 130.963L99.7358 131.848L97.153 125.538L94.7236 126.532Z" fill="#4D4D4D"/>
<path d="M109.195 127.168L104.148 120.048L109.28 116.411L110.384 117.969L107.185 120.236L108.052 121.459L110.987 119.38L112.091 120.937L109.156 123.017L110.024 124.241L113.208 121.984L114.312 123.541L109.195 127.168Z" fill="#4D4D4D"/>
<path d="M118.602 119.673L112.126 113.823L116.342 109.156L117.759 110.436L115.131 113.345L116.244 114.35L118.655 111.681L120.072 112.961L117.661 115.63L118.774 116.635L121.39 113.739L122.807 115.019L118.602 119.673Z" fill="#4D4D4D"/>
<path d="M127.825 107.363L126.195 110.299L118.564 106.065L120.177 103.159C120.613 102.374 121.142 101.78 121.764 101.378C122.386 100.973 123.068 100.773 123.812 100.78C124.555 100.782 125.323 101.004 126.118 101.445C126.913 101.886 127.51 102.421 127.909 103.048C128.306 103.675 128.499 104.357 128.489 105.095C128.476 105.832 128.255 106.588 127.825 107.363ZM125.586 107.252L126.025 106.462C126.234 106.084 126.352 105.729 126.378 105.395C126.405 105.06 126.308 104.739 126.087 104.435C125.867 104.128 125.492 103.827 124.96 103.532C124.429 103.237 123.974 103.079 123.596 103.057C123.219 103.034 122.893 103.126 122.619 103.334C122.345 103.54 122.098 103.841 121.878 104.239L121.473 104.969L125.586 107.252Z" fill="#4D4D4D"/>
<circle cx="28.5" cy="82.5" r="2.5" fill="#4D4D4D"/>
<circle cx="131.5" cy="82.5" r="2.5" fill="#4D4D4D"/>
</svg>
