<svg width="50" height="50" viewBox="0 0 50 50" fill="none" xmlns="http://www.w3.org/2000/svg">
<g clip-path="url(#clip0_20613_37047)">
<path d="M44.6055 0.57251H5C2.23857 0.57251 0 2.81108 0 5.57251V44.5944C0 47.3558 2.23857 49.5944 5 49.5944H44.6055C47.3669 49.5944 49.6055 47.3558 49.6055 44.5944V5.57251C49.6055 2.81108 47.3669 0.57251 44.6055 0.57251Z" fill="#FDF4FF"/>
<path d="M25 36.51C31.3858 36.51 36.5625 31.3333 36.5625 24.9475C36.5625 18.5617 31.3858 13.385 25 13.385C18.6142 13.385 13.4375 18.5617 13.4375 24.9475C13.4375 31.3333 18.6142 36.51 25 36.51Z" fill="#FDF4FF" stroke="#E90B76" stroke-width="1.875" stroke-linecap="round"/>
<path d="M21.25 23.6975C21.9404 23.6975 22.5 23.1379 22.5 22.4475C22.5 21.7572 21.9404 21.1975 21.25 21.1975C20.5596 21.1975 20 21.7572 20 22.4475C20 23.1379 20.5596 23.6975 21.25 23.6975Z" fill="#E90B76"/>
<path d="M28.75 23.6975C29.4404 23.6975 30 23.1379 30 22.4475C30 21.7572 29.4404 21.1975 28.75 21.1975C28.0596 21.1975 27.5 21.7572 27.5 22.4475C27.5 23.1379 28.0596 23.6975 28.75 23.6975Z" fill="#E90B76"/>
<path fill-rule="evenodd" clip-rule="evenodd" d="M20.693 28.4893C20.5196 28.4893 20.4328 28.4893 20.386 28.5504C20.339 28.6116 20.3603 28.6906 20.4028 28.8486C20.8931 30.6729 22.7652 32.0309 24.9997 32.0309C27.2342 32.0309 29.1062 30.6729 29.5965 28.8486C29.639 28.6906 29.6603 28.6116 29.6133 28.5504C29.5665 28.4893 29.4797 28.4893 29.3063 28.4893H20.693Z" fill="#E90B76"/>
</g>
<defs>
<clipPath id="clip0_20613_37047">
<rect width="50" height="49.375" fill="white" transform="translate(0 0.57251)"/>
</clipPath>
</defs>
</svg>
