<svg width="228" height="28" viewBox="0 0 228 28" fill="none" xmlns="http://www.w3.org/2000/svg">
<g clip-path="url(#clip0_20613_36899)">
<path d="M49.7109 16.8104C49.7109 16.975 49.846 17.1219 50.0313 17.1219H51.5834C51.7527 17.1219 51.9038 16.975 51.9038 16.8104V12.9648H54.0123C56.0705 12.9648 57.7731 11.312 57.7731 9.28232C57.7731 7.30219 56.0699 5.66553 53.9957 5.66553H50.0316C49.8458 5.66553 49.7111 5.81263 49.7111 5.97641L49.7109 16.8104ZM51.903 10.9686V7.67902H53.8603C54.8045 7.67902 55.5968 8.3667 55.5968 9.26624C55.5968 10.2323 54.804 10.9688 53.8603 10.9688L51.903 10.9686Z" fill="#626262"/>
<path d="M63.0664 16.8104C63.0664 16.9751 63.2014 17.122 63.3868 17.122H64.9389C65.1081 17.122 65.2593 16.9751 65.2593 16.8104V12.6379H67.131L69.3741 16.9751C69.4075 17.0398 69.492 17.122 69.6436 17.122H71.415C71.7018 17.122 71.8201 16.8601 71.7018 16.6473L69.3911 12.4901C70.8585 11.9176 71.8873 10.6893 71.8873 9.18446C71.8873 7.23648 70.2343 5.66577 68.2109 5.66577H63.387C63.2017 5.66577 63.0666 5.81287 63.0666 5.97667L63.0664 16.8104ZM65.2761 10.8865V7.6296H68.0255C68.9189 7.6296 69.6952 8.34943 69.6952 9.21682C69.6952 10.1332 68.9189 10.8858 68.0255 10.8858L65.2761 10.8865Z" fill="#626262"/>
<path d="M76.8301 11.4102C76.8301 14.683 79.5116 17.2853 82.8848 17.2853C86.2588 17.2853 88.9573 14.6836 88.9573 11.4102C88.9573 8.13717 86.2588 5.50171 82.8848 5.50171C79.5116 5.50171 76.8301 8.13717 76.8301 11.4102ZM79.0223 11.4102C79.0223 9.34819 80.7599 7.62976 82.8848 7.62976C85.0098 7.62976 86.7644 9.34819 86.7644 11.4102C86.7644 13.4722 85.0098 15.1587 82.8848 15.1587C80.7599 15.1587 79.0223 13.4722 79.0223 11.4102Z" fill="#626262"/>
<path d="M92.468 16.0906C92.7555 16.434 93.5641 17.2851 95.0319 17.2851C97.0053 17.2851 98.5737 15.976 98.5737 13.7007V5.97641C98.5737 5.81263 98.4385 5.66553 98.2537 5.66553H96.6683C96.4821 5.66553 96.3475 5.81263 96.3475 5.97641V13.7011C96.3475 14.8305 95.6558 15.3541 94.9987 15.3541C94.4421 15.3541 94.1037 15.059 93.8849 14.8305C93.7333 14.6826 93.5641 14.6509 93.3793 14.8138L92.5013 15.6822C92.4007 15.7962 92.3837 15.9593 92.468 16.0906Z" fill="#626262"/>
<path d="M104.695 16.8104C104.695 16.9751 104.831 17.122 105.016 17.122H111.88C112.066 17.122 112.202 16.9751 112.202 16.8104V15.4688C112.202 15.3053 112.066 15.1586 111.88 15.1586H106.888V12.2944H111.054C111.222 12.2944 111.375 12.1635 111.375 11.9835V10.6252C111.375 10.4614 111.222 10.3143 111.054 10.3143H106.888V7.63066H111.88C112.066 7.63066 112.202 7.48268 112.202 7.31975V5.97667C112.202 5.81287 112.066 5.66577 111.88 5.66577H105.016C104.831 5.66577 104.695 5.81287 104.695 5.97667V16.8104Z" fill="#626262"/>
<path d="M117.074 11.4101C117.074 14.6828 119.788 17.285 123.162 17.285C124.663 17.285 126.114 16.7778 127.261 15.6991C127.38 15.5841 127.412 15.3723 127.278 15.257L126.232 14.2083C126.13 14.11 125.944 14.095 125.81 14.2083C125.1 14.765 124.24 15.1424 123.229 15.1424C121.068 15.1424 119.45 13.4073 119.45 11.3614C119.45 9.29937 121.052 7.54816 123.212 7.54816C124.156 7.54816 125.101 7.90808 125.809 8.51355C125.943 8.64526 126.113 8.64526 126.23 8.51355L127.261 7.4826C127.396 7.35139 127.396 7.15547 127.244 7.02381C126.097 6.02522 124.866 5.50171 123.162 5.50171C119.789 5.5015 117.074 8.13693 117.074 11.4101Z" fill="#626262"/>
<path d="M134.422 16.8104C134.422 16.975 134.574 17.1219 134.744 17.1219H136.312C136.479 17.1219 136.632 16.975 136.632 16.8104V7.62953H139.212C139.398 7.62953 139.533 7.48182 139.533 7.31826V5.97641C139.533 5.81263 139.398 5.66553 139.212 5.66553H131.842C131.657 5.66553 131.521 5.81263 131.521 5.97641V7.31826C131.521 7.48161 131.657 7.62953 131.842 7.62953H134.422V16.8104Z" fill="#626262"/>
<path d="M144.662 16.8104C144.662 16.975 144.814 17.1219 144.984 17.1219H146.552C146.737 17.1219 146.872 16.975 146.872 16.8104V12.2943H152.372V16.8104C152.372 16.975 152.507 17.1219 152.692 17.1219H154.244C154.412 17.1219 154.565 16.975 154.565 16.8104V5.97641C154.565 5.81263 154.412 5.66553 154.244 5.66553H152.692C152.507 5.66553 152.372 5.81263 152.372 5.97641V10.3134H146.872V5.97641C146.872 5.81263 146.737 5.66553 146.552 5.66553H144.984C144.814 5.66553 144.662 5.81263 144.662 5.97641V16.8104Z" fill="#626262"/>
<path d="M160.828 12.7847C160.828 15.2726 162.87 17.2849 165.517 17.2849C168.181 17.2849 170.222 15.2718 170.222 12.7847V5.97641C170.222 5.81263 170.071 5.66553 169.901 5.66553H168.3C168.115 5.66553 167.978 5.81263 167.978 5.97641V12.6862C167.978 14.0608 166.983 15.1573 165.518 15.1573C164.051 15.1573 163.071 14.0608 163.071 12.6693V5.97641C163.071 5.81263 162.936 5.66553 162.752 5.66553H161.149C160.98 5.66553 160.828 5.81263 160.828 5.97641V12.7847Z" fill="#626262"/>
<path d="M176.494 16.8104C176.494 16.975 176.629 17.1219 176.796 17.1219H180.794C184.049 17.1219 186.715 14.5528 186.715 11.3777C186.715 8.23581 184.049 5.6665 180.794 5.6665H176.796C176.629 5.6665 176.494 5.81361 176.494 5.97719V16.8104ZM178.669 15.1255V7.64577H180.591C182.785 7.64577 184.386 9.24991 184.386 11.3769C184.386 13.5207 182.785 15.1255 180.591 15.1255H178.669Z" fill="#626262"/>
<path d="M192.318 16.8104C192.318 16.975 192.453 17.1219 192.622 17.1219H196.618C199.874 17.1219 202.54 14.5528 202.54 11.3777C202.54 8.23581 199.874 5.6665 196.618 5.6665H192.622C192.452 5.6665 192.318 5.81361 192.318 5.97719V16.8104ZM194.494 15.1255V7.64577H196.415C198.609 7.64577 200.211 9.24991 200.211 11.3769C200.211 13.5207 198.609 15.1255 196.415 15.1255H194.494Z" fill="#626262"/>
<path d="M208.143 16.8104C208.143 16.975 208.277 17.1219 208.463 17.1219H214.637C214.822 17.1219 214.957 16.975 214.957 16.8104V15.4688C214.957 15.3052 214.822 15.1585 214.637 15.1585H210.336V5.97641C210.336 5.81263 210.183 5.66553 210.015 5.66553H208.463C208.277 5.66553 208.143 5.81263 208.143 5.97641V16.8104Z" fill="#626262"/>
<path d="M220.033 16.8104C220.033 16.9751 220.168 17.122 220.354 17.122H227.217C227.404 17.122 227.54 16.9751 227.54 16.8104V15.4688C227.54 15.3053 227.404 15.1586 227.217 15.1586H222.225V12.2944H226.39C226.561 12.2944 226.712 12.1635 226.712 11.9835V10.6252C226.712 10.4614 226.561 10.3143 226.39 10.3143H222.225V7.63066H227.217C227.404 7.63066 227.54 7.48268 227.54 7.31975V5.97667C227.54 5.81287 227.404 5.66577 227.217 5.66577H220.354C220.168 5.66577 220.033 5.81287 220.033 5.97667V16.8104Z" fill="#626262"/>
<path d="M27.1537 0.126465H4.3194C2.21823 0.126465 0.513672 1.78043 0.513672 3.81925V13.2719V13.2766V24.9907C0.513672 26.2124 1.95515 26.9063 2.95796 26.1663L8.21748 22.283H27.1542C29.2564 22.283 30.9599 20.63 30.9599 18.5901V3.81904C30.9595 1.78043 29.2562 0.126465 27.1537 0.126465ZM24.7243 11.0218C23.1015 14.2443 19.6888 16.4688 15.7366 16.4688C11.785 16.4688 8.37163 14.2443 6.74925 11.0218C6.37981 10.289 6.69256 9.40436 7.44865 9.04629C8.20346 8.68779 9.1156 8.99234 9.48465 9.72491C10.6168 11.9723 12.992 13.5143 15.7366 13.5143C18.4817 13.5143 20.8568 11.9718 21.989 9.72491C22.3577 8.99212 23.2699 8.68779 24.0249 9.04629C24.7808 9.40436 25.0936 10.2882 24.7243 11.0218Z" fill="#626262"/>
</g>
<defs>
<clipPath id="clip0_20613_36899">
<rect width="228" height="26.9068" fill="white" transform="translate(0 0.126465)"/>
</clipPath>
</defs>
</svg>
