<svg width="228" height="38" viewBox="0 0 228 38" fill="none" xmlns="http://www.w3.org/2000/svg">
<g clip-path="url(#clip0_20613_36981)">
<mask id="mask0_20613_36981" style="mask-type:luminance" maskUnits="userSpaceOnUse" x="0" y="0" width="228" height="37">
<path d="M227.431 0.495117H0.511719V36.8878H227.431V0.495117Z" fill="white"/>
</mask>
<g mask="url(#mask0_20613_36981)">
<path fill-rule="evenodd" clip-rule="evenodd" d="M63.4495 22.3553C63.4495 25.6637 60.7736 28.0115 56.9203 28.0115C54.0302 28.0115 51.5685 26.731 50.2841 24.5964L53.3881 21.9284C54.2444 23.3158 55.743 24.0629 57.1345 24.0629C58.5258 24.0629 59.3823 23.4226 59.3823 22.5687C59.3823 21.7149 58.633 21.0746 56.8134 20.4343L55.5287 20.0073C52.5317 19.0469 50.9262 17.2326 50.9262 14.7779C50.9262 11.1493 53.6021 9.12158 57.2415 9.12158C59.4893 9.12158 61.4159 9.86866 63.1283 11.683L60.4524 14.4577C59.5962 13.4973 58.4188 12.9636 57.2415 12.9636C56.0641 12.9636 54.9937 13.3906 54.9937 14.351C54.9937 15.3116 55.8499 15.8452 57.7765 16.4855L59.0612 16.9124C61.737 17.8729 63.4495 19.5804 63.4495 22.3553ZM6.71988 9.33501C10.3592 9.33501 13.1421 12.1099 13.1421 15.6317C13.1421 19.1536 10.3592 21.9284 6.71988 21.8216H4.57914V27.5848H0.511719V9.33501H6.71988ZM6.61283 17.9796C8.11137 17.9796 9.18173 17.019 9.18173 15.6317C9.18173 14.351 8.11137 13.2838 6.61283 13.177H4.57914V17.9796H6.61283ZM21.1699 27.6915H17.1025V9.44173H24.2739C27.6992 9.44173 29.947 12.0031 29.947 14.9913C29.947 17.3393 28.7697 18.8334 26.4147 19.6872L32.8368 27.6915H27.9131L21.8121 20.114H21.1699V27.6915ZM21.1699 13.177V16.5922H23.8458C25.0232 16.5922 25.8795 15.9519 25.8795 14.8846C25.8795 13.8174 25.0232 13.177 23.8458 13.177H21.1699ZM35.4058 27.6915H46.9659V23.7427H39.4733V20.4342H45.4674V16.4855H39.4733V13.177H46.9659V9.44173H35.4058V27.6915ZM70.621 27.6915H74.7954V13.2838H79.5052V9.44173H65.9115V13.3905H70.621V27.6915ZM100.377 18.6199C100.377 23.7426 96.203 28.0115 90.9581 28.0115C85.7133 28.0115 81.5388 23.7426 81.5388 18.6199C81.5388 13.4972 85.7133 9.22828 90.9581 9.22828C96.0961 9.22828 100.377 13.3905 100.377 18.6199ZM85.6063 18.6199C85.6063 21.5015 87.9611 24.0629 90.9581 24.0629C93.9552 24.0629 96.31 21.5015 96.31 18.6199C96.31 15.7383 93.9552 13.177 90.9581 13.177C87.9611 13.177 85.6063 15.7383 85.6063 18.6199Z" fill="#626262"/>
<path fill-rule="evenodd" clip-rule="evenodd" d="M171.451 25.636H169.203V6.42578H171.451V25.636ZM155.181 31.079H152.934V12.7225H155.181V14.7502C156.037 13.4695 157.75 12.509 159.677 12.509C163.209 12.509 165.992 15.604 165.992 19.2326C165.992 22.9679 163.209 25.9562 159.677 25.9562C157.75 25.9562 156.037 24.9956 155.181 23.7149V31.079ZM159.355 23.9283C161.925 23.9283 163.744 21.7939 163.744 19.2326C163.744 16.6712 161.925 14.6435 159.355 14.5368C156.787 14.5368 154.967 16.6712 154.967 19.2326C154.967 21.9006 156.787 23.9283 159.355 23.9283ZM174.555 19.2326C174.555 22.8612 177.231 25.9562 180.87 25.9562C182.797 25.9562 184.51 24.9956 185.365 23.7149V25.7427H187.613V12.9359H185.365V14.9636C184.51 13.6829 182.797 12.7225 180.87 12.7225C177.338 12.6158 174.555 15.6039 174.555 19.2326ZM185.58 19.2326C185.58 21.7939 183.76 23.9283 181.192 23.9283C178.622 23.9283 176.803 21.9006 176.803 19.2326C176.803 16.6712 178.622 14.5368 181.192 14.5368C183.867 14.6435 185.58 16.6712 185.58 19.2326ZM203.669 12.8292L195.213 31.079H192.858L195.641 24.9956L189.969 12.8292H192.431L196.819 22.541L201.208 12.8292H203.669ZM204.632 19.2326C204.632 22.9679 207.308 25.9562 211.269 25.9562C213.944 25.9562 215.871 24.7822 217.049 22.8612L215.336 21.6873C214.587 23.0746 213.303 23.9284 211.269 23.9284C208.699 23.9284 206.88 22.1142 206.773 19.7662H217.37V19.1259C217.37 14.9636 214.587 12.7225 211.269 12.7225C207.415 12.6158 204.632 15.4973 204.632 19.2326ZM211.269 14.5368C213.195 14.5368 214.908 15.8175 215.23 17.9519H207.094C207.415 15.8175 209.342 14.5368 211.269 14.5368ZM222.829 25.636H220.581V12.9359H222.829V15.3905C223.364 13.6829 224.97 12.7225 226.468 12.7225C226.789 12.7225 227.11 12.7225 227.431 12.8292V15.0703C227.004 14.8569 226.682 14.8569 226.254 14.8569C224.648 14.8569 222.829 16.2443 222.829 19.2326V25.636Z" fill="#626262"/>
<path d="M131.572 6.42578L141.862 12.626L131.572 18.5567V6.42578Z" fill="#626262"/>
<path d="M110.451 6.42578L121.012 12.626L110.451 18.5567V6.42578Z" fill="#626262"/>
<path d="M131.572 18.5567L141.862 12.626V24.7569L131.572 18.5567Z" fill="#626262"/>
<path d="M131.572 6.42578V18.5567L121.012 12.626L131.572 6.42578Z" fill="#626262"/>
<path d="M131.572 6.42578L121.012 12.626V0.495117L131.572 6.42578Z" fill="#626262"/>
<path d="M121.012 12.626V24.7569L110.451 18.5566L121.012 12.626Z" fill="#626262"/>
<path d="M121.012 0.495117V12.626L110.451 6.42578L121.012 0.495117Z" fill="#626262"/>
<path d="M121.012 24.7571V36.888L110.451 30.6877L121.012 24.7571Z" fill="#626262"/>
<path d="M131.572 18.5564L141.862 24.7566L131.572 30.6873V18.5564Z" fill="#626262"/>
<path d="M110.451 18.5564L121.012 24.7566L110.451 30.6873V18.5564Z" fill="#626262"/>
<path d="M131.572 18.5564V30.6873L121.012 24.7566L131.572 18.5564Z" fill="#626262"/>
</g>
</g>
<defs>
<clipPath id="clip0_20613_36981">
<rect width="227.911" height="37.17" fill="white" transform="translate(0.0449219 0.495117)"/>
</clipPath>
</defs>
</svg>
