<svg width="181" height="40" viewBox="0 0 181 40" fill="none" xmlns="http://www.w3.org/2000/svg">
<g clip-path="url(#clip0_5882_10541)">
<path fill-rule="evenodd" clip-rule="evenodd" d="M20.0475 40C31.1194 40 40.0949 31.0457 40.0949 20C40.0949 8.95429 31.1194 0 20.0475 0C8.97554 0 0 8.95429 0 20C0 31.0457 8.97554 40 20.0475 40ZM26.2124 25.86C27.3714 25.129 28.0664 23.9058 28.0665 22.5969C28.0665 20.7781 26.7354 19.1963 24.8473 18.7718L19.1906 17.371C18.6573 17.2511 18.5295 16.5951 18.9832 16.3065L23.3903 13.5021C25.4417 12.1967 25.975 9.58069 24.5816 7.65897C24.4074 7.41874 24.0583 7.35629 23.8019 7.51949L13.8462 14.2191C12.7092 14.9426 12.0285 16.1466 12.0285 17.4342C12.0285 19.2313 13.3437 20.7941 15.2091 21.2135L20.958 22.635C21.4925 22.7552 21.6192 23.4133 21.1633 23.7009L16.7238 26.5008C14.6666 27.7982 14.1217 30.4121 15.5066 32.3392C15.6798 32.5801 16.0285 32.6439 16.2857 32.4817L26.2124 25.86Z" fill="#5733FF"/>
<path d="M57.7912 29.694C55.9203 29.694 54.2547 29.3886 52.7941 28.7777C51.3334 28.1669 50.1547 27.3016 49.2578 26.1817L52.5634 23.3947C53.3321 24.2346 54.2034 24.8455 55.1771 25.2272C56.1509 25.5836 57.1374 25.7617 58.1371 25.7617C58.931 25.7617 59.5719 25.5836 60.0588 25.2272C60.5457 24.8709 60.7891 24.3746 60.7891 23.7383C60.7891 23.1783 60.5583 22.7329 60.0972 22.402C59.6361 22.0967 58.5341 21.7148 56.7915 21.2567C54.2034 20.5949 52.3712 19.6914 51.295 18.5461C50.3468 17.528 49.8728 16.2681 49.8728 14.7665C49.8728 13.5703 50.2315 12.5267 50.9491 11.6359C51.6665 10.7196 52.6147 10.0069 53.7934 9.49792C54.9721 8.98889 56.2534 8.73438 57.6371 8.73438C59.226 8.73438 60.725 9.01437 62.1346 9.57432C63.5436 10.1342 64.7224 10.8978 65.6704 11.8649L62.8259 14.9573C62.1088 14.2956 61.276 13.7484 60.328 13.3157C59.4053 12.8576 58.5467 12.6285 57.7522 12.6285C55.9075 12.6285 54.985 13.2648 54.985 14.5374C55.0106 15.1483 55.2925 15.6319 55.8306 15.9881C56.3431 16.3445 57.5088 16.7644 59.3285 17.248C61.7629 17.8843 63.4795 18.7243 64.479 19.7678C65.3502 20.6586 65.7861 21.8421 65.7861 23.3183C65.7861 24.54 65.427 25.6344 64.7098 26.6016C64.0179 27.5688 63.0694 28.3324 61.8654 28.8923C60.6608 29.4268 59.3027 29.694 57.7912 29.694Z" fill="black"/>
<path d="M68.375 35.9993V9.15326H72.8754L73.5255 11.5966C74.1922 10.7822 75.1018 10.1077 76.2548 9.57326C77.4078 9.03874 78.625 8.77148 79.9063 8.77148C81.6745 8.77148 83.2502 9.21691 84.6341 10.1077C86.0179 10.9985 87.1068 12.233 87.9012 13.811C88.6957 15.389 89.0926 17.1834 89.0926 19.1941C89.0926 21.2047 88.6957 22.9991 87.9012 24.5771C87.1068 26.1551 86.0179 27.4023 84.6341 28.3186C83.2502 29.2094 81.6745 29.6548 79.9063 29.6548C78.7017 29.6548 77.5361 29.413 76.4083 28.9294C75.2811 28.4204 74.3715 27.7841 73.6796 27.0205V33.72L68.375 35.9993ZM78.7533 25.1498C80.3164 25.1498 81.5846 24.6026 82.5583 23.5082C83.532 22.3883 84.0189 20.9502 84.0189 19.1941C84.0189 17.4633 83.532 16.0507 82.5583 14.9563C81.5846 13.8364 80.3164 13.2765 78.7533 13.2765C77.1902 13.2765 75.9214 13.8237 74.9477 14.9181C73.974 16.0126 73.4871 17.4379 73.4871 19.1941C73.4871 20.9502 73.974 22.3883 74.9477 23.5082C75.9214 24.6026 77.1902 25.1498 78.7533 25.1498Z" fill="black"/>
<path d="M102.104 29.6931C99.9253 29.6931 98.0168 29.2477 96.3764 28.3569C94.7365 27.4661 93.4552 26.2444 92.533 24.6918C91.636 23.1393 91.1875 21.3577 91.1875 19.3469C91.1875 17.2599 91.6234 15.4273 92.4946 13.8493C93.391 12.2458 94.6082 10.986 96.1461 10.0697C97.7092 9.15343 99.5026 8.69531 101.527 8.69531C103.347 8.69531 104.974 9.14074 106.409 10.0315C107.869 10.8969 108.997 12.0804 109.791 13.5821C110.611 15.0837 110.996 16.8018 110.945 18.7361L110.906 20.3777H96.2996C96.5814 21.8285 97.2733 22.9738 98.3754 23.8138C99.5026 24.6537 100.925 25.0736 102.642 25.0736C103.564 25.0736 104.397 24.9337 105.141 24.6537C105.909 24.3737 106.729 23.8774 107.6 23.1647L110.137 26.6771C109.035 27.6443 107.767 28.3951 106.332 28.9296C104.922 29.4386 103.513 29.6931 102.104 29.6931ZM101.566 13.2003C98.6698 13.2003 96.9274 14.4983 96.338 17.0945H105.948V16.9417C105.871 15.8473 105.409 14.9565 104.564 14.2693C103.744 13.5566 102.745 13.2003 101.566 13.2003Z" fill="black"/>
<path d="M123.054 29.694C121.132 29.694 119.403 29.2359 117.865 28.3196C116.353 27.4033 115.149 26.1562 114.252 24.5782C113.381 23.0002 112.945 21.2058 112.945 19.1951C112.945 17.2099 113.381 15.4282 114.252 13.8502C115.149 12.2722 116.353 11.0251 117.865 10.1088C119.403 9.19249 121.132 8.73438 123.054 8.73438C124.874 8.73438 126.527 9.06523 128.012 9.727C129.525 10.3888 130.703 11.3177 131.549 12.514L128.666 15.95C128.128 15.2119 127.385 14.5883 126.437 14.0793C125.489 13.5448 124.528 13.2775 123.554 13.2775C122.478 13.2775 121.517 13.5448 120.671 14.0793C119.851 14.5883 119.198 15.2883 118.711 16.1791C118.25 17.0699 118.019 18.0752 118.019 19.1951C118.019 20.315 118.262 21.3204 118.749 22.2112C119.236 23.102 119.902 23.8147 120.748 24.3491C121.594 24.8581 122.542 25.1127 123.592 25.1127C124.592 25.1127 125.515 24.8963 126.36 24.4636C127.205 24.0055 127.974 23.3692 128.666 22.5548L131.549 25.9908C130.678 27.1107 129.473 28.0142 127.936 28.7014C126.398 29.3632 124.771 29.694 123.054 29.694Z" fill="black"/>
<path d="M138.598 29.3119C136.067 29.3119 134.016 27.2653 134.016 24.7405V13.8499V9.154V6.27926L139.243 4V9.154H143.194V13.8499H139.243V23.4286C139.243 24.0598 139.756 24.5714 140.389 24.5714H143.194V29.3119H138.598Z" fill="black"/>
<path d="M146.266 29.3123V9.15432H150.766L151.416 12.4758C152.083 11.3814 152.954 10.4905 154.03 9.80335C155.132 9.09072 156.285 8.73438 157.489 8.73438C157.95 8.73438 158.374 8.77255 158.758 8.84889C159.168 8.8998 159.514 8.97615 159.796 9.07797L158.374 14.8047C158.091 14.6519 157.733 14.5247 157.297 14.4229C156.862 14.3211 156.426 14.2701 155.99 14.2701C154.735 14.2701 153.671 14.7028 152.8 15.5682C151.955 16.4081 151.532 17.4771 151.532 18.7752V29.3123H146.266Z" fill="black"/>
<path d="M169.197 29.694C167.506 29.694 165.981 29.2359 164.623 28.3196C163.265 27.4033 162.176 26.1562 161.356 24.5782C160.562 23.0002 160.164 21.2058 160.164 19.1951C160.164 17.1335 160.562 15.3264 161.356 13.7739C162.176 12.1959 163.278 10.9614 164.662 10.0706C166.071 9.1798 167.66 8.73438 169.428 8.73438C170.863 8.73438 172.118 9.02706 173.194 9.61249C174.271 10.1724 175.129 10.9105 175.77 11.8268V9.15432H180.997V29.3123H176.305L175.731 26.6016C175.014 27.4924 174.079 28.2305 172.926 28.8159C171.798 29.4013 170.556 29.694 169.197 29.694ZM170.619 25.1509C172.182 25.1509 173.451 24.6036 174.425 23.5092C175.398 22.4148 175.885 20.9768 175.885 19.1951C175.885 17.4135 175.398 15.9755 174.425 14.881C173.451 13.7866 172.182 13.2393 170.619 13.2393C169.082 13.2393 167.826 13.7866 166.852 14.881C165.905 15.9755 165.43 17.4135 165.43 19.1951C165.43 20.9768 165.905 22.4148 166.852 23.5092C167.826 24.6036 169.082 25.1509 170.619 25.1509Z" fill="black"/>
</g>
<defs>
<clipPath id="clip0_5882_10541">
<rect width="181" height="40" fill="white"/>
</clipPath>
</defs>
</svg>
