<svg width="144" height="33" viewBox="0 0 144 33" fill="none" xmlns="http://www.w3.org/2000/svg">
<g clip-path="url(#clip0_1473_12219)">
<path fill-rule="evenodd" clip-rule="evenodd" d="M15.9494 32.5801C24.758 32.5801 31.8987 25.4166 31.8987 16.5801C31.8987 7.74351 24.758 0.580078 15.9494 0.580078C7.14076 0.580078 0 7.74351 0 16.5801C0 25.4166 7.14076 32.5801 15.9494 32.5801ZM20.854 21.2681C21.7762 20.6833 22.3291 19.7047 22.3291 18.6576C22.3292 17.2025 21.2701 15.9371 19.7681 15.5975L15.2676 14.4769C14.8434 14.3809 14.7417 13.8562 15.1026 13.6252L18.6089 11.3818C20.2409 10.3375 20.6652 8.24463 19.5566 6.70726C19.4181 6.51507 19.1403 6.46511 18.9363 6.59567L11.0157 11.9553C10.1112 12.5341 9.56962 13.4974 9.56962 14.5274C9.56962 15.9651 10.6159 17.2153 12.1001 17.5509L16.6738 18.6881C17.099 18.7842 17.1998 19.3107 16.8371 19.5408L13.3051 21.7807C11.6685 22.8186 11.2349 24.9098 12.3367 26.4514C12.4745 26.6442 12.752 26.6952 12.9566 26.5654L20.854 21.2681Z" fill="#626262"/>
<path d="M45.9804 24.3351C44.4919 24.3351 43.1668 24.0908 42.0048 23.6021C40.8427 23.1134 39.9049 22.4211 39.1914 21.5252L41.8213 19.2956C42.4329 19.9676 43.126 20.4563 43.9007 20.7617C44.6754 21.0467 45.4603 21.1892 46.2556 21.1892C46.8872 21.1892 47.3971 21.0467 47.7845 20.7617C48.1718 20.4766 48.3655 20.0796 48.3655 19.5705C48.3655 19.1225 48.1818 18.7662 47.815 18.5015C47.4482 18.2572 46.5714 17.9517 45.1851 17.5853C43.126 17.0558 41.6684 16.333 40.8121 15.4168C40.0578 14.6023 39.6807 13.5944 39.6807 12.3931C39.6807 11.4361 39.9661 10.6013 40.5369 9.88862C41.1077 9.15559 41.8621 8.58544 42.7998 8.17822C43.7376 7.77099 44.757 7.56738 45.8578 7.56738C47.1219 7.56738 48.3144 7.79138 49.4359 8.23934C50.5569 8.68725 51.4947 9.29813 52.2489 10.0718L49.9859 12.5458C49.4154 12.0164 48.7528 11.5786 47.9986 11.2325C47.2645 10.8659 46.5814 10.6827 45.9494 10.6827C44.4818 10.6827 43.7478 11.1917 43.7478 12.2098C43.7682 12.6985 43.9925 13.0854 44.4206 13.3704C44.8283 13.6555 45.7557 13.9914 47.2035 14.3783C49.1402 14.8873 50.5059 15.5593 51.3011 16.3941C51.9942 17.1068 52.341 18.0536 52.341 19.2345C52.341 20.2119 52.0553 21.0874 51.4847 21.8612C50.9342 22.6349 50.1796 23.2458 49.2217 23.6937C48.2634 24.1213 47.183 24.3351 45.9804 24.3351Z" fill="#626262"/>
<path d="M54.3984 29.3799V7.90307H57.9788L58.4961 9.85777C59.0265 9.2062 59.7501 8.66664 60.6675 8.23907C61.5848 7.81146 62.5531 7.59766 63.5725 7.59766C64.9792 7.59766 66.2329 7.954 67.3338 8.66664C68.4348 9.37928 69.3011 10.3668 69.9331 11.6292C70.5652 12.8916 70.881 14.3272 70.881 15.9357C70.881 17.5443 70.5652 18.9798 69.9331 20.2422C69.3011 21.5046 68.4348 22.5023 67.3338 23.2353C66.2329 23.948 64.9792 24.3043 63.5725 24.3043C62.6142 24.3043 61.6868 24.1108 60.7896 23.724C59.8928 23.3168 59.1691 22.8077 58.6186 22.1969V27.5565L54.3984 29.3799ZM62.6552 20.7003C63.8988 20.7003 64.9077 20.2625 65.6824 19.387C66.4571 18.4911 66.8444 17.3406 66.8444 15.9357C66.8444 14.5511 66.4571 13.4211 65.6824 12.5455C64.9077 11.6496 63.8988 11.2016 62.6552 11.2016C61.4116 11.2016 60.4022 11.6394 59.6276 12.515C58.8529 13.3905 58.4655 14.5308 58.4655 15.9357C58.4655 17.3406 58.8529 18.4911 59.6276 19.387C60.4022 20.2625 61.4116 20.7003 62.6552 20.7003Z" fill="#626262"/>
<path d="M81.2315 24.3349C79.4985 24.3349 77.9801 23.9785 76.675 23.2659C75.3704 22.5533 74.351 21.5759 73.6173 20.3338C72.9037 19.0918 72.5469 17.6665 72.5469 16.0579C72.5469 14.3883 72.8937 12.9222 73.5868 11.6598C74.2999 10.377 75.2683 9.36917 76.4918 8.63614C77.7354 7.90311 79.1622 7.53662 80.7731 7.53662C82.2204 7.53662 83.515 7.89296 84.6565 8.6056C85.8186 9.2979 86.7158 10.2447 87.3474 11.446C88 12.6473 88.3058 14.0218 88.2652 15.5693L88.2342 16.8825H76.614C76.8382 18.0432 77.3887 18.9594 78.2654 19.6314C79.1622 20.3033 80.2937 20.6392 81.6599 20.6392C82.3936 20.6392 83.0561 20.5273 83.6476 20.3033C84.2592 20.0793 84.9113 19.6823 85.6044 19.1122L87.6227 21.922C86.7464 22.6958 85.737 23.2964 84.5955 23.724C83.474 24.1313 82.353 24.3349 81.2315 24.3349ZM80.8036 11.1406C78.4996 11.1406 77.1134 12.179 76.6445 14.2559H84.2897V14.1337C84.2286 13.2582 83.8614 12.5455 83.1887 11.9958C82.5362 11.4257 81.7415 11.1406 80.8036 11.1406Z" fill="#626262"/>
<path d="M97.8981 24.3351C96.3687 24.3351 94.993 23.9686 93.7694 23.2356C92.5669 22.5026 91.6085 21.5048 90.8949 20.2424C90.2018 18.98 89.8555 17.5445 89.8555 15.936C89.8555 14.3478 90.2018 12.9224 90.8949 11.66C91.6085 10.3976 92.5669 9.39993 93.7694 8.6669C94.993 7.93387 96.3687 7.56738 97.8981 7.56738C99.3453 7.56738 100.66 7.83207 101.843 8.36149C103.046 8.8909 103.983 9.63408 104.656 10.5911L102.363 13.3399C101.935 12.7494 101.343 12.2505 100.589 11.8433C99.8348 11.4157 99.0701 11.2019 98.2954 11.2019C97.4392 11.2019 96.675 11.4157 96.0019 11.8433C95.3498 12.2505 94.8299 12.8105 94.4425 13.5231C94.0757 14.2358 93.892 15.0401 93.892 15.936C93.892 16.8319 94.0857 17.6362 94.473 18.3488C94.8604 19.0615 95.3904 19.6316 96.063 20.0592C96.736 20.4664 97.4902 20.67 98.326 20.67C99.1211 20.67 99.8553 20.4969 100.528 20.1508C101.2 19.7843 101.812 19.2753 102.363 18.6237L104.656 21.3725C103.963 22.2684 103.005 22.9912 101.781 23.541C100.558 24.0704 99.2638 24.3351 97.8981 24.3351Z" fill="#626262"/>
<path d="M110.267 24.0298C108.253 24.0298 106.621 22.3925 106.621 20.3727V11.6602V7.90347V5.60368L110.78 3.78027V7.90347H113.924V11.6602H110.78V19.3231C110.78 19.8281 111.188 20.2374 111.692 20.2374H113.924V24.0298H110.267Z" fill="#626262"/>
<path d="M116.363 24.0297V7.90334H119.944L120.461 10.5605C120.991 9.68501 121.684 8.97232 122.541 8.42256C123.417 7.85246 124.335 7.56738 125.293 7.56738C125.659 7.56738 125.996 7.59792 126.302 7.65899C126.628 7.69973 126.903 7.7608 127.128 7.84226L125.996 12.4236C125.772 12.3014 125.486 12.1996 125.14 12.1182C124.793 12.0367 124.447 11.996 124.1 11.996C123.101 11.996 122.255 12.3421 121.562 13.0344C120.889 13.7064 120.553 14.5616 120.553 15.6V24.0297H116.363Z" fill="#626262"/>
<path d="M134.612 24.3351C133.267 24.3351 132.054 23.9686 130.973 23.2356C129.893 22.5026 129.026 21.5048 128.374 20.2424C127.742 18.98 127.426 17.5445 127.426 15.936C127.426 14.2867 127.742 12.841 128.374 11.599C129.026 10.3366 129.903 9.34901 131.004 8.63637C132.125 7.92373 133.389 7.56738 134.796 7.56738C135.937 7.56738 136.936 7.80153 137.792 8.26987C138.649 8.71783 139.332 9.30827 139.842 10.0413V7.90334H144V24.0297H140.267L139.811 21.8612C139.24 22.5738 138.496 23.1643 137.579 23.6326C136.681 24.101 135.693 24.3351 134.612 24.3351ZM135.744 20.7006C136.987 20.7006 137.997 20.2628 138.771 19.3873C139.546 18.5117 139.933 17.3613 139.933 15.936C139.933 14.5107 139.546 13.3603 138.771 12.4847C137.997 11.6092 136.987 11.1714 135.744 11.1714C134.521 11.1714 133.522 11.6092 132.747 12.4847C131.993 13.3603 131.615 14.5107 131.615 15.936C131.615 17.3613 131.993 18.5117 132.747 19.3873C133.522 20.2628 134.521 20.7006 135.744 20.7006Z" fill="#626262"/>
</g>
<defs>
<clipPath id="clip0_1473_12219">
<rect width="144" height="32" fill="white" transform="translate(0 0.580078)"/>
</clipPath>
</defs>
</svg>
