<svg width="140" height="40" viewBox="0 0 140 40" fill="none" xmlns="http://www.w3.org/2000/svg">
<g clip-path="url(#clip0_5710_11293)">
<path d="M54.6118 16.1424C52.2622 16.1424 50.4072 15.4591 49.0469 14.0304L50.5927 11.8563C51.7056 13.0365 53.1278 13.6577 54.7972 13.6577C55.5392 13.6577 56.0956 13.5335 56.4665 13.2229C56.8993 12.9123 57.0848 12.6017 57.0848 12.1669C57.0848 11.7942 56.8993 11.4836 56.5284 11.2973C56.1574 11.0488 55.6628 10.8624 55.1064 10.8003C54.5499 10.6761 53.9315 10.5518 53.2514 10.3655C52.5713 10.1791 51.953 9.93068 51.3964 9.68221C50.84 9.43373 50.3454 9.06102 49.9744 8.50196C49.6035 7.9429 49.418 7.32173 49.418 6.5142C49.418 5.39609 49.8508 4.4022 50.7782 3.65679C51.7056 2.84926 52.8804 2.47656 54.4261 2.47656C56.5284 2.47656 58.2597 3.09773 59.558 4.34009L58.0124 6.38996C56.9612 5.39609 55.6628 4.96126 54.1788 4.96126C53.5605 4.96126 53.1278 5.08549 52.8186 5.33396C52.5095 5.58243 52.324 5.89302 52.324 6.32785C52.324 6.63843 52.5095 6.8869 52.8804 7.13538C53.2514 7.38385 53.746 7.50808 54.3025 7.63232C54.8591 7.75655 55.4773 7.88079 56.1574 8.12926C56.8375 8.31562 57.3941 8.56407 58.0124 8.81255C58.6306 9.06102 59.0634 9.49585 59.4344 10.0549C59.8055 10.614 59.991 11.2973 59.991 12.0427C59.991 13.3471 59.558 14.341 58.6306 15.1485C57.6414 15.7697 56.3429 16.1424 54.6118 16.1424Z" fill="#202020"/>
<path d="M64.6874 16.1419C63.8218 16.1419 63.1417 15.8934 62.647 15.4586C62.1523 15.0238 61.9669 14.3405 61.9669 13.533V8.50142H60.3594V6.26519H61.9669V3.65625H64.5019V6.26519H66.4187V8.50142H64.5019V12.8497C64.5019 13.1602 64.5637 13.4087 64.7492 13.5951C64.9347 13.7814 65.1202 13.9057 65.3677 13.9057C65.7386 13.9057 66.0477 13.7814 66.2332 13.5951L66.7897 15.5207C66.3569 15.9555 65.615 16.1419 64.6874 16.1419Z" fill="#202020"/>
<path d="M76.4348 15.9564H73.8997V14.9625C73.2196 15.77 72.1684 16.2049 70.87 16.2049C70.0045 16.2049 69.2624 15.8943 68.5823 15.3352C67.9022 14.7762 67.5312 13.9686 67.5312 12.9747C67.5312 11.9187 67.8404 11.1733 68.5205 10.6143C69.2006 10.1173 69.9426 9.80675 70.87 9.80675C72.2302 9.80675 73.2196 10.1795 73.8997 10.987V9.68252C73.8997 9.18558 73.7142 8.81286 73.3433 8.50228C72.9723 8.19169 72.4775 8.06746 71.7974 8.06746C70.7464 8.06746 69.8188 8.44016 69.0151 9.18558L68.0877 7.50841C69.2006 6.51452 70.6227 6.01758 72.2921 6.01758C73.5287 6.01758 74.518 6.32816 75.3219 6.88722C76.1256 7.44628 76.4966 8.37805 76.4966 9.68252V15.9564H76.4348ZM71.9211 14.4656C72.8487 14.4656 73.5287 14.2171 73.9615 13.658V12.4778C73.5287 11.9187 72.8487 11.6703 71.9211 11.6703C71.4265 11.6703 70.9937 11.7945 70.6227 12.043C70.2518 12.2915 70.1281 12.6642 70.1281 13.099C70.1281 13.5338 70.3136 13.9065 70.6227 14.155C70.9937 14.3413 71.4265 14.4656 71.9211 14.4656Z" fill="#202020"/>
<path d="M81.5116 15.9548H78.9766V6.32658H81.5116V7.63105C81.8827 7.19624 82.3155 6.82352 82.872 6.51294C83.4284 6.20235 83.9848 6.07812 84.5413 6.07812V8.56282C84.3558 8.50071 84.1085 8.50071 83.8612 8.50071C83.4284 8.50071 82.9956 8.62494 82.501 8.8113C82.0064 8.99765 81.6971 9.30824 81.5116 9.61882V15.9548Z" fill="#202020"/>
<path d="M89.2969 16.1419C88.4312 16.1419 87.7511 15.8934 87.2565 15.4586C86.7619 15.0238 86.5764 14.3405 86.5764 13.533V8.50142H84.9688V6.26519H86.5764V3.65625H89.1114V6.26519H91.0281V8.50142H89.1114V12.8497C89.1114 13.1602 89.1733 13.4087 89.3588 13.5951C89.5442 13.7814 89.7297 13.9057 89.977 13.9057C90.348 13.9057 90.6571 13.7814 90.8426 13.5951L91.399 15.5207C90.9662 15.9555 90.2862 16.1419 89.2969 16.1419Z" fill="#202020"/>
<path d="M97.3357 16.1412C95.8519 16.1412 94.6152 15.6442 93.6878 14.7746C92.7604 13.9049 92.2656 12.6005 92.2656 11.1097C92.2656 9.68094 92.7604 8.50071 93.6878 7.50682C94.6152 6.51294 95.7901 6.07812 97.2739 6.07812C98.6961 6.07812 99.8708 6.57505 100.737 7.56894C101.602 8.56282 102.097 9.80518 102.097 11.4202V11.9793H94.9862C95.048 12.6005 95.3573 13.1595 95.8519 13.5944C96.3465 14.0292 96.9648 14.2155 97.7687 14.2155C98.2015 14.2155 98.6342 14.1534 99.1289 13.9671C99.6235 13.7807 99.9944 13.5322 100.304 13.2838L101.417 14.8988C100.304 15.7064 99.0052 16.1412 97.3357 16.1412ZM99.4998 10.1779C99.438 9.61882 99.2525 9.12188 98.8815 8.68705C98.5106 8.25224 97.8923 8.00377 97.1502 8.00377C96.4083 8.00377 95.8519 8.19012 95.4809 8.62494C95.11 9.05977 94.8625 9.55671 94.8007 10.1158H99.4998V10.1779Z" fill="#202020"/>
<path d="M106.301 15.9548H103.766V6.32658H106.301V7.63105C106.672 7.19624 107.104 6.82352 107.661 6.51294C108.217 6.20235 108.774 6.07812 109.33 6.07812V8.56282C109.145 8.50071 108.897 8.50071 108.65 8.50071C108.217 8.50071 107.785 8.62494 107.29 8.8113C106.795 8.99765 106.486 9.30824 106.301 9.61882V15.9548Z" fill="#202020"/>
<path d="M55.7865 36.2678H52.9423V25.4593H49.0469V22.9746H59.6199V25.4593H55.7865V36.2678Z" fill="#202020"/>
<path d="M63.9451 36.5161C62.4613 36.5161 61.2246 36.0191 60.2972 35.1495C59.3078 34.2177 58.875 32.9754 58.875 31.4845C58.875 30.0559 59.3696 28.8756 60.2972 27.8817C61.2246 26.8879 62.3993 26.4531 63.8833 26.4531C65.3055 26.4531 66.4802 26.95 67.3457 27.9439C68.2115 28.9378 68.6442 30.1801 68.6442 31.7952V32.3543H61.5337C61.5955 32.9754 61.9047 33.5344 62.3993 33.9692C62.8941 34.4042 63.5123 34.5905 64.3161 34.5905C64.7489 34.5905 65.1818 34.5284 65.6764 34.3421C66.171 34.1556 66.542 33.9071 66.8511 33.6587L67.9642 35.2738C66.9129 36.0813 65.6146 36.5161 63.9451 36.5161ZM66.171 30.5528C66.1092 29.9938 65.9237 29.4969 65.5528 29.0621C65.1818 28.6271 64.5634 28.3787 63.8214 28.3787C63.0795 28.3787 62.5231 28.565 62.152 29C61.781 29.4348 61.5337 29.9317 61.4719 30.4907H66.171V30.5528Z" fill="#202020"/>
<path d="M84.8441 36.2672H82.309V30.1797C82.309 29.1859 81.8142 28.6267 80.8868 28.6267C80.4541 28.6267 80.0831 28.7509 79.774 28.9375C79.4028 29.1859 79.1555 29.4344 78.9082 29.7449V36.2672H76.3732V30.1797C76.3732 29.1859 75.8786 28.6267 74.9512 28.6267C74.5802 28.6267 74.1474 28.7509 73.8381 28.9375C73.4672 29.1859 73.2199 29.4344 72.9726 29.7449V36.2672H70.4375V26.6391H72.9726V27.8814C73.2199 27.5087 73.6526 27.1981 74.2092 26.8875C74.8275 26.577 75.4458 26.3906 76.064 26.3906C77.4244 26.3906 78.3518 26.9496 78.7227 28.1298C79.0319 27.6329 79.4648 27.2602 80.0831 26.8875C80.7014 26.5149 81.3196 26.3906 81.9999 26.3906C82.9273 26.3906 83.6074 26.6391 84.102 27.136C84.5966 27.6329 84.8441 28.3783 84.8441 29.3101V36.2672Z" fill="#202020"/>
<path d="M92.8232 36.5161C91.6483 36.5161 90.6591 36.0191 89.8554 35.0253V39.9326H87.3203V26.6395H89.8554V27.8817C90.5973 26.8879 91.5865 26.4531 92.8232 26.4531C94.0597 26.4531 95.111 26.8879 95.9147 27.8196C96.7184 28.7513 97.0894 29.9317 97.0894 31.5468C97.0894 33.0996 96.7184 34.3421 95.9147 35.2738C95.111 36.0191 94.0597 36.5161 92.8232 36.5161ZM92.0193 34.2177C92.7614 34.2177 93.3178 33.9692 93.7506 33.4102C94.1834 32.9133 94.4307 32.23 94.4307 31.3603C94.4307 30.5528 94.1834 29.8695 93.7506 29.3726C93.3178 28.8757 92.6996 28.6271 92.0193 28.6271C91.5865 28.6271 91.2156 28.7513 90.7828 28.9378C90.35 29.1242 90.0408 29.4347 89.8554 29.7453V33.1617C90.0408 33.4723 90.4118 33.7208 90.7828 33.9071C91.2156 34.1556 91.6483 34.2177 92.0193 34.2177Z" fill="#202020"/>
<path d="M101.418 36.2678H98.8828V22.9746H101.418V36.2678Z" fill="#202020"/>
<path d="M112.177 36.2672H109.642V35.2734C108.962 36.0809 107.911 36.5157 106.612 36.5157C105.747 36.5157 105.005 36.2051 104.324 35.6461C103.644 35.087 103.273 34.2796 103.273 33.2856C103.273 32.2296 103.583 31.4843 104.263 30.9251C104.943 30.4282 105.685 30.1176 106.612 30.1176C107.973 30.1176 108.962 30.4903 109.642 31.2978V30.0555C109.642 29.5586 109.456 29.1859 109.085 28.8753C108.714 28.5646 108.22 28.4404 107.54 28.4404C106.489 28.4404 105.561 28.8131 104.757 29.5586L103.83 27.8814C104.943 26.8875 106.365 26.3906 108.034 26.3906C109.271 26.3906 110.26 26.7012 111.064 27.2602C111.868 27.8192 112.239 28.751 112.239 30.0555V36.2672H112.177ZM107.663 34.7765C108.591 34.7765 109.271 34.528 109.704 33.9688V32.7887C109.271 32.2297 108.591 31.9812 107.663 31.9812C107.169 31.9812 106.736 32.1054 106.365 32.3539C105.994 32.6023 105.87 32.975 105.87 33.4098C105.87 33.8446 106.056 34.2175 106.365 34.4659C106.736 34.6522 107.107 34.7765 107.663 34.7765Z" fill="#202020"/>
<path d="M117.93 36.5164C117.064 36.5164 116.384 36.2679 115.889 35.8331C115.395 35.3983 115.209 34.7151 115.209 33.9074V28.8138H113.602V26.5777H115.209V23.9688H117.744V26.5777H119.661V28.8138H117.744V33.1621C117.744 33.4727 117.806 33.7211 117.992 33.9074C118.177 34.0938 118.363 34.218 118.61 34.218C118.981 34.218 119.29 34.0938 119.475 33.9074L120.032 35.8331C119.537 36.2679 118.857 36.5164 117.93 36.5164Z" fill="#202020"/>
<path d="M125.906 36.5161C124.422 36.5161 123.186 36.0191 122.258 35.1495C121.269 34.2177 120.836 32.9754 120.836 31.4845C120.836 30.0559 121.331 28.8756 122.258 27.8817C123.186 26.8879 124.36 26.4531 125.844 26.4531C127.266 26.4531 128.441 26.95 129.307 27.9439C130.172 28.9378 130.605 30.1801 130.605 31.7952V32.3543H123.495C123.556 32.9754 123.866 33.5344 124.36 33.9692C124.855 34.4042 125.473 34.5905 126.277 34.5905C126.71 34.5905 127.143 34.5284 127.637 34.3421C128.132 34.1556 128.503 33.9071 128.812 33.6587L129.925 35.2738C128.874 36.0813 127.576 36.5161 125.906 36.5161ZM128.132 30.5528C128.07 29.9938 127.885 29.4969 127.514 29.0621C127.143 28.6271 126.524 28.3787 125.782 28.3787C125.04 28.3787 124.484 28.565 124.113 29C123.742 29.4348 123.495 29.9317 123.433 30.4907H128.132V30.5528Z" fill="#202020"/>
<path d="M135.859 36.5161C135.056 36.5161 134.252 36.3918 133.448 36.1434C132.706 35.8949 132.026 35.5222 131.531 35.0253L132.644 33.2239C133.015 33.5965 133.51 33.845 134.128 34.1556C134.746 34.4042 135.365 34.5284 135.921 34.5284C136.478 34.5284 136.849 34.4663 137.096 34.28C137.343 34.0934 137.529 33.845 137.529 33.5344C137.529 33.286 137.405 33.0996 137.096 32.9754C136.787 32.8512 136.478 32.7269 136.045 32.6648C135.612 32.6027 135.179 32.4785 134.685 32.3543C134.19 32.23 133.757 32.0437 133.324 31.8574C132.891 31.671 132.582 31.3603 132.273 30.9876C131.964 30.5528 131.84 30.0559 131.84 29.4969C131.84 28.6271 132.211 27.9439 132.891 27.3227C133.572 26.7637 134.561 26.4531 135.797 26.4531C137.281 26.4531 138.58 26.8879 139.693 27.7575L138.703 29.4969C138.394 29.1863 138.023 28.9378 137.467 28.6892C136.972 28.5029 136.416 28.3787 135.859 28.3787C135.426 28.3787 135.056 28.4408 134.746 28.6271C134.437 28.8134 134.314 29.0621 134.314 29.3105C134.314 29.4969 134.437 29.6832 134.746 29.8695C134.994 29.9938 135.365 30.118 135.797 30.1801C136.23 30.2422 136.663 30.3665 137.158 30.4907C137.652 30.6149 138.085 30.8013 138.518 30.9876C138.951 31.1739 139.322 31.4845 139.569 31.9195C139.816 32.3543 140.002 32.8512 140.002 33.4723C140.002 34.4042 139.631 35.0874 138.889 35.7086C138.147 36.2055 137.096 36.5161 135.859 36.5161Z" fill="#202020"/>
<path fill-rule="evenodd" clip-rule="evenodd" d="M31.5146 3.33196H8.2093C5.5278 3.33196 3.35403 5.51583 3.35403 8.20978V31.6233C3.35403 34.3172 5.5278 36.5011 8.2093 36.5011H31.5146C34.1961 36.5011 36.3698 34.3172 36.3698 31.6233V8.20978C36.3698 5.51583 34.1961 3.33196 31.5146 3.33196ZM8.2093 0.0800781C3.74014 0.0800781 0.117188 3.71988 0.117188 8.20978V31.6233C0.117188 36.1132 3.74014 39.753 8.2093 39.753H31.5146C35.9838 39.753 39.6066 36.1132 39.6066 31.6233V8.20978C39.6066 3.71988 35.9838 0.0800781 31.5146 0.0800781H8.2093Z" fill="url(#paint0_linear_5710_11293)"/>
<path fill-rule="evenodd" clip-rule="evenodd" d="M24.4303 13.06C24.246 12.7977 24.0176 12.5658 23.7449 12.3642C23.0141 11.8235 22.0222 11.5532 20.7693 11.5532C19.918 11.5532 19.1992 11.6743 18.6128 11.9163C18.0266 12.1503 17.5768 12.4771 17.2635 12.8967C16.927 13.3593 16.354 13.7342 15.8584 13.4506C15.4696 13.228 15.1106 12.9535 14.7917 12.6331C14.1967 12.0353 13.7604 11.2972 13.5229 10.4863C13.4182 10.1288 13.5108 9.73815 13.791 9.49394C14.4171 8.94818 15.1489 8.48885 15.9865 8.11592C17.4001 7.48656 19.0064 7.17188 20.8054 7.17188C22.6365 7.17188 24.2348 7.48656 25.6002 8.11592C26.9736 8.74529 28.0418 9.62075 28.8048 10.7423C29.2256 11.3609 29.5341 12.0336 29.7301 12.7602C30.0023 13.7689 29.1329 14.6396 28.0927 14.6396H26.6723C25.7151 14.6396 24.9826 13.8455 24.4303 13.06ZM16.5169 15.2452C16.7321 15.1607 16.9626 15.2886 17.0828 15.4868C17.2916 15.8176 17.5768 16.1041 17.9382 16.3461C18.2996 16.5801 18.7172 16.7858 19.1911 16.9634C19.665 17.1328 20.1709 17.278 20.7091 17.3991L22.9258 17.9316C24.0019 18.1738 24.9898 18.4965 25.8894 18.8999C26.789 19.3034 27.5679 19.7996 28.2265 20.3886C28.8851 20.9777 29.3951 21.6715 29.7565 22.4703C30.126 23.2692 30.3147 24.185 30.3228 25.2178C30.3147 26.7347 29.9292 28.0499 29.1662 29.1634C28.4112 30.2689 27.319 31.1282 25.8894 31.7414C24.4677 32.3466 22.7531 32.6492 20.7452 32.6492C18.7534 32.6492 17.0186 32.3425 15.5408 31.7294C14.071 31.116 12.9225 30.2084 12.0953 29.0061C11.5856 28.2531 11.2267 27.3892 11.0186 26.4146C10.7994 25.3882 11.666 24.5157 12.7109 24.5157H14.1142C15.0936 24.5157 15.8381 25.325 16.3045 26.1902C16.3817 26.3333 16.4685 26.469 16.5648 26.5975C16.9904 27.1463 17.5567 27.5617 18.2635 27.8442C18.9783 28.1185 19.7854 28.2557 20.685 28.2557C21.5683 28.2557 22.3353 28.1266 22.986 27.8684C23.6445 27.6102 24.1545 27.2512 24.5159 26.7912C24.8774 26.3313 25.0581 25.8027 25.0581 25.2056C25.0581 24.6489 24.8934 24.1809 24.5642 23.8017C24.2429 23.4225 23.769 23.0998 23.1427 22.8334C22.5242 22.5671 21.7652 22.3251 20.8656 22.1073L18.179 21.4295C16.417 20.9988 14.9688 20.3625 13.8349 19.5209C13.5284 19.2933 13.4153 18.8926 13.5229 18.5253C13.7604 17.7144 14.1966 16.9764 14.7915 16.3786C15.2836 15.8841 15.8715 15.4987 16.5169 15.2452ZM13.3243 11.8261L13.0882 11.0202C13.0781 10.9852 13.0569 10.9544 13.0279 10.9325C12.9988 10.9107 12.9635 10.8989 12.9272 10.8989C12.891 10.8989 12.8557 10.9107 12.8266 10.9325C12.7976 10.9544 12.7764 10.9852 12.7663 11.0202L12.5305 11.8261C12.3721 12.3666 12.0812 12.8586 11.6846 13.257C11.2879 13.6555 10.7981 13.9476 10.26 14.1067L9.45782 14.3438C9.29719 14.3917 9.29719 14.6201 9.45782 14.6673L10.26 14.9045C10.7981 15.0636 11.2878 15.3557 11.6844 15.7542C12.081 16.1526 12.3718 16.6445 12.5302 17.1851L12.7663 17.9913C12.8136 18.1525 13.0409 18.1525 13.0882 17.9913L13.3243 17.1855C13.4827 16.6448 13.7734 16.1528 14.17 15.7543C14.5666 15.3558 15.0564 15.0636 15.5945 14.9045L16.3971 14.6673C16.5573 14.6198 16.5573 14.3914 16.3971 14.3442L15.5948 14.107C15.0567 13.9479 14.5669 13.6557 14.1702 13.2572C13.7735 12.8588 13.4827 12.3667 13.3243 11.8261ZM10.4629 16.5855L10.5337 16.8274C10.5813 16.9895 10.6685 17.1373 10.7875 17.2569C10.9066 17.3764 11.0536 17.4642 11.215 17.5118L11.4558 17.583C11.5039 17.5972 11.5039 17.6656 11.4558 17.6799L11.2149 17.7512C11.0535 17.799 10.9065 17.8866 10.7875 18.0061C10.6685 18.1258 10.5812 18.2734 10.5337 18.4356L10.4629 18.6773C10.4487 18.7258 10.3805 18.7258 10.3663 18.6773L10.2954 18.4356C10.2479 18.2733 10.1606 18.1256 10.0416 18.0061C9.92262 17.8866 9.77566 17.7988 9.61422 17.7512L9.3735 17.6799C9.32528 17.6658 9.32528 17.5973 9.3735 17.5829L9.61422 17.5116C9.77568 17.464 9.92265 17.3764 10.0417 17.2569C10.1607 17.1372 10.248 16.9895 10.2955 16.8274L10.3663 16.5855C10.3693 16.5751 10.3757 16.5658 10.3844 16.5593C10.3931 16.5526 10.4037 16.5492 10.4146 16.5492C10.4255 16.5492 10.4361 16.5526 10.4448 16.5593C10.4535 16.5658 10.4598 16.5751 10.4629 16.5855ZM10.0012 10.009L9.89105 9.63292C9.8863 9.61659 9.87642 9.60223 9.86287 9.59204C9.84932 9.58183 9.83286 9.57631 9.81592 9.57631C9.79899 9.57631 9.78251 9.58183 9.76896 9.59204C9.75542 9.60223 9.74554 9.61659 9.7408 9.63292L9.63078 10.009C9.55684 10.2613 9.42112 10.4909 9.23601 10.6768C9.0509 10.8627 8.82234 10.9991 8.57123 11.0733L8.19685 11.184C8.12188 11.2063 8.12188 11.3129 8.19685 11.3349L8.57123 11.4456C8.8223 11.5199 9.05084 11.6562 9.23593 11.8421C9.421 12.0281 9.5567 12.2576 9.63061 12.5099L9.7408 12.8861C9.76286 12.9613 9.86897 12.9613 9.89105 12.8861L10.0012 12.51C10.0751 12.2578 10.2108 12.0282 10.3959 11.8422C10.581 11.6562 10.8095 11.5199 11.0606 11.4456L11.4351 11.3349C11.5099 11.3128 11.5099 11.2062 11.4351 11.1841L11.0608 11.0734C10.8096 10.9992 10.5811 10.8629 10.396 10.6769C10.2108 10.4909 10.0751 10.2613 10.0012 10.009Z" fill="url(#paint1_linear_5710_11293)"/>
</g>
<defs>
<linearGradient id="paint0_linear_5710_11293" x1="2.6889" y1="39.2873" x2="15.6583" y2="-5.62698" gradientUnits="userSpaceOnUse">
<stop stop-color="#C639FF"/>
<stop offset="1" stop-color="#3662FF"/>
</linearGradient>
<linearGradient id="paint1_linear_5710_11293" x1="9.58521" y1="32.3502" x2="18.8872" y2="4.17267" gradientUnits="userSpaceOnUse">
<stop stop-color="#C639FF"/>
<stop offset="1" stop-color="#3662FF"/>
</linearGradient>
<clipPath id="clip0_5710_11293">
<rect width="140" height="40" fill="white"/>
</clipPath>
</defs>
</svg>
