<svg width="112" height="33" viewBox="0 0 112 33" fill="none" xmlns="http://www.w3.org/2000/svg">
<g clip-path="url(#clip0_8871_806)">
<path d="M44.3992 14.9863C43.7148 14.9863 43.0793 14.8592 42.4927 14.605C41.906 14.341 41.4076 13.9842 40.9967 13.5345C40.5861 13.0847 40.2831 12.5665 40.0877 11.9799L41.5542 11.364C41.8181 12.0386 42.2043 12.5568 42.7125 12.9185C43.2211 13.2803 43.8078 13.4611 44.4725 13.4611C44.8637 13.4611 45.2057 13.4025 45.4992 13.2851C45.7924 13.158 46.0173 12.9821 46.1738 12.7572C46.34 12.5323 46.4231 12.2732 46.4231 11.9799C46.4231 11.5791 46.3105 11.2613 46.0859 11.0267C45.8609 10.792 45.5284 10.6063 45.0883 10.4694L43.0352 9.82412C42.2141 9.56991 41.5884 9.18372 41.1582 8.66554C40.728 8.13758 40.5128 7.52165 40.5128 6.8177C40.5128 6.20176 40.6645 5.66403 40.9675 5.20452C41.2705 4.73523 41.6861 4.36858 42.2141 4.1046C42.7519 3.84062 43.363 3.70863 44.0473 3.70863C44.7022 3.70863 45.2987 3.82596 45.8365 4.06062C46.3743 4.28548 46.8337 4.59835 47.2151 4.9992C47.606 5.40006 47.8896 5.86446 48.0657 6.39241L46.6284 7.02301C46.4133 6.44619 46.076 6.00133 45.6163 5.68846C45.1667 5.37559 44.6435 5.21917 44.0473 5.21917C43.6856 5.21917 43.3677 5.28273 43.0939 5.40983C42.8201 5.52716 42.6053 5.70312 42.4486 5.93778C42.302 6.16264 42.2287 6.42662 42.2287 6.72971C42.2287 7.08167 42.3413 7.39454 42.566 7.66829C42.7909 7.94204 43.1333 8.14736 43.5927 8.28426L45.4992 8.88554C46.3692 9.14952 47.0244 9.53079 47.4641 10.0294C47.9042 10.5183 48.1241 11.1293 48.1241 11.8626C48.1241 12.4688 47.9629 13.0065 47.6402 13.4758C47.3274 13.9451 46.8924 14.3166 46.3349 14.5904C45.7778 14.8543 45.1324 14.9863 44.3992 14.9863ZM53.1904 14.8984C52.3595 14.8984 51.7141 14.6637 51.2547 14.1944C50.7953 13.7251 50.5656 13.0652 50.5656 12.2146V8.37224H49.1724V6.87636H49.3923C49.7638 6.87636 50.0522 6.76883 50.2575 6.55372C50.4628 6.33863 50.5656 6.04534 50.5656 5.67381V5.05787H52.2227V6.87636H54.0265V8.37224H52.2227V12.1412C52.2227 12.415 52.2665 12.6497 52.3547 12.8452C52.4426 13.031 52.5844 13.1776 52.7799 13.2851C52.9756 13.3829 53.2298 13.4318 53.5426 13.4318C53.6206 13.4318 53.7089 13.4269 53.8066 13.4171C53.9043 13.4074 53.9973 13.3976 54.0851 13.3878V14.8103C53.9484 14.8299 53.7967 14.8495 53.6305 14.869C53.4642 14.8886 53.3176 14.8984 53.1904 14.8984ZM57.8598 14.9863C57.322 14.9863 56.848 14.8935 56.4375 14.7077C56.0364 14.5122 55.7236 14.2482 55.4986 13.9158C55.274 13.5736 55.1614 13.1727 55.1614 12.7132C55.1614 12.283 55.2543 11.8968 55.4403 11.5546C55.6357 11.2124 55.9339 10.924 56.3347 10.6894C56.7354 10.4547 57.2389 10.2885 57.8452 10.1907L60.6024 9.73614V11.0413L58.1679 11.4666C57.7278 11.5449 57.4052 11.6866 57.1999 11.8919C56.9946 12.0875 56.8921 12.3417 56.8921 12.6545C56.8921 12.9576 57.0044 13.2069 57.2294 13.4025C57.4639 13.5882 57.7621 13.6811 58.1238 13.6811C58.5737 13.6811 58.9646 13.5834 59.2971 13.3878C59.6391 13.1923 59.9031 12.9332 60.089 12.6105C60.2747 12.2781 60.3676 11.9115 60.3676 11.5106V9.47216C60.3676 9.08108 60.221 8.76332 59.9279 8.51889C59.6442 8.26469 59.2628 8.13758 58.7838 8.13758C58.344 8.13758 57.9576 8.25491 57.6254 8.48957C57.3027 8.71443 57.0631 9.00776 56.9067 9.36949L55.5281 8.68023C55.6747 8.28915 55.9143 7.94693 56.2468 7.65364C56.579 7.35054 56.9654 7.11591 57.4052 6.94968C57.8551 6.78349 58.3291 6.7004 58.8279 6.7004C59.4535 6.7004 60.0059 6.8177 60.485 7.05236C60.9739 7.28699 61.3502 7.61451 61.6142 8.03494C61.888 8.44557 62.0248 8.92463 62.0248 9.47216V14.8103H60.4409V13.3732L60.7782 13.4171C60.5926 13.7398 60.353 14.0184 60.0599 14.2531C59.7762 14.4877 59.4488 14.6686 59.0772 14.7957C58.7152 14.9228 58.3097 14.9863 57.8598 14.9863ZM63.8158 14.8103V6.87636H65.3997V8.47488L65.2531 8.24025C65.4292 7.72207 65.7125 7.35054 66.1037 7.12568C66.4946 6.89102 66.9642 6.77372 67.5115 6.77372H67.9957V8.28426H67.3062C66.7586 8.28426 66.3138 8.45534 65.9717 8.79753C65.6392 9.12994 65.473 9.60903 65.473 10.2347V14.8103H63.8158ZM72.5575 14.8984C71.7266 14.8984 71.0812 14.6637 70.6218 14.1944C70.1621 13.7251 69.9324 13.0652 69.9324 12.2146V8.37224H68.5392V6.87636H68.759C69.1306 6.87636 69.419 6.76883 69.6243 6.55372C69.8299 6.33863 69.9324 6.04534 69.9324 5.67381V5.05787H71.5895V6.87636H73.3936V8.37224H71.5895V12.1412C71.5895 12.415 71.6336 12.6497 71.7215 12.8452C71.8097 13.031 71.9512 13.1776 72.147 13.2851C72.3424 13.3829 72.5966 13.4318 72.9094 13.4318C72.9878 13.4318 73.0757 13.4269 73.1734 13.4171C73.2711 13.4074 73.3641 13.3976 73.4519 13.3878V14.8103C73.3152 14.8299 73.1635 14.8495 72.9976 14.869C72.8313 14.8886 72.6844 14.8984 72.5575 14.8984ZM78.5043 14.9863C77.7124 14.9863 77.0087 14.8055 76.3925 14.4437C75.7865 14.0722 75.3122 13.5736 74.9701 12.9478C74.6278 12.3124 74.4568 11.6035 74.4568 10.8214C74.4568 10.0197 74.6278 9.31082 74.9701 8.69489C75.322 8.07892 75.7913 7.59497 76.3779 7.24301C76.9646 6.88125 77.6293 6.7004 78.3723 6.7004C78.9688 6.7004 79.5015 6.80304 79.9711 7.00835C80.4404 7.21366 80.8363 7.49722 81.159 7.85895C81.4814 8.21091 81.726 8.61668 81.8922 9.07619C82.068 9.53571 82.1562 10.0245 82.1562 10.5427C82.1562 10.6698 82.1511 10.8018 82.1413 10.9387C82.1318 11.0756 82.1121 11.2027 82.0829 11.32H75.7621V10.0001H81.1441L80.3522 10.6014C80.4502 10.1223 80.4159 9.69702 80.2497 9.32548C80.0933 8.9442 79.8486 8.64599 79.5164 8.43091C79.1938 8.20602 78.8124 8.09361 78.3723 8.09361C77.9326 8.09361 77.5414 8.20602 77.1993 8.43091C76.857 8.64599 76.593 8.95886 76.4074 9.36949C76.2215 9.77034 76.1482 10.2592 76.1872 10.836C76.1384 11.3737 76.2117 11.8431 76.4074 12.2439C76.6127 12.6448 76.896 12.9576 77.2577 13.1825C77.6293 13.4074 78.0497 13.5198 78.5192 13.5198C78.9983 13.5198 79.4038 13.4122 79.7363 13.1972C80.0787 12.9821 80.3474 12.7034 80.5428 12.3612L81.8922 13.0212C81.7358 13.3927 81.4912 13.73 81.159 14.0331C80.8363 14.3264 80.4451 14.5611 79.9857 14.737C79.5358 14.9032 79.0421 14.9863 78.5043 14.9863ZM83.6268 14.8103V6.87636H85.2107V8.47488L85.0641 8.24025C85.2399 7.72207 85.5235 7.35054 85.9147 7.12568C86.3056 6.89102 86.7749 6.77372 87.3225 6.77372H87.8063V8.28426H87.1172C86.5696 8.28426 86.1248 8.45534 85.7827 8.79753C85.4502 9.12994 85.284 9.60903 85.284 10.2347V14.8103H83.6268ZM42.5073 29.7225V20.3367H39.6035V18.7968H47.0831V20.3367H44.2231V29.7225H42.5073ZM50.7629 29.8985C49.971 29.8985 49.2669 29.7176 48.6511 29.3559C48.0448 28.9844 47.5704 28.4858 47.2284 27.86C46.8861 27.2245 46.715 26.5157 46.715 25.7335C46.715 24.9318 46.8861 24.223 47.2284 23.6071C47.5803 22.9911 48.0495 22.5072 48.6362 22.1552C49.2228 21.7934 49.8878 21.6126 50.6309 21.6126C51.2271 21.6126 51.7601 21.7152 52.2294 21.9205C52.6986 22.1258 53.0946 22.4094 53.4173 22.7711C53.7399 23.1231 53.9843 23.5289 54.1505 23.9884C54.3266 24.4479 54.4145 24.9367 54.4145 25.4549C54.4145 25.582 54.4094 25.714 54.3999 25.8509C54.3901 25.9878 54.3704 26.1149 54.3412 26.2322H48.0203V24.9123H53.4027L52.6107 25.5136C52.7085 25.0345 52.6742 24.6092 52.5079 24.2377C52.3515 23.8564 52.1072 23.5582 51.7747 23.3431C51.452 23.1182 51.0707 23.0058 50.6309 23.0058C50.1908 23.0058 49.7996 23.1182 49.4576 23.3431C49.1153 23.5582 48.8513 23.871 48.6657 24.2817C48.4798 24.6825 48.4065 25.1714 48.4455 25.7482C48.3966 26.2859 48.4699 26.7553 48.6657 27.1561C48.871 27.557 49.1543 27.8698 49.5163 28.0947C49.8878 28.3195 50.3082 28.432 50.7775 28.432C51.2566 28.432 51.6621 28.3244 51.9946 28.1093C52.3369 27.8943 52.6057 27.6156 52.8011 27.2734L54.1505 27.9333C53.9941 28.3049 53.7495 28.6422 53.4173 28.9453C53.0946 29.2386 52.7034 29.4732 52.244 29.6492C51.7941 29.8154 51.3004 29.8985 50.7629 29.8985ZM55.8851 29.7225V21.7885H57.4689V23.5044L57.2637 23.2404C57.4299 22.7027 57.7329 22.297 58.173 22.0232C58.6127 21.7495 59.1163 21.6126 59.6836 21.6126C60.3191 21.6126 60.881 21.7837 61.3699 22.1258C61.8687 22.4583 62.2009 22.9031 62.3671 23.4604L61.8979 23.5044C62.1326 22.8689 62.4893 22.3947 62.9684 22.0819C63.4573 21.769 64.0148 21.6126 64.6404 21.6126C65.1877 21.6126 65.6817 21.7396 66.1215 21.9939C66.5714 22.2481 66.928 22.6001 67.192 23.0498C67.456 23.4995 67.588 24.0128 67.588 24.5897V29.7225H65.9308V25.0443C65.9308 24.6434 65.8575 24.3061 65.7109 24.0323C65.5742 23.7488 65.3784 23.5337 65.1243 23.3871C64.88 23.2306 64.5916 23.1524 64.2591 23.1524C63.9266 23.1524 63.6334 23.2306 63.3792 23.3871C63.1248 23.5337 62.9246 23.7488 62.778 24.0323C62.6311 24.3159 62.5578 24.6532 62.5578 25.0443V29.7225H60.9152V25.0443C60.9152 24.6434 60.842 24.3061 60.6954 24.0323C60.5586 23.7488 60.3629 23.5337 60.1087 23.3871C59.8644 23.2306 59.5709 23.1524 59.2289 23.1524C58.8964 23.1524 58.6032 23.2306 58.3488 23.3871C58.0946 23.5337 57.8944 23.7488 57.7475 24.0323C57.6108 24.3159 57.5422 24.6532 57.5422 25.0443V29.7225H55.8851ZM69.2153 32.6555V21.7885H70.7992V23.4311L70.6085 23.0498C70.9016 22.6001 71.2929 22.2481 71.7815 21.9939C72.2704 21.7396 72.8279 21.6126 73.4535 21.6126C74.2064 21.6126 74.881 21.7934 75.4771 22.1552C76.0835 22.5169 76.5575 23.0107 76.8998 23.6364C77.2517 24.2621 77.4278 24.966 77.4278 25.7482C77.4278 26.5304 77.2517 27.2343 76.8998 27.86C76.5575 28.4858 76.0882 28.9844 75.4921 29.3559C74.8956 29.7176 74.216 29.8985 73.4535 29.8985C72.8374 29.8985 72.2755 29.7714 71.7669 29.5172C71.2684 29.263 70.882 28.8964 70.6085 28.4173L70.8725 28.1093V32.6555H69.2153ZM73.292 28.3587C73.7613 28.3587 74.1769 28.2462 74.5386 28.0214C74.9003 27.7965 75.184 27.4885 75.3893 27.0974C75.6044 26.6966 75.7119 26.2468 75.7119 25.7482C75.7119 25.2496 75.6044 24.8047 75.3893 24.4137C75.184 24.0226 74.9003 23.7146 74.5386 23.4897C74.1769 23.2649 73.7613 23.1524 73.292 23.1524C72.8326 23.1524 72.417 23.2649 72.0454 23.4897C71.6837 23.7146 71.3953 24.0226 71.1802 24.4137C70.9749 24.8047 70.8725 25.2496 70.8725 25.7482C70.8725 26.2468 70.9749 26.6966 71.1802 27.0974C71.3953 27.4885 71.6837 27.7965 72.0454 28.0214C72.417 28.2462 72.8326 28.3587 73.292 28.3587ZM78.8933 29.7225V18.6208H80.5505V29.7225H78.8933ZM84.717 29.8985C84.1792 29.8985 83.7052 29.8056 83.2946 29.6199C82.8936 29.4243 82.5807 29.1604 82.3558 28.8279C82.1312 28.4858 82.0185 28.0849 82.0185 27.6254C82.0185 27.1952 82.1115 26.809 82.2974 26.4668C82.4929 26.1246 82.7911 25.8362 83.1918 25.6016C83.5929 25.3669 84.0964 25.2007 84.7024 25.1029L87.4596 24.6483V25.9535L85.0251 26.3788C84.585 26.457 84.2623 26.5988 84.057 26.8041C83.8518 26.9997 83.7493 27.2539 83.7493 27.5667C83.7493 27.8698 83.8616 28.1191 84.0865 28.3147C84.321 28.5004 84.6193 28.5933 84.981 28.5933C85.4309 28.5933 85.8218 28.4955 86.1543 28.3C86.4966 28.1045 86.7606 27.8454 86.9462 27.5227C87.1321 27.1903 87.2248 26.8237 87.2248 26.4228V24.3843C87.2248 23.9933 87.0782 23.6755 86.785 23.4311C86.5014 23.1769 86.12 23.0498 85.6409 23.0498C85.2012 23.0498 84.8147 23.1671 84.4825 23.4018C84.1598 23.6266 83.9203 23.9199 83.7639 24.2817L82.3853 23.5924C82.5319 23.2013 82.7714 22.8591 83.1039 22.5658C83.4364 22.2627 83.8226 22.0281 84.2623 21.8619C84.7122 21.6957 85.1862 21.6126 85.685 21.6126C86.3107 21.6126 86.8631 21.7299 87.3422 21.9645C87.8311 22.1992 88.2074 22.5267 88.4714 22.9471C88.7452 23.3577 88.8819 23.8368 88.8819 24.3843V29.7225H87.2981V28.2853L87.6353 28.3293C87.4497 28.652 87.2102 28.9306 86.917 29.1652C86.6334 29.3999 86.3059 29.5808 85.9344 29.7079C85.5727 29.835 85.1669 29.8985 84.717 29.8985ZM93.9616 29.8105C93.1306 29.8105 92.4853 29.5759 92.0259 29.1066C91.5661 28.6373 91.3364 27.9774 91.3364 27.1268V23.2844H89.9432V21.7885H90.1631C90.5346 21.7885 90.8231 21.681 91.0283 21.4659C91.2339 21.2508 91.3364 20.9575 91.3364 20.586V19.97H92.9936V21.7885H94.7976V23.2844H92.9936V27.0534C92.9936 27.3272 93.0377 27.5618 93.1256 27.7574C93.2138 27.9431 93.3553 28.0898 93.551 28.1973C93.7465 28.2951 94.0006 28.344 94.3134 28.344C94.3918 28.344 94.4797 28.3391 94.5774 28.3293C94.6751 28.3195 94.7681 28.3098 94.856 28.3V29.7225C94.7193 29.7421 94.5676 29.7616 94.4017 29.7812C94.2354 29.8008 94.0885 29.8105 93.9616 29.8105ZM99.9084 29.8985C99.1164 29.8985 98.4127 29.7176 97.7966 29.3559C97.1905 28.9844 96.7162 28.4858 96.3742 27.86C96.0318 27.2245 95.8608 26.5157 95.8608 25.7335C95.8608 24.9318 96.0318 24.223 96.3742 23.6071C96.7261 22.9911 97.1953 22.5072 97.782 22.1552C98.3686 21.7934 99.0333 21.6126 99.7764 21.6126C100.373 21.6126 100.906 21.7152 101.375 21.9205C101.844 22.1258 102.24 22.4094 102.563 22.7711C102.885 23.1231 103.13 23.5289 103.296 23.9884C103.472 24.4479 103.56 24.9367 103.56 25.4549C103.56 25.582 103.555 25.714 103.545 25.8509C103.536 25.9878 103.516 26.1149 103.487 26.2322H97.1661V24.9123H102.548L101.756 25.5136C101.854 25.0345 101.82 24.6092 101.654 24.2377C101.497 23.8564 101.253 23.5582 100.92 23.3431C100.598 23.1182 100.216 23.0058 99.7764 23.0058C99.3366 23.0058 98.9454 23.1182 98.6034 23.3431C98.2611 23.5582 97.9971 23.871 97.8115 24.2817C97.6255 24.6825 97.5523 25.1714 97.5913 25.7482C97.5424 26.2859 97.6157 26.7553 97.8115 27.1561C98.0168 27.557 98.3001 27.8698 98.6618 28.0947C99.0333 28.3195 99.4537 28.432 99.9233 28.432C100.402 28.432 100.808 28.3244 101.14 28.1093C101.483 27.8943 101.751 27.6156 101.947 27.2734L103.296 27.9333C103.14 28.3049 102.895 28.6422 102.563 28.9453C102.24 29.2386 101.849 29.4732 101.39 29.6492C100.94 29.8154 100.446 29.8985 99.9084 29.8985ZM107.964 29.8985C107.153 29.8985 106.439 29.6981 105.823 29.2972C105.216 28.8964 104.791 28.3587 104.547 27.6841L105.823 27.0827C106.038 27.5325 106.331 27.8894 106.703 28.1533C107.084 28.4173 107.504 28.5493 107.964 28.5493C108.355 28.5493 108.673 28.4613 108.917 28.2853C109.162 28.1093 109.284 27.8698 109.284 27.5667C109.284 27.3712 109.23 27.2147 109.123 27.0974C109.015 26.9703 108.878 26.8677 108.712 26.7895C108.556 26.7112 108.394 26.6526 108.228 26.6135L106.981 26.2615C106.297 26.066 105.784 25.7727 105.441 25.3816C105.109 24.9807 104.943 24.5163 104.943 23.9884C104.943 23.5093 105.065 23.0938 105.309 22.7418C105.554 22.38 105.891 22.1014 106.321 21.9059C106.751 21.7103 107.236 21.6126 107.773 21.6126C108.497 21.6126 109.142 21.7934 109.709 22.1552C110.276 22.5072 110.677 23.0009 110.912 23.6364L109.636 24.2377C109.479 23.8564 109.23 23.5533 108.888 23.3284C108.556 23.1035 108.179 22.9911 107.759 22.9911C107.397 22.9911 107.108 23.0791 106.893 23.2551C106.678 23.4213 106.571 23.6413 106.571 23.915C106.571 24.1008 106.619 24.2572 106.717 24.3843C106.815 24.5016 106.942 24.5994 107.099 24.6776C107.255 24.7461 107.417 24.8047 107.583 24.8536L108.873 25.2349C109.528 25.4207 110.032 25.714 110.384 26.1149C110.736 26.5059 110.912 26.9752 110.912 27.5227C110.912 27.992 110.784 28.4076 110.53 28.7693C110.286 29.1212 109.944 29.3999 109.504 29.6052C109.064 29.8008 108.55 29.8985 107.964 29.8985Z" fill="#626262"/>
<path fill-rule="evenodd" clip-rule="evenodd" d="M26.2354 2.70469H6.76172C4.52109 2.70469 2.70469 4.52109 2.70469 6.76172V26.2354C2.70469 28.4761 4.52109 30.2925 6.76172 30.2925H26.2354C28.4761 30.2925 30.2925 28.4761 30.2925 26.2354V6.76172C30.2925 4.52109 28.4761 2.70469 26.2354 2.70469ZM6.76172 0C3.02732 0 0 3.02732 0 6.76172V26.2354C0 29.9698 3.02732 32.9972 6.76172 32.9972H26.2354C29.9698 32.9972 32.9972 29.9698 32.9972 26.2354V6.76172C32.9972 3.02732 29.9698 0 26.2354 0H6.76172Z" fill="#626262"/>
<path fill-rule="evenodd" clip-rule="evenodd" d="M19.9389 10.3811C19.8755 10.3244 19.8086 10.2701 19.7381 10.2183C19.1274 9.76862 18.2986 9.5438 17.2517 9.5438C16.5403 9.5438 15.9396 9.64447 15.4497 9.84582C14.9598 10.0404 14.584 10.3122 14.3223 10.6612C14.0412 11.0459 13.5624 11.3576 13.1484 11.1218C12.8233 10.9367 12.5232 10.7082 12.2566 10.4417C11.7594 9.94452 11.3949 9.33062 11.1964 8.65614C11.109 8.35901 11.1864 8.0343 11.4203 7.83131C11.9435 7.37728 12.5552 6.99515 13.2552 6.68491C14.4364 6.16143 15.7786 5.8997 17.2818 5.8997C18.812 5.8997 20.1475 6.16143 21.2884 6.68491C22.436 7.20836 23.3285 7.93652 23.9661 8.86935C24.1993 9.21059 24.3912 9.57159 24.5418 9.95233C24.9884 11.0814 23.9576 12.1108 22.7434 12.1108C21.7956 12.1108 21.0368 11.4019 20.32 10.7322C20.192 10.6125 20.0651 10.494 19.9389 10.3811ZM13.698 12.6143C13.878 12.544 14.0707 12.6505 14.1713 12.8155C14.3457 13.0906 14.584 13.3289 14.886 13.5302C15.188 13.7248 15.537 13.8959 15.9329 14.0436C16.3289 14.1845 16.7517 14.3053 17.2013 14.406L19.0536 14.8489C19.9529 15.0502 20.7783 15.3187 21.53 15.6542C22.2816 15.9898 22.9326 16.4025 23.4829 16.8924C24.0332 17.3823 24.4593 17.9595 24.7613 18.6239C25.0701 19.2883 25.2277 20.05 25.2345 20.909C25.2277 22.1707 24.9056 23.2646 24.2681 24.1907C23.6372 25.1101 22.7245 25.8249 21.53 26.3349C20.3421 26.8382 18.9093 27.0899 17.2315 27.0899C15.5672 27.0899 14.1176 26.8349 12.8827 26.3249C11.6546 25.8148 10.6949 25.0598 10.0037 24.0599C9.68468 23.5907 9.43634 23.0698 9.25873 22.4972C8.90042 21.3422 9.92162 20.3251 11.1309 20.3251H11.2877C12.3329 20.3251 13.1093 21.2219 13.7384 22.0566C14.0941 22.513 14.5672 22.8586 15.1578 23.0935C15.7551 23.3216 16.4296 23.4357 17.1812 23.4357C17.9194 23.4357 18.5603 23.3284 19.1039 23.1136C19.6542 22.8988 20.0804 22.6002 20.3824 22.2177C20.6843 21.8351 20.8353 21.3956 20.8353 20.8989C20.8353 20.4359 20.6978 20.0466 20.4226 19.7312C20.1542 19.4158 19.7582 19.1474 19.2348 18.9259C18.718 18.7044 18.0838 18.5031 17.3322 18.3219L15.0873 17.7582C13.6148 17.4 12.4047 16.8708 11.4572 16.1706C11.201 15.9813 11.1065 15.648 11.1964 15.3424C11.3949 14.668 11.7593 14.0541 12.2564 13.557C12.6677 13.1457 13.1588 12.8252 13.698 12.6143ZM11.0306 9.77053L10.8334 9.10024C10.8249 9.07114 10.8072 9.04557 10.7829 9.02739C10.7586 9.00918 10.7292 8.99934 10.6988 8.99934C10.6685 8.99934 10.639 9.00918 10.6148 9.02739C10.5905 9.04557 10.5728 9.07114 10.5643 9.10024L10.3673 9.77053C10.2349 10.2201 9.9919 10.6293 9.66047 10.9607C9.32904 11.2921 8.91975 11.5351 8.47013 11.6674L7.79981 11.8647C7.66557 11.9045 7.66557 12.0944 7.79981 12.1337L8.47013 12.3309C8.91971 12.4633 9.32891 12.7063 9.66031 13.0377C9.99171 13.369 10.2347 13.7782 10.3671 14.2278L10.5643 14.8984C10.6038 15.0323 10.7938 15.0323 10.8334 14.8984L11.0306 14.2281C11.163 13.7785 11.4059 13.3692 11.7373 13.0378C12.0687 12.7064 12.4779 12.4633 12.9275 12.3309L13.5981 12.1337C13.7321 12.0942 13.7321 11.9042 13.5981 11.865L12.9278 11.6677C12.4782 11.5353 12.0689 11.2923 11.7374 10.9609C11.406 10.6295 11.163 10.2202 11.0306 9.77053ZM8.6394 13.7296L8.69857 13.9307C8.73829 14.0656 8.81117 14.1883 8.91061 14.2878C9.01004 14.3872 9.13283 14.4601 9.26774 14.4998L9.46883 14.559C9.50903 14.5708 9.50903 14.6277 9.46883 14.6396L9.26764 14.6988C9.13277 14.7385 9.01001 14.8114 8.91058 14.9108C8.81117 15.0103 8.73826 15.133 8.69857 15.2679L8.6394 15.469C8.62753 15.5092 8.57055 15.5092 8.55868 15.469L8.49951 15.2679C8.45978 15.133 8.38691 15.0102 8.28747 14.9108C8.18807 14.8114 8.06531 14.7385 7.93043 14.6988L7.72934 14.6396C7.68905 14.6278 7.68905 14.5709 7.72934 14.5589L7.93043 14.4997C8.06531 14.46 8.1881 14.3871 8.28753 14.2877C8.38697 14.1883 8.45988 14.0656 8.49957 13.9307L8.55868 13.7296C8.56125 13.7209 8.56655 13.7132 8.57382 13.7077C8.58111 13.7023 8.58993 13.6993 8.59904 13.6993C8.60814 13.6993 8.617 13.7023 8.62426 13.7077C8.63153 13.7132 8.63686 13.7209 8.6394 13.7296ZM8.25393 8.25916L8.16186 7.94635C8.15789 7.93277 8.14964 7.92084 8.13832 7.91234C8.12699 7.90387 8.11325 7.89927 8.0991 7.89927C8.08495 7.89927 8.07118 7.90387 8.05985 7.91234C8.04853 7.92084 8.04028 7.93277 8.03631 7.94635L7.94439 8.25916C7.88262 8.46898 7.76919 8.65995 7.61452 8.81459C7.45984 8.96923 7.26884 9.0826 7.05902 9.14434L6.74622 9.23642C6.68355 9.25498 6.68355 9.34366 6.74622 9.36196L7.05902 9.45401C7.26884 9.51578 7.45978 9.62918 7.61445 9.78382C7.7691 9.93846 7.88249 10.1294 7.94424 10.3392L8.03631 10.6522C8.05474 10.7147 8.14342 10.7147 8.16186 10.6522L8.25393 10.3393C8.31568 10.1295 8.42904 9.93853 8.58371 9.78388C8.73836 9.62921 8.92933 9.51578 9.13915 9.45401L9.45211 9.36196C9.51461 9.34353 9.51461 9.25485 9.45211 9.23654L9.13927 9.14447C8.92942 9.08272 8.73845 8.96933 8.58378 8.81465C8.4291 8.65998 8.31568 8.46898 8.25393 8.25916Z" fill="#626262"/>
</g>
<defs>
<clipPath id="clip0_8871_806">
<rect width="112" height="32.9972" fill="white"/>
</clipPath>
</defs>
</svg>
