<svg width="48" height="49" viewBox="0 0 48 49" fill="none" xmlns="http://www.w3.org/2000/svg">
<g clip-path="url(#clip0_5392_9292)">
<path fill-rule="evenodd" clip-rule="evenodd" d="M38.1639 4.60044H9.83606C6.57668 4.60044 3.93443 7.2427 3.93443 10.5021V38.83C3.93443 42.0893 6.57668 44.7316 9.83606 44.7316H38.1639C41.4233 44.7316 44.0655 42.0893 44.0655 38.83V10.5021C44.0655 7.2427 41.4233 4.60044 38.1639 4.60044ZM9.83606 0.666016C4.40376 0.666016 0 5.06978 0 10.5021V38.83C0 44.2623 4.40376 48.666 9.83606 48.666H38.1639C43.5963 48.666 48 44.2623 48 38.83V10.5021C48 5.06978 43.5963 0.666016 38.1639 0.666016H9.83606Z" fill="url(#paint0_linear_5392_9292)"/>
<path fill-rule="evenodd" clip-rule="evenodd" d="M30.0131 17.306C29.7702 16.5831 29.3356 15.9911 28.7095 15.5302C27.8211 14.8761 26.6154 14.549 25.0925 14.549C24.0577 14.549 23.1839 14.6954 22.4713 14.9883C21.7586 15.2714 21.212 15.6669 20.8312 16.1745C20.8214 16.1878 20.8118 16.2012 20.8023 16.2147C20.4175 16.7594 19.7485 17.1944 19.1664 16.8689C18.6772 16.5954 18.226 16.2549 17.8266 15.8555C17.1034 15.1323 16.5731 14.2392 16.2844 13.2581L16.2614 13.1802C16.1483 12.7958 16.2488 12.3762 16.5491 12.111C17.3236 11.4271 18.2335 10.8536 19.279 10.3902C20.9971 9.62878 22.9497 9.24805 25.1364 9.24805C27.3622 9.24805 29.3049 9.62878 30.9646 10.3902C32.6339 11.1517 33.9323 12.211 34.8597 13.5679C35.5883 14.634 36.0398 15.8326 36.2141 17.1639C36.2941 17.7757 35.7892 18.2831 35.1721 18.2831H31.218C30.6503 18.2831 30.1941 17.8441 30.0131 17.306ZM19.9236 19.0159C20.1852 18.9137 20.4654 19.0684 20.6116 19.3082C20.8654 19.7085 21.212 20.055 21.6513 20.3479C22.0905 20.631 22.5982 20.8799 23.1742 21.0947C23.7501 21.2998 24.3652 21.4754 25.0192 21.6219L27.7137 22.2662C29.0218 22.5591 30.2226 22.9496 31.316 23.4377C32.4094 23.9258 33.3563 24.5262 34.1569 25.2388C34.9573 25.9515 35.5773 26.791 36.0166 27.7576C36.4657 28.724 36.6951 29.832 36.7048 31.0817C36.6951 32.917 36.2265 34.5083 35.2991 35.8555C34.3814 37.1929 33.0537 38.2326 31.316 38.9745C29.5881 39.7067 27.5038 40.0728 25.0632 40.0728C22.6421 40.0728 20.5334 39.7018 18.7372 38.9599C16.9506 38.2179 15.5546 37.1197 14.5491 35.6651C13.7319 34.4634 13.2336 33.0282 13.0542 31.3596C12.9879 30.7434 13.4922 30.2324 14.112 30.2324H18.0859C18.6668 30.2324 19.1328 30.6878 19.2763 31.2507C19.4212 31.819 19.6564 32.3191 19.9818 32.751C20.4993 33.4149 21.1875 33.9176 22.0466 34.2593C22.9155 34.5912 23.8966 34.7572 24.9899 34.7572C26.0638 34.7572 26.9961 34.601 27.7869 34.2886C28.5874 33.9762 29.2073 33.5418 29.6466 32.9854C30.0859 32.4288 30.3056 31.7894 30.3056 31.067C30.3056 30.3934 30.1055 29.8271 29.7052 29.3684C29.3147 28.9095 28.7387 28.519 27.9773 28.1969C27.2256 27.8747 26.303 27.5818 25.2096 27.3183L21.9441 26.4982C19.7815 25.9722 18.0081 25.1926 16.6238 24.1594C16.2768 23.9004 16.1481 23.4476 16.2704 23.0322L16.2844 22.9846C16.5731 22.0034 17.1033 21.1104 17.8263 20.3873C18.4246 19.789 19.1391 19.3226 19.9236 19.0159ZM16.043 14.8791L15.7561 13.904C15.7437 13.8617 15.718 13.8245 15.6826 13.798C15.6474 13.7716 15.6045 13.7573 15.5604 13.7573C15.5163 13.7573 15.4734 13.7716 15.4381 13.798C15.4028 13.8245 15.3771 13.8617 15.3647 13.904L15.0781 14.8791C14.8856 15.5331 14.5321 16.1284 14.0499 16.6104C13.5678 17.0926 12.9725 17.4459 12.3183 17.6384L11.3433 17.9254C11.148 17.9832 11.148 18.2596 11.3433 18.3167L12.3183 18.6037C12.9724 18.7962 13.5676 19.1496 14.0497 19.6317C14.5318 20.1138 14.8852 20.709 15.0777 21.3629L15.3647 22.3385C15.4222 22.5333 15.6986 22.5333 15.7561 22.3385L16.043 21.3634C16.2355 20.7094 16.589 20.114 17.071 19.6318C17.5531 19.1497 18.1484 18.7963 18.8025 18.6037L19.7779 18.3167C19.9728 18.2592 19.9728 17.9829 19.7779 17.9257L18.8028 17.6388C18.1487 17.4463 17.5533 17.0928 17.0712 16.6107C16.5891 16.1285 16.2355 15.5332 16.043 14.8791ZM12.5649 20.6375L12.6511 20.9302C12.7088 21.1265 12.8148 21.3051 12.9596 21.4498C13.1043 21.5945 13.2829 21.7006 13.4792 21.7582L13.7718 21.8444C13.8302 21.8615 13.8302 21.9445 13.7718 21.9617L13.4791 22.0478C13.2828 22.1056 13.1042 22.2117 12.9595 22.3563C12.8148 22.501 12.7088 22.6797 12.6511 22.8759L12.5649 23.1685C12.5477 23.227 12.4647 23.227 12.4474 23.1685L12.3613 22.8758C12.3036 22.6796 12.1976 22.5009 12.0529 22.3563C11.9082 22.2117 11.7296 22.1056 11.5333 22.0478L11.2407 21.9617C11.1822 21.9446 11.1822 21.8616 11.2407 21.8443L11.5333 21.7582C11.7297 21.7005 11.9083 21.5944 12.053 21.4497C12.1977 21.305 12.3037 21.1265 12.3615 20.9302L12.4474 20.6375C12.4512 20.6249 12.459 20.6137 12.4695 20.6058C12.4801 20.5978 12.4929 20.5936 12.5062 20.5936C12.5194 20.5936 12.5323 20.5978 12.5429 20.6058C12.5535 20.6137 12.5612 20.6249 12.5649 20.6375ZM12.0037 12.6807L11.8698 12.2256C11.8641 12.2059 11.8521 12.1885 11.8355 12.1762C11.8191 12.1638 11.7991 12.1572 11.7785 12.1572C11.758 12.1572 11.7379 12.1638 11.7215 12.1762C11.705 12.1885 11.693 12.2059 11.6872 12.2256L11.5535 12.6807C11.4636 12.9859 11.2986 13.2637 11.0736 13.4886C10.8487 13.7136 10.5708 13.8786 10.2656 13.9683L9.81052 14.1022C9.71941 14.1293 9.71941 14.2582 9.81052 14.2848L10.2656 14.4188C10.5707 14.5086 10.8486 14.6735 11.0735 14.8986C11.2985 15.1235 11.4634 15.4013 11.5533 15.7065L11.6872 16.1617C11.714 16.2526 11.843 16.2526 11.8698 16.1617L12.0037 15.7067C12.0936 15.4014 12.2585 15.1236 12.4834 14.8987C12.7085 14.6736 12.9863 14.5086 13.2915 14.4188L13.7467 14.2848C13.8376 14.2581 13.8376 14.1291 13.7467 14.1024L13.2917 13.9685C12.9864 13.8787 12.7086 13.7137 12.4835 13.4887C12.2585 13.2638 12.0936 12.986 12.0037 12.6807Z" fill="url(#paint1_linear_5392_9292)"/>
</g>
<defs>
<linearGradient id="paint0_linear_5392_9292" x1="3.12594" y1="48.1026" x2="18.7561" y2="-6.27753" gradientUnits="userSpaceOnUse">
<stop stop-color="#C639FF"/>
<stop offset="1" stop-color="#3662FF"/>
</linearGradient>
<linearGradient id="paint1_linear_5392_9292" x1="11.4981" y1="39.711" x2="22.7106" y2="5.58839" gradientUnits="userSpaceOnUse">
<stop stop-color="#C639FF"/>
<stop offset="1" stop-color="#3662FF"/>
</linearGradient>
<clipPath id="clip0_5392_9292">
<rect width="48" height="48" fill="white" transform="translate(0 0.666016)"/>
</clipPath>
</defs>
</svg>
