<svg width="192" height="32" viewBox="0 0 192 32" fill="none" xmlns="http://www.w3.org/2000/svg">
<g clip-path="url(#clip0_3010_14913)">
<mask id="mask0_3010_14913" style="mask-type:luminance" maskUnits="userSpaceOnUse" x="0" y="0" width="192" height="32">
<path d="M192 0H0V32H192V0Z" fill="white"/>
</mask>
<g mask="url(#mask0_3010_14913)">
<path d="M32 0H0V32H32V0Z" fill="#404347"/>
<path d="M9.14453 6.85645H22.8589V11.4279H11.4303L9.14453 13.7136V11.4279V6.85645Z" fill="white"/>
<path d="M9.14453 6.85645H22.8589V11.4279H11.4303L9.14453 13.7136V11.4279V6.85645Z" fill="white"/>
<path d="M9.14453 13.7139H20.5731V18.2853H11.4303L9.14453 20.571V18.2853V13.7139Z" fill="white"/>
<path d="M9.14453 13.7139H20.5731V18.2853H11.4303L9.14453 20.571V18.2853V13.7139Z" fill="white"/>
<path d="M9.14453 20.5713H16.0017V25.1427H9.14453V20.5713Z" fill="white"/>
<path d="M9.14453 20.5713H16.0017V25.1427H9.14453V20.5713Z" fill="white"/>
<path fill-rule="evenodd" clip-rule="evenodd" d="M42.668 22.1379L43.9914 20.193C44.5987 20.8939 45.4066 21.4837 46.4148 21.9626C47.4231 22.4415 48.483 22.6809 49.5946 22.6809C50.8664 22.6809 51.8576 22.4065 52.5679 21.8575C53.2898 21.3085 53.6508 20.5902 53.6508 19.7024C53.6508 19.1418 53.456 18.6687 53.0664 18.2833C52.6768 17.8978 52.1726 17.5999 51.5539 17.3897C50.9351 17.1795 50.2533 16.9867 49.5086 16.8116C48.7638 16.6363 48.0133 16.4319 47.2571 16.1983C46.5123 15.9647 45.8305 15.6785 45.2118 15.3398C44.593 15.001 44.0888 14.5221 43.6992 13.9031C43.3096 13.2723 43.1149 12.5248 43.1149 11.6604C43.1149 10.2353 43.6763 9.04982 44.7993 8.1037C45.9222 7.14589 47.4633 6.66699 49.4227 6.66699C52.0122 6.66699 54.1091 7.50799 55.7132 9.18998L54.493 11.0472C53.9658 10.3931 53.2554 9.86746 52.3617 9.47031C51.4794 9.0615 50.4997 8.85709 49.4227 8.85709C48.2883 8.85709 47.3773 9.1199 46.6898 9.64552C46.0024 10.1595 45.6586 10.8077 45.6586 11.5903C45.6586 12.0926 45.8534 12.5189 46.243 12.8694C46.6325 13.2081 47.131 13.4767 47.7383 13.6753C48.357 13.8622 49.0388 14.0432 49.7836 14.2185C50.5398 14.382 51.2903 14.5864 52.0351 14.8317C52.7914 15.077 53.4731 15.3806 54.0804 15.7428C54.6992 16.0931 55.2034 16.6013 55.5929 17.2671C55.9825 17.9328 56.1773 18.7213 56.1773 19.6324C56.1773 21.1508 55.5929 22.4065 54.4242 23.3993C53.2669 24.3805 51.6341 24.8711 49.5258 24.8711C46.6727 24.8711 44.3868 23.96 42.668 22.1379ZM59.0661 19.3345V7.10501H61.6959V18.511C61.6959 19.9594 62.0224 20.9815 62.6755 21.5771C63.3287 22.1612 64.2797 22.4532 65.5286 22.4532C66.5141 22.4532 67.4651 22.202 68.3817 21.6998C69.2983 21.1975 70.0145 20.5785 70.5301 19.8426V7.10501H73.177V24.4331H70.5301V21.9977C69.8197 22.8153 68.9317 23.4986 67.8661 24.0476C66.8005 24.5965 65.6719 24.8711 64.4801 24.8711C60.8708 24.8711 59.0661 23.0255 59.0661 19.3345ZM77.0455 24.4331H79.6752V12.1685C80.0648 11.456 80.7351 10.8194 81.6862 10.2588C82.6372 9.6864 83.5195 9.40023 84.333 9.40023C84.5965 9.40023 84.9346 9.42359 85.347 9.47031V6.70204C84.2471 6.70204 83.2101 6.99405 82.2362 7.57807C81.2621 8.15042 80.4086 8.91549 79.6752 9.8733V7.10501H77.0455V24.4331ZM86.2593 15.7428C86.2593 14.0841 86.6145 12.5657 87.325 11.1874C88.0469 9.79737 89.0495 8.6994 90.3328 7.89345C91.6161 7.07581 93.0541 6.66699 94.6468 6.66699C96.3197 6.66699 97.7806 7.08165 99.0296 7.91097C100.278 8.74028 101.218 9.85577 101.848 11.2574C102.489 12.6474 102.81 14.2184 102.81 15.9705V16.6538H89.0781C89.1812 18.3592 89.777 19.7842 90.8656 20.9289C91.9656 22.0736 93.3978 22.6459 95.1624 22.6459C96.1593 22.6459 97.1161 22.4532 98.0327 22.0677C98.9609 21.6823 99.7686 21.1334 100.456 20.4208L101.71 22.1729C99.9119 23.9716 97.6604 24.8711 94.9562 24.8711C92.4124 24.8711 90.3271 24.0242 88.7 22.3306C87.0729 20.6369 86.2593 18.441 86.2593 15.7428ZM89.0437 14.639H100.198C100.187 13.9732 100.066 13.3132 99.8374 12.6591C99.6197 12.005 99.2932 11.3917 98.8578 10.8194C98.4223 10.2471 97.8379 9.78569 97.1046 9.43528C96.3713 9.07318 95.5405 8.89213 94.6124 8.89213C93.7416 8.89213 92.951 9.06733 92.2406 9.41775C91.5302 9.76816 90.9515 10.2296 90.5046 10.8019C90.0692 11.3626 89.7255 11.9758 89.4734 12.6415C89.2213 13.2957 89.0781 13.9615 89.0437 14.639Z" fill="#404347"/>
<path d="M109.171 25.0169H105.492V7.42383H117.721V10.7209H109.171V14.4136H117.539V17.7107H109.171V25.0169Z" fill="#404347"/>
<path d="M128.507 25.3336C123.274 25.3336 119.465 21.5353 119.465 16.2337C119.465 10.932 123.274 7.13379 128.507 7.13379C133.714 7.13379 137.523 10.932 137.523 16.2337C137.523 21.5353 133.714 25.3336 128.507 25.3336ZM128.507 22.0101C131.694 22.0101 133.74 19.5044 133.74 16.2337C133.74 12.9366 131.694 10.4572 128.507 10.4572C125.294 10.4572 123.248 12.9366 123.248 16.2337C123.248 19.5044 125.294 22.0101 128.507 22.0101Z" fill="#404347"/>
<path d="M154.121 25.0169H149.872L146.478 18.7657H143.784V25.0169H140.105V7.42383H148.188C151.789 7.42383 154.017 9.8241 154.017 13.0948C154.017 16.1808 152.074 17.8689 150.209 18.3173L154.121 25.0169ZM147.67 15.4686C149.121 15.4686 150.235 14.5718 150.235 13.0684C150.235 11.6177 149.121 10.7209 147.67 10.7209H143.784V15.4686H147.67Z" fill="#404347"/>
<path d="M175.485 25.0169H171.78V12.3298L166.91 25.0169H165.303L160.433 12.3298V25.0169H156.754V7.42383H161.909L166.106 18.4228L170.304 7.42383H175.485V25.0169Z" fill="#404347"/>
<path d="M185.081 25.3336C181.739 25.3336 179.356 24.1994 177.723 22.5376L179.744 19.6099C180.962 20.9023 182.853 22.0101 185.237 22.0101C187.284 22.0101 188.242 21.0869 188.242 20.0583C188.242 16.9986 178.293 19.1351 178.293 12.5146C178.293 9.5868 180.781 7.16016 184.848 7.16016C187.594 7.16016 189.874 8.00421 191.584 9.61317L189.538 12.4091C188.139 11.0902 186.273 10.4836 184.511 10.4836C182.957 10.4836 182.076 11.1694 182.076 12.2244C182.076 14.994 191.999 13.1212 191.999 19.689C191.999 22.9069 189.719 25.3336 185.081 25.3336Z" fill="#404347"/>
</g>
</g>
<defs>
<clipPath id="clip0_3010_14913">
<rect width="192" height="32" fill="white"/>
</clipPath>
</defs>
</svg>
