<svg width="173" height="33" viewBox="0 0 173 33" fill="none" xmlns="http://www.w3.org/2000/svg">
<g clip-path="url(#clip0_1473_12228)">
<path fill-rule="evenodd" clip-rule="evenodd" d="M15.9692 32.4986C24.7888 32.4986 31.9384 25.3534 31.9384 16.5394C31.9384 7.72529 24.7888 0.580078 15.9692 0.580078C7.14967 0.580078 0 7.72529 0 16.5394C0 25.3534 7.14967 32.4986 15.9692 32.4986ZM16.038 8.5597C14.7557 8.5597 12.9812 9.29255 12.0745 10.1966L9.61198 12.6518H21.8864L25.9908 8.5597H16.038ZM19.8432 22.8821C18.9365 23.7861 17.162 24.5191 15.8798 24.5191H5.92708L10.0314 20.4269H22.3058L19.8432 22.8821ZM23.8325 14.6979H7.56429L6.79586 15.4652C4.97627 17.102 5.51594 18.3808 8.06417 18.3808H24.3764L25.1451 17.6135C26.947 15.9863 26.3808 14.6979 23.8325 14.6979Z" fill="#626262"/>
<path fill-rule="evenodd" clip-rule="evenodd" d="M122.211 21.4237C120.944 23.6633 118.654 25.8492 114.721 25.8492C109.305 25.8492 105.13 22.0713 105.13 16.5396C105.13 10.9808 109.305 7.22998 114.721 7.22998C118.654 7.22998 120.944 9.36176 122.211 11.6284L118.924 13.2475C118.169 11.7903 116.553 10.63 114.721 10.63C111.434 10.63 109.063 13.1396 109.063 16.5396C109.063 19.9396 111.434 22.4491 114.721 22.4491C116.553 22.4491 118.169 21.2888 118.924 19.8316L122.211 21.4237ZM134.138 7.52682L141.062 25.5253H136.724L135.592 22.4761H127.887L126.755 25.5253H122.418L129.342 7.52682H134.138ZM128.938 19.1031H134.542L131.74 11.3586L128.938 19.1031ZM157.297 25.5253L153.228 18.6713C155.168 18.2126 157.189 16.4856 157.189 13.3284C157.189 9.9824 154.872 7.52682 151.127 7.52682H142.721V25.5253H146.547V19.1301H149.349L152.878 25.5253H157.297ZM150.588 15.757H146.547V10.8999H150.588C152.097 10.8999 153.255 11.8173 153.255 13.3015C153.255 14.8396 152.097 15.757 150.588 15.757ZM167.772 10.8999V25.5253H163.919V10.8999H158.666V7.52682H172.999V10.8999H167.772ZM41.298 21.0644L39.9219 23.0536C41.7092 24.9173 44.0865 25.8492 47.0536 25.8492C49.2461 25.8492 50.9441 25.3474 52.1477 24.3439C53.3631 23.3284 53.9708 22.0441 53.9708 20.491C53.9708 19.5591 53.7683 18.7527 53.3631 18.0718C52.9582 17.3908 52.4336 16.8711 51.7902 16.5127C51.1588 16.1423 50.4498 15.8317 49.6633 15.5808C48.8886 15.33 48.1082 15.1209 47.3217 14.9536C46.5472 14.7744 45.8382 14.5892 45.1946 14.3981C44.5632 14.195 44.0449 13.9202 43.6396 13.5738C43.2344 13.2154 43.032 12.7793 43.032 12.2656C43.032 11.4651 43.3895 10.8021 44.1043 10.2764C44.8193 9.73883 45.7666 9.47003 46.9465 9.47003C48.0665 9.47003 49.0854 9.67911 50.0029 10.0972C50.9324 10.5034 51.6711 11.041 52.2192 11.7101L53.4882 9.81052C51.8199 8.09016 49.6394 7.23 46.9465 7.23C44.9087 7.23 43.3059 7.71981 42.1382 8.69945C40.9705 9.66716 40.3865 10.8798 40.3865 12.3373C40.3865 13.2213 40.589 13.9859 40.9942 14.6311C41.3994 15.2642 41.9237 15.7541 42.5671 16.1005C43.2107 16.447 43.9198 16.7397 44.6942 16.9786C45.4807 17.2175 46.2611 17.4266 47.0358 17.6058C47.8103 17.785 48.5194 17.9821 49.1628 18.1972C49.8061 18.4122 50.3304 18.7169 50.7356 19.1111C51.1408 19.5054 51.3433 19.9892 51.3433 20.5627C51.3433 21.4706 50.9681 22.2054 50.2173 22.7669C49.4786 23.3284 48.4477 23.609 47.125 23.609C45.9693 23.609 44.867 23.3642 43.8184 22.8744C42.7698 22.3846 41.9297 21.7813 41.298 21.0644ZM56.9752 7.678V20.1863C56.9752 23.9615 58.8519 25.8492 62.6056 25.8492C63.8449 25.8492 65.0186 25.5684 66.1269 25.0069C67.2349 24.4454 68.1584 23.7464 68.8974 22.9102V25.4012H71.65V7.678H68.8974V20.706C68.3611 21.4587 67.6164 22.0919 66.6629 22.6056C65.7097 23.1193 64.7208 23.3761 63.6959 23.3761C62.3971 23.3761 61.408 23.0775 60.7289 22.4801C60.0495 21.8709 59.71 20.8255 59.71 19.3441V7.678H56.9752ZM75.673 25.4012V7.678H78.4078V10.5094C79.1705 9.52977 80.0581 8.74724 81.071 8.16185C82.0839 7.56451 83.1624 7.26585 84.3064 7.26585V10.0972C83.8772 10.0495 83.5257 10.0256 83.2518 10.0256C82.4057 10.0256 81.4882 10.3183 80.499 10.9036C79.5101 11.4771 78.813 12.1282 78.4078 12.857V25.4012H75.673ZM86.3633 11.8534C85.6245 13.2632 85.255 14.8162 85.255 16.5127C85.255 19.2724 86.1011 21.5184 87.7931 23.2507C89.4853 24.9829 91.654 25.8492 94.2994 25.8492C97.1116 25.8492 99.4532 24.9293 101.324 23.0894L100.019 21.2974C99.3042 22.0262 98.4641 22.5877 97.4989 22.9819C96.5456 23.3761 95.5507 23.5733 94.5139 23.5733C92.6788 23.5733 91.1893 22.9879 90.0453 21.8171C88.9134 20.6463 88.2937 19.1888 88.1863 17.4445H102.468V16.7457C102.468 14.9536 102.134 13.3468 101.467 11.9251C100.812 10.4915 99.8345 9.35057 98.5357 8.50234C97.2367 7.65411 95.7175 7.23 93.9776 7.23C92.3213 7.23 90.8258 7.64814 89.4913 8.48443C88.1566 9.30874 87.114 10.4318 86.3633 11.8534ZM99.7511 15.3837H88.1506C88.1863 14.6908 88.3354 14.0098 88.5975 13.3408C88.8597 12.6598 89.2172 12.0326 89.6701 11.4592C90.1347 10.8738 90.7364 10.4019 91.4754 10.0435C92.2142 9.68507 93.0363 9.50587 93.9419 9.50587C94.9071 9.50587 95.7712 9.69106 96.5337 10.0614C97.2964 10.4198 97.9041 10.8917 98.3569 11.4771C98.8096 12.0625 99.1494 12.6897 99.3756 13.3587C99.614 14.0277 99.7391 14.7027 99.7511 15.3837Z" fill="#626262"/>
</g>
<defs>
<clipPath id="clip0_1473_12228">
<rect width="173" height="32" fill="white" transform="translate(0 0.580078)"/>
</clipPath>
</defs>
</svg>
