<svg width="183" height="38" viewBox="0 0 183 38" fill="none" xmlns="http://www.w3.org/2000/svg">
<g clip-path="url(#clip0_20613_36947)">
<mask id="mask0_20613_36947" style="mask-type:luminance" maskUnits="userSpaceOnUse" x="0" y="1" width="183" height="36">
<path d="M182.548 1.57666H0.453125V36.6278H182.548V1.57666Z" fill="white"/>
</mask>
<g mask="url(#mask0_20613_36947)">
<path d="M17.5516 1.57666C8.10694 1.57666 0.453125 9.27254 0.453125 18.7606C0.453125 28.252 8.10694 35.9472 17.5516 35.9472C26.9949 35.9472 34.6494 28.252 34.6494 18.7606C34.6494 9.27056 26.9936 1.57666 17.5516 1.57666ZM17.2216 21.9049C17.0125 22.6343 16.7005 23.2788 16.2717 23.832C15.8543 24.3784 15.3085 24.8133 14.6545 25.1271C13.9946 25.4391 13.2183 25.5954 12.3099 25.5954C11.37 25.5954 10.5732 25.4271 9.90848 25.0944C9.2465 24.7685 8.71214 24.3235 8.28996 23.7665C7.88184 23.2134 7.57521 22.5702 7.3848 21.8367C7.18911 21.0986 7.09558 20.3323 7.09558 19.5288V13.2978H9.81028V19.5288C9.81028 20.0023 9.85433 20.4512 9.94054 20.8714C10.0294 21.3009 10.1677 21.6751 10.3721 22.009C10.5732 22.3404 10.8229 22.6056 11.1443 22.7985C11.4543 22.993 11.8423 23.0911 12.3092 23.0911C12.7762 23.0911 13.1616 22.993 13.4828 22.7919C13.8042 22.5915 14.0687 22.3263 14.2591 21.9977C14.4602 21.6656 14.6017 21.2823 14.686 20.848C14.7674 20.4219 14.8109 19.9857 14.8109 19.5308V13.3038H17.5255V19.5308H17.5269C17.5262 20.3838 17.4233 21.1713 17.2216 21.9049ZM28.0063 25.5968H19.7833V23.0498H28.0063V25.5968ZM28.0063 20.7218H19.7833V18.1748H28.0063V20.7218ZM28.0063 15.8489H19.7833V13.3018H28.0063V15.8489Z" fill="#626262"/>
<path d="M44.9082 12.6414V6.84717H47.2618V12.6414C47.2618 13.2236 47.4036 13.67 47.6877 13.9841C47.9726 14.2996 48.389 14.4552 48.9398 14.4552C49.4899 14.4552 49.912 14.2996 50.2057 13.9841C50.4979 13.67 50.6469 13.2236 50.6469 12.6414V6.84717H52.9999V12.6414C52.9999 13.5005 52.8012 14.2398 52.4023 14.8614C52.0035 15.4852 51.4995 15.9389 50.8888 16.2223C50.278 16.5094 49.6169 16.6518 48.9003 16.6518C47.782 16.6518 46.8374 16.3012 46.0668 15.6006C45.2931 14.9009 44.9082 13.9139 44.9082 12.6414Z" fill="#626262"/>
<path d="M55.4199 6.84717H57.7736V14.7569H60.7043V16.5547H55.4214L55.4199 6.84717Z" fill="#626262"/>
<path d="M61.7637 8.64345V6.84717H69.3857V8.64638H66.7435V16.5547H64.3905V8.64345H61.7637Z" fill="#626262"/>
<path d="M71.2012 16.5547V6.84717H73.5549V16.5547H71.2012Z" fill="#626262"/>
<path d="M86.9709 6.84717V16.5547H84.6175V11.079L82.3745 16.5547H80.627L78.384 11.079V16.5547H76.0312V6.84717H78.7272L81.508 13.5414L84.2735 6.84717H86.9709Z" fill="#626262"/>
<path d="M95.5863 16.5546L95.0499 14.9241H91.5834L91.0506 16.5546H88.5449L91.9024 6.82007H94.7645L98.1073 16.5546H95.5863ZM92.1725 13.1264H94.4571L93.3148 9.66972L92.1725 13.1264Z" fill="#626262"/>
<path d="M99.0098 8.64345V6.84717H106.634V8.64638H103.988V16.5547H101.635V8.64345H99.0098Z" fill="#626262"/>
<path d="M114.298 6.82007V8.61783H110.803V10.7063H113.884V12.5025H110.803V14.7568H114.298V16.5546H108.449V6.82007H114.298Z" fill="#626262"/>
<path d="M127.408 16.5546L126.872 14.9241H123.404L122.871 16.5546H120.365L123.724 6.82007H126.586L129.928 16.5546H127.408ZM123.995 13.1264H126.28L125.137 9.66972L123.995 13.1264Z" fill="#626262"/>
<path d="M134.893 6.84717C136.43 6.84717 137.699 7.29642 138.69 8.19713C139.679 9.0949 140.174 10.2615 140.174 11.6954C140.174 13.1295 139.676 14.2981 138.69 15.2011C137.699 16.1025 136.429 16.5554 134.893 16.5554H131.494V6.84789L134.893 6.84717ZM133.846 14.7569H134.893C135.792 14.7569 136.499 14.4815 137.012 13.9264C137.526 13.3726 137.782 12.6326 137.782 11.7005C137.782 10.7685 137.526 10.027 137.012 9.47331C136.499 8.92029 135.791 8.64272 134.893 8.64272H133.846V14.7569Z" fill="#626262"/>
<path d="M145.475 6.84717C147.014 6.84717 148.28 7.29642 149.272 8.19713C150.261 9.0949 150.756 10.2615 150.756 11.6954C150.756 13.1295 150.258 14.2981 149.272 15.2011C148.28 16.1025 147.014 16.5554 145.475 16.5554H142.076V6.84789L145.475 6.84717ZM144.429 14.7569H145.475C146.373 14.7569 147.08 14.4815 147.595 13.9264C148.108 13.3726 148.366 12.6326 148.366 11.7005C148.366 10.7685 148.108 10.027 147.595 9.47331C147.081 8.92029 146.373 8.64272 145.475 8.64272H144.429V14.7569Z" fill="#626262"/>
<path d="M153.531 15.2426C152.572 14.3025 152.092 13.1139 152.092 11.6734C152.092 10.2351 152.572 9.04806 153.531 8.11223C154.491 7.17869 155.664 6.70972 157.053 6.70972C158.442 6.70972 159.613 7.17869 160.564 8.11223C161.513 9.04806 161.986 10.2366 161.986 11.6734C161.986 13.1139 161.509 14.3025 160.556 15.2426C159.6 16.1827 158.431 16.6547 157.046 16.6547C155.661 16.6532 154.49 16.1827 153.531 15.2426ZM158.898 13.7071C159.36 13.2023 159.593 12.523 159.593 11.6741C159.593 10.8282 159.36 10.1488 158.898 9.64265C158.434 9.13931 157.815 8.88223 157.039 8.88223C156.262 8.88223 155.645 9.13931 155.183 9.64265C154.719 10.1488 154.488 10.8282 154.488 11.6741C154.488 12.523 154.718 13.2023 155.183 13.7071C155.645 14.2133 156.262 14.4675 157.039 14.4675C157.814 14.4675 158.435 14.2133 158.898 13.7071Z" fill="#626262"/>
<path d="M170.201 6.82007H172.556V16.5546H170.201L166.266 10.4279V16.5546H163.908V6.82007H166.266L170.201 12.9466V6.82007Z" fill="#626262"/>
<path d="M178.304 8.57686C178.013 8.57686 177.771 8.65428 177.582 8.81133C177.394 8.9691 177.3 9.19194 177.3 9.48992C177.3 9.7844 177.386 10.0225 177.56 10.2029C177.731 10.3826 177.961 10.5229 178.243 10.6156C178.524 10.7128 178.835 10.8056 179.177 10.8925C179.524 10.9809 179.862 11.0875 180.2 11.2125C180.542 11.3366 180.852 11.4907 181.128 11.6749C181.411 11.8604 181.633 12.1197 181.813 12.4565C181.983 12.7932 182.071 13.1972 182.071 13.6632C182.071 14.4851 181.738 15.1871 181.079 15.7751C180.413 16.3602 179.536 16.6518 178.447 16.6518C177.357 16.6518 176.483 16.3902 175.817 15.865C175.151 15.3369 174.82 14.5925 174.82 13.6239H177.326C177.389 14.4004 177.783 14.7868 178.509 14.7868C178.848 14.7868 179.112 14.6969 179.308 14.5172C179.502 14.339 179.597 14.1074 179.597 13.832C179.597 13.5551 179.511 13.3294 179.336 13.1534C179.166 12.9802 178.937 12.8393 178.653 12.7392C178.374 12.6376 178.062 12.5426 177.721 12.4565C177.374 12.3681 177.035 12.2585 176.699 12.1314C176.359 12.0029 176.045 11.8487 175.769 11.6675C175.489 11.4893 175.266 11.2285 175.087 10.8918C174.913 10.555 174.826 10.1569 174.826 9.69373C174.826 8.79164 175.162 8.06551 175.832 7.52203C176.502 6.97853 177.357 6.70605 178.4 6.70605C179.44 6.70605 180.282 6.9442 180.922 7.42121C181.565 7.89384 181.902 8.64404 181.926 9.66607H179.368C179.331 9.31612 179.218 9.04367 179.032 8.85663C178.84 8.67038 178.601 8.57686 178.304 8.57686Z" fill="#626262"/>
<path d="M45.7031 31.4232V23.9502H50.3067V25.1059H47.2058V27.0694H49.5711V28.2251H47.2058V31.4268L45.7031 31.4232Z" fill="#626262"/>
<path d="M59.1408 31.4984C58.0678 31.4984 57.1656 31.139 56.4351 30.4173C55.7039 29.6956 55.3379 28.781 55.3379 27.6692C55.3379 26.5574 55.7046 25.6449 56.4402 24.9225C57.1751 24.2022 58.078 23.8413 59.146 23.8413C60.2147 23.8413 61.1155 24.2007 61.8466 24.9225C62.5778 25.6428 62.9438 26.5574 62.9438 27.6692C62.9438 28.781 62.5778 29.6948 61.8466 30.4173C61.1155 31.1404 60.2147 31.4984 59.1408 31.4984ZM60.7816 29.4479C61.2023 29.003 61.4105 28.4077 61.4105 27.6633C61.4105 26.9212 61.2009 26.3324 60.7816 25.8868C60.3629 25.4434 59.8166 25.222 59.1408 25.222C58.4651 25.222 57.9165 25.4491 57.4951 25.8926C57.0714 26.336 56.861 26.9299 56.861 27.6735C56.861 28.4128 57.0706 29.0015 57.4951 29.4516C57.918 29.8964 58.4666 30.1207 59.1408 30.1207C59.8166 30.117 60.3629 29.8934 60.7816 29.4479Z" fill="#626262"/>
<path d="M69.8928 28.4464V31.4239H68.3887V23.9495H71.128C71.9872 23.9495 72.6504 24.1664 73.1157 24.6003C73.5811 25.0314 73.8145 25.5631 73.8145 26.1994C73.8145 26.6713 73.6711 27.1095 73.3879 27.5179C73.1033 27.9277 72.6562 28.2031 72.0448 28.3544L73.9419 31.426H72.1617L70.3814 28.4508H69.8905L69.8928 28.4464ZM69.8928 25.1051V27.2878H71.128C71.505 27.2878 71.7928 27.1892 71.9915 26.9957C72.1901 26.7976 72.291 26.5318 72.291 26.1965C72.291 25.8612 72.191 25.596 71.9915 25.3973C71.7935 25.1993 71.505 25.1051 71.128 25.1051H69.8928Z" fill="#626262"/>
<path d="M91.3228 23.9268V25.0839H88.5324V27.0431H91.003V28.2001H88.5324V30.2674H91.3228V31.4231H87.0293V23.9253H91.3228V23.9268Z" fill="#626262"/>
<path d="M97.1211 23.9495H98.6264V30.28H101.012V31.4239H97.1226L97.1211 23.9495Z" fill="#626262"/>
<path d="M110.578 23.9268V25.0839H107.788V27.0431H110.258V28.2001H107.788V30.2674H110.578V31.4231H106.283V23.9253H110.578V23.9268Z" fill="#626262"/>
<path d="M124.487 23.9495V31.4217H122.994V26.7004L120.97 31.4231H119.892L117.877 26.7217V31.4231H116.371V23.9501H118.044L120.433 29.4874L122.821 23.9501L124.487 23.9495Z" fill="#626262"/>
<path d="M134.64 23.9268V25.0839H131.85V27.0431H134.325V28.2001H131.85V30.2674H134.64V31.4231H130.346V23.9253H134.64V23.9268Z" fill="#626262"/>
<path d="M145.309 23.9268H146.811V31.4246H145.309L141.94 26.241V31.4246H140.436V23.9268H141.94L145.309 29.1119V23.9268Z" fill="#626262"/>
<path d="M152.234 25.1051V23.9495H157.742V25.1051H155.73V31.421H154.237V25.1051H152.234Z" fill="#626262"/>
<path d="M166.546 31.4984C165.474 31.4984 164.57 31.139 163.839 30.4173C163.107 29.6956 162.74 28.781 162.74 27.6692C162.74 26.5574 163.109 25.6449 163.845 24.9225C164.583 24.2022 165.481 23.8413 166.551 23.8413C167.623 23.8413 168.521 24.2007 169.254 24.9225C169.982 25.6428 170.349 26.5574 170.349 27.6692C170.349 28.781 169.982 29.6948 169.254 30.4173C168.521 31.139 167.618 31.4984 166.546 31.4984ZM168.188 29.4479C168.604 29.003 168.816 28.4077 168.816 27.6633C168.816 26.9212 168.604 26.3324 168.188 25.8868C167.768 25.4434 167.221 25.222 166.547 25.222C165.869 25.222 165.321 25.4491 164.899 25.8926C164.477 26.336 164.265 26.9299 164.265 27.6735C164.265 28.4128 164.477 29.0015 164.899 29.4516C165.321 29.8964 165.869 30.1207 166.547 30.1207C167.221 30.117 167.767 29.8934 168.188 29.4479Z" fill="#626262"/>
<path d="M177.298 28.4464V31.4239H175.793V23.9495H178.53C179.391 23.9495 180.054 24.1664 180.52 24.6003C180.984 25.0314 181.217 25.5631 181.217 26.1994C181.217 26.6713 181.076 27.1095 180.79 27.5179C180.501 27.9277 180.061 28.2031 179.448 28.3544L181.345 31.426H179.565L177.783 28.4508H177.295V28.4486L177.298 28.4464ZM177.298 25.1051V27.2878H178.531C178.911 27.2878 179.197 27.1892 179.398 26.9957C179.596 26.7984 179.695 26.5318 179.695 26.1965C179.695 25.8612 179.595 25.596 179.398 25.3973C179.201 25.1986 178.915 25.1051 178.531 25.1051H177.298Z" fill="#626262"/>
</g>
</g>
<defs>
<clipPath id="clip0_20613_36947">
<rect width="182.95" height="36.59" fill="white" transform="translate(0.0253906 0.785156)"/>
</clipPath>
</defs>
</svg>
