<svg width="50" height="50" viewBox="0 0 50 50" fill="none" xmlns="http://www.w3.org/2000/svg">
<g clip-path="url(#clip0_20613_37034)">
<path d="M44.6055 0.57251H5C2.23857 0.57251 0 2.81108 0 5.57251V44.5944C0 47.3558 2.23857 49.5944 5 49.5944H44.6055C47.3669 49.5944 49.6055 47.3558 49.6055 44.5944V5.57251C49.6055 2.81108 47.3669 0.57251 44.6055 0.57251Z" fill="#FDF4FF"/>
<path d="M21.875 24.9475C21.875 20.8054 25.2329 17.4475 29.375 17.4475C33.5171 17.4475 36.875 20.8054 36.875 24.9475C36.875 29.0896 33.5171 32.4475 29.375 32.4475C25.2329 32.4475 21.875 29.0896 21.875 24.9475Z" fill="#FDF4FF"/>
<path d="M20.9375 34.149C22.5527 35.0816 24.3849 35.5725 26.25 35.5725C28.1151 35.5725 29.9473 35.0816 31.5625 34.149C33.1777 33.2165 34.519 31.8752 35.4515 30.26C36.3841 28.6448 36.875 26.8126 36.875 24.9475C36.875 23.0824 36.3841 21.2502 35.4515 19.635C34.519 18.0198 33.1777 16.6785 31.5625 15.746C29.9473 14.8134 28.1151 14.3225 26.25 14.3225C24.3849 14.3225 22.5527 14.8134 20.9375 15.746" stroke="#E90B76" stroke-width="1.875" stroke-linecap="round"/>
<path d="M18.4028 18.0725L13.125 24.9475M13.125 24.9475L18.4028 31.8225M13.125 24.9475H25" stroke="#E90B76" stroke-width="1.875" stroke-linecap="round"/>
</g>
<defs>
<clipPath id="clip0_20613_37034">
<rect width="50" height="49.375" fill="white" transform="translate(0 0.57251)"/>
</clipPath>
</defs>
</svg>
