<svg width="50" height="50" viewBox="0 0 50 50" fill="none" xmlns="http://www.w3.org/2000/svg">
<g clip-path="url(#clip0_20613_37005)">
<path d="M44.6055 0.58252H5C2.23858 0.58252 0 2.8211 0 5.58252V44.6044C0 47.3658 2.23858 49.6044 5 49.6044H44.6055C47.3669 49.6044 49.6055 47.3658 49.6055 44.6044V5.58252C49.6055 2.8211 47.3669 0.58252 44.6055 0.58252Z" fill="#FDF4FF"/>
<path d="M35.1638 23.1641H32.9355C31.9 23.1641 31.0605 24.0035 31.0605 25.0391V32.0499C31.0605 33.0855 31.9 33.9249 32.9355 33.9249H35.1638C36.1993 33.9249 37.0388 33.0855 37.0388 32.0499V25.0391C37.0388 24.0035 36.1993 23.1641 35.1638 23.1641Z" fill="#FDF4FF" stroke="#E90B76" stroke-width="1.875" stroke-linejoin="round"/>
<path d="M17.2283 23.1641H15C13.9645 23.1641 13.125 24.0035 13.125 25.0391V32.0499C13.125 33.0855 13.9645 33.9249 15 33.9249H17.2283C18.2638 33.9249 19.1033 33.0855 19.1033 32.0499V25.0391C19.1033 24.0035 18.2638 23.1641 17.2283 23.1641Z" fill="#FDF4FF" stroke="#E90B76" stroke-width="1.875" stroke-linejoin="round"/>
<path d="M37.0381 24.9575C37.0381 21.3108 35.7784 17.8135 33.5361 15.2348C31.2938 12.6562 28.2526 11.2075 25.0815 11.2075C21.9104 11.2075 18.8693 12.6562 16.627 15.2348C14.3847 17.8135 13.125 21.3108 13.125 24.9575" stroke="#E90B76" stroke-width="1.875" stroke-linecap="round" stroke-linejoin="round"/>
</g>
<defs>
<clipPath id="clip0_20613_37005">
<rect width="50" height="49.375" fill="white" transform="translate(0 0.58252)"/>
</clipPath>
</defs>
</svg>
