<svg width="187" height="36" viewBox="0 0 187 36" fill="none" xmlns="http://www.w3.org/2000/svg">
<path d="M31.3435 7.44885L19.1885 0.547466C17.8379 -0.182488 16.2173 -0.182488 14.8667 0.547466L2.71168 7.44885C1.36112 8.1788 0.550781 9.63871 0.550781 11.0986V24.9014C0.550781 26.4277 1.36112 27.8212 2.71168 28.5512L14.8667 35.4525C16.2173 36.1825 17.8379 36.1825 19.1885 35.4525L31.3435 28.5512C32.6941 27.7548 33.5044 26.3613 33.5044 24.9014V11.0986C33.5044 9.57235 32.6266 8.1788 31.3435 7.44885ZM17.1627 31.9355L5.07515 24.6359V11.165L16.9601 4.39631L29.2502 11.165L25.0634 14.0184L17.0276 9.50599L9.66706 13.9521V22.1806L17.3652 26.8258L24.9284 22.5124L29.6553 25.1005L17.1627 31.9355Z" fill="#404347"/>
<path d="M67.5407 11.3428L62.6549 25.5797H61.0263L56.8192 13.4717L52.612 25.5797H50.9834L46.0977 11.3428H47.7262L51.9334 23.5838L56.2763 11.3428H57.6335L61.8406 23.5838L66.0478 11.3428H67.5407Z" fill="#404347"/>
<path d="M80.2988 12.6733C81.3846 13.6047 81.9274 14.6691 81.9274 16.2658C81.9274 17.7294 81.3846 18.9269 80.2988 19.8583C79.2131 20.6566 77.856 21.1888 75.956 21.1888H72.0202V25.7127H70.5273V11.3428H75.956C77.856 11.3428 79.3488 11.7419 80.2988 12.6733ZM79.2131 18.7938C80.0274 18.1286 80.2988 17.3302 80.2988 16.1328C80.2988 14.9353 79.8917 14.1369 79.2131 13.4717C78.3988 12.8064 77.3131 12.5403 75.956 12.5403H72.1559V19.5922H75.956C77.4488 19.7252 78.5345 19.4591 79.2131 18.7938Z" fill="#404347"/>
<path d="M88.5764 24.7818C87.3549 24.1165 86.4049 23.3182 85.7263 22.1207C85.0478 21.0563 84.6406 19.7257 84.6406 18.3952C84.6406 16.9316 85.0478 15.7341 85.7263 14.6696C86.4049 13.6052 87.3549 12.6738 88.5764 12.0085C89.7978 11.3433 91.155 11.0771 92.6478 11.0771C93.8693 11.0771 95.0907 11.3433 96.0407 11.7424C96.9907 12.1416 97.9407 12.8069 98.6193 13.6052L96.4478 15.601C95.4978 14.5366 94.2764 14.0044 92.7835 14.0044C91.8335 14.0044 91.155 14.1374 90.3407 14.5366C89.6621 14.9357 89.1192 15.468 88.7121 16.1332C88.3049 16.7985 88.1692 17.5968 88.1692 18.5282C88.1692 19.4596 88.3049 20.2579 88.7121 20.9232C89.1192 21.5885 89.6621 22.1207 90.3407 22.5199C91.0192 22.919 91.8335 23.0521 92.7835 23.0521C94.2764 23.0521 95.4978 22.5199 96.4478 21.3224L98.6193 23.3182C97.9407 24.1165 97.1264 24.7818 96.0407 25.181C94.955 25.5801 93.8693 25.8462 92.6478 25.8462C91.155 25.7132 89.7978 25.4471 88.5764 24.7818Z" fill="#404347"/>
<path d="M110.291 25.5806L107.441 21.589H107.305H104.455V25.5806H101.062V11.3438H107.305C108.527 11.3438 109.748 11.6099 110.698 12.009C111.648 12.4082 112.327 13.0735 112.87 13.7387C113.413 14.5371 113.684 15.4685 113.684 16.5329C113.684 17.5973 113.413 18.5287 112.87 19.327C112.327 20.1254 111.648 20.6576 110.698 21.0568L113.955 25.5806H110.291ZM109.477 14.6701C108.934 14.271 108.12 14.0048 107.17 14.0048H104.455V18.9279H107.17C108.12 18.9279 108.934 18.6618 109.477 18.2626C110.02 17.8634 110.291 17.1982 110.291 16.3998C110.291 15.7346 110.02 15.0693 109.477 14.6701Z" fill="#404347"/>
<path d="M126.033 22.5204H119.247L118.026 25.5806H114.633L121.147 11.3438H124.404L130.919 25.5806H127.39L126.033 22.5204ZM124.947 19.9923L122.64 14.5371L120.333 19.9923H124.947Z" fill="#404347"/>
<path d="M135.94 14.0048V17.7304H142.59V20.3915H135.94V25.5806H132.547V11.3438H143.54V14.0048H135.94Z" fill="#404347"/>
<path d="M149.106 14.0048H144.492V11.3438H157.114V14.0048H152.499V25.5806H149.106V14.0048Z" fill="#404347"/>
<path d="M170.413 22.9195V25.5806H159.148V11.3438H170.141V14.0048H162.541V17.0651H169.327V19.5932H162.541V22.9195H170.413Z" fill="#404347"/>
<path d="M182.49 25.5806L179.64 21.589H179.505H176.655V25.5806H173.262V11.3438H179.505C180.726 11.3438 181.948 11.6099 182.898 12.009C183.848 12.4082 184.526 13.0735 185.069 13.7387C185.612 14.5371 185.883 15.4685 185.883 16.5329C185.883 17.5973 185.612 18.5287 185.069 19.327C184.526 20.1254 183.848 20.6576 182.898 21.0568L186.155 25.5806H182.49ZM181.676 14.6701C181.133 14.271 180.319 14.0048 179.369 14.0048H176.655V18.9279H179.369C180.319 18.9279 181.133 18.6618 181.676 18.2626C182.219 17.8634 182.49 17.1982 182.49 16.3998C182.49 15.7346 182.219 15.0693 181.676 14.6701Z" fill="#404347"/>
</svg>
