<svg width="142" height="26" viewBox="0 0 142 26" fill="none" xmlns="http://www.w3.org/2000/svg">
<path d="M9.72997 25.95C7.79664 25.95 6.01664 25.5367 4.38998 24.71C2.76998 23.8833 1.42331 22.5367 0.349976 20.67L4.58998 17.98C5.21664 19.2333 6.00664 20.1467 6.95998 20.72C7.91998 21.2933 8.93664 21.58 10.01 21.58C11.1566 21.58 12.0566 21.3233 12.71 20.81C13.3633 20.2967 13.69 19.62 13.69 18.78C13.69 17.96 13.43 17.3067 12.91 16.82C12.4033 16.3267 11.7233 15.93 10.87 15.63C10.0166 15.3233 9.08998 15.0433 8.08998 14.79C6.19664 14.2967 4.68998 13.4867 3.56998 12.36C2.44998 11.2267 1.88998 9.73668 1.88998 7.89001C1.88998 6.42334 2.24998 5.14001 2.96998 4.04001C3.69664 2.94668 4.70664 2.09668 5.99998 1.49001C7.29998 0.883342 8.81331 0.580009 10.54 0.580009C12.4533 0.580009 14.05 0.976675 15.33 1.77001C16.6166 2.56334 17.7133 3.68334 18.62 5.13001L14.42 7.72001C13.84 6.76001 13.2333 6.06001 12.6 5.62001C11.9733 5.17334 11.2033 4.95001 10.29 4.95001C9.30998 4.95001 8.49998 5.19668 7.85998 5.69001C7.21331 6.17668 6.88998 6.83001 6.88998 7.65001C6.88998 8.55668 7.26998 9.21668 8.02998 9.63001C8.78998 10.0367 9.70664 10.4033 10.78 10.73C11.5066 10.9633 12.3166 11.2367 13.21 11.55C14.11 11.8633 14.98 12.2967 15.82 12.85C16.66 13.3967 17.35 14.1233 17.89 15.03C18.4233 15.9433 18.69 17.1 18.69 18.5C18.69 19.9667 18.33 21.26 17.61 22.38C16.8833 23.5067 15.8566 24.3833 14.53 25.01C13.1966 25.6367 11.5966 25.95 9.72997 25.95ZM27.62 25.92C26.3133 25.92 25.1333 25.6167 24.08 25.01C23.0333 24.4033 22.2066 23.5333 21.6 22.4C20.9933 21.2667 20.69 19.9433 20.69 18.43V7.30001H25.41V17.27C25.41 18.8367 25.7266 19.98 26.36 20.7C26.9866 21.4267 27.8833 21.79 29.05 21.79C30.05 21.79 30.93 21.4267 31.69 20.7C32.45 19.98 32.83 18.8367 32.83 17.27V7.30001H37.56V25.5H32.97V22.77C32.5233 23.8167 31.8766 24.6033 31.03 25.13C30.1766 25.6567 29.04 25.92 27.62 25.92ZM45.08 25.5H40.35V7.30001H44.94V10.76C45.24 9.45334 45.86 8.45668 46.8 7.77001C47.7333 7.08334 48.9933 6.78668 50.58 6.88001V11.32H49.91C48.5566 11.32 47.4133 11.7533 46.48 12.62C45.5466 13.48 45.08 14.67 45.08 16.19V25.5ZM59.99 25.95C58.1233 25.95 56.4766 25.52 55.05 24.66C53.63 23.7933 52.53 22.6433 51.75 21.21C50.97 19.7767 50.58 18.1833 50.58 16.43C50.58 14.6833 50.9866 13.08 51.8 11.62C52.6133 10.16 53.7266 9.00001 55.14 8.14001C56.5533 7.27334 58.17 6.84001 59.99 6.84001C61.81 6.84001 63.4133 7.27334 64.8 8.14001C66.1933 9.00001 67.28 10.16 68.06 11.62C68.84 13.08 69.23 14.6833 69.23 16.43C69.23 16.69 69.2166 16.96 69.19 17.24C69.17 17.52 69.1366 17.81 69.09 18.11H55.48C55.7333 19.19 56.25 20.0667 57.03 20.74C57.81 21.4133 58.7966 21.75 59.99 21.75C61.0166 21.75 61.91 21.5167 62.67 21.05C63.43 20.59 64.02 20.0067 64.44 19.3L68.11 22.07C67.39 23.2167 66.3066 24.15 64.86 24.87C63.4133 25.59 61.79 25.95 59.99 25.95ZM59.92 10.9C58.8 10.9 57.8433 11.24 57.05 11.92C56.2566 12.5933 55.7333 13.48 55.48 14.58H64.47C64.2166 13.5733 63.6866 12.71 62.88 11.99C62.0733 11.2633 61.0866 10.9 59.92 10.9ZM83.55 25.95C81.73 25.95 80.0433 25.6267 78.49 24.98C76.9366 24.3267 75.5833 23.4167 74.43 22.25C73.2766 21.0767 72.3766 19.7267 71.73 18.2C71.09 16.6733 70.77 15.0333 70.77 13.28C70.77 11.5333 71.08 9.89001 71.7 8.35001C72.32 6.81001 73.1933 5.45668 74.32 4.29001C75.4533 3.12334 76.8033 2.20668 78.37 1.54001C79.93 0.873342 81.6566 0.540009 83.55 0.540009C85.5566 0.540009 87.2766 0.856675 88.71 1.49001C90.1433 2.11668 91.41 3.08334 92.51 4.39001L89.04 7.40001C87.5733 5.86001 85.7433 5.09001 83.55 5.09001C81.9833 5.09001 80.6233 5.46334 79.47 6.21001C78.3166 6.95668 77.4233 7.95001 76.79 9.19001C76.1633 10.4233 75.85 11.7867 75.85 13.28C75.85 14.7733 76.1633 16.1333 76.79 17.36C77.4233 18.5867 78.3233 19.5667 79.49 20.3C80.6566 21.04 82.0433 21.41 83.65 21.41C84.8433 21.41 85.8933 21.21 86.8 20.81C87.7133 20.41 88.53 19.8133 89.25 19.02L92.82 22.07C91.8866 23.19 90.6433 24.1167 89.09 24.85C87.5433 25.5833 85.6966 25.95 83.55 25.95ZM99.72 25.5H94.82V1.00001H102.73C105.483 1.00001 107.647 1.63668 109.22 2.91001C110.793 4.17668 111.58 6.01334 111.58 8.42001C111.58 10.3533 111.06 11.9167 110.02 13.11C108.987 14.2967 107.547 15.09 105.7 15.49L112.56 25.5H106.79L101.57 17.73C101.243 17.2367 100.93 16.64 100.63 15.94H99.72V25.5ZM99.72 5.41001V11.53H102.45C103.777 11.53 104.803 11.27 105.53 10.75C106.25 10.2233 106.61 9.45668 106.61 8.45001C106.61 7.47001 106.25 6.72001 105.53 6.20001C104.803 5.67334 103.777 5.41001 102.45 5.41001H99.72ZM118.9 25.5H114.1V1.00001H120.19L125.27 11.81C125.85 13.07 126.32 14.11 126.68 14.93C127.047 15.7433 127.327 16.42 127.52 16.96C127.72 17.5 127.88 17.9667 128 18.36C128.113 17.9667 128.263 17.5 128.45 16.96C128.637 16.42 128.91 15.7433 129.27 14.93C129.63 14.11 130.103 13.07 130.69 11.81L135.8 1.00001H141.68V25.5H136.89V15.59C136.89 14.47 136.9 13.5133 136.92 12.72C136.947 11.9267 136.983 11.2 137.03 10.54C137.07 9.87334 137.14 9.19001 137.24 8.49001L129.08 25.5H126.7L118.55 8.49001C118.643 9.19001 118.713 9.87334 118.76 10.54C118.807 11.2 118.84 11.9267 118.86 12.72C118.887 13.5133 118.9 14.47 118.9 15.59V25.5Z" fill="#18181B"/>
</svg>
