<svg width="196" height="42" viewBox="0 0 196 42" fill="none" xmlns="http://www.w3.org/2000/svg">
<path d="M38.4053 13.0774C37.6549 11.3617 36.6619 9.76277 35.4564 8.32972C33.6745 6.14804 31.4508 4.36847 28.9315 3.10813C26.4123 1.84781 23.6547 1.13528 20.8402 1.01746C18.0258 0.899637 15.2183 1.37918 12.6025 2.42456C9.98682 3.46993 7.62211 5.05741 5.6641 7.08253C3.70607 9.10763 2.19911 11.5245 1.24242 14.174C0.285729 16.8234 -0.0990257 19.6455 0.1135 22.4543C0.326041 25.2632 1.13101 27.9952 2.47547 30.4705C3.81992 32.946 5.67337 35.1085 7.91381 36.8159C9.35139 37.9334 10.9399 38.8418 12.632 39.5142C15.0044 40.4864 17.5435 40.9871 20.1074 40.9886C25.3998 40.9769 30.4716 38.8673 34.2112 35.1222C37.9507 31.3772 40.0528 26.3023 40.0566 21.0099C40.0605 18.28 39.4983 15.579 38.4053 13.0774ZM20.0927 5.07119C22.3952 5.07095 24.6698 5.57418 26.7572 6.54563C26.2482 6.76557 25.713 6.91919 25.1648 7.00272C23.3609 7.26383 21.69 8.10128 20.4011 9.39009C19.1123 10.6789 18.2749 12.3499 18.0137 14.1538C17.8992 15.1654 17.439 16.1065 16.7111 16.8184C15.9831 17.5302 15.032 17.969 14.018 18.061C12.2142 18.3222 10.5431 19.1596 9.25433 20.4484C7.96554 21.7373 7.12807 23.4082 6.86696 25.2121C6.77855 26.174 6.36814 27.078 5.70215 27.7776C4.55305 25.3496 4.03684 22.6703 4.20157 19.9892C4.36629 17.308 5.20659 14.7121 6.64427 12.443C8.08194 10.1739 10.0703 8.3054 12.4243 7.01133C14.7782 5.71726 17.4213 5.03971 20.1074 5.0417L20.0927 5.07119ZM7.89907 31.331C8.076 31.1688 8.25293 31.0214 8.42987 30.8444C9.7416 29.5727 10.5836 27.8939 10.8185 26.082C10.9137 25.0634 11.3684 24.1121 12.1012 23.3985C12.8064 22.6645 13.7555 22.2135 14.77 22.1305C16.5738 21.8694 18.2448 21.0319 19.5336 19.7431C20.8224 18.4543 21.6599 16.7833 21.921 14.9794C21.9848 13.9142 22.4419 12.9105 23.2038 12.1633C23.9264 11.4435 24.8845 11.0089 25.902 10.9395C27.5591 10.7115 29.1046 9.97476 30.3253 8.83103C31.7153 9.98414 32.8928 11.3713 33.805 12.93C33.749 13.0056 33.6847 13.0749 33.6133 13.1364C32.9096 13.8769 31.9617 14.3378 30.9446 14.4339C29.1388 14.6905 27.4653 15.5265 26.1757 16.816C24.8861 18.1057 24.0501 19.7792 23.7935 21.5849C23.6896 22.5999 23.238 23.5479 22.5152 24.268C21.7923 24.9882 20.8427 25.4363 19.8273 25.5364C18.0182 25.7955 16.341 26.6314 15.0447 27.9196C13.7485 29.208 12.9023 30.88 12.632 32.6875C12.5527 33.4081 12.3051 34.1 11.9095 34.7075C10.3968 33.8092 9.04189 32.6686 7.89907 31.331ZM20.0927 37.0223C18.5966 37.024 17.1075 36.8155 15.6694 36.4031C16.1614 35.486 16.4812 34.4865 16.613 33.4542C16.7164 32.4414 17.1659 31.4953 17.8858 30.7754C18.6056 30.0556 19.5517 29.6061 20.5645 29.5027C22.371 29.2445 24.0454 28.4084 25.3371 27.1193C26.6287 25.8303 27.4684 24.1575 27.7303 22.3517C27.8337 21.3389 28.2832 20.3927 29.003 19.6729C29.7229 18.9531 30.669 18.5035 31.6818 18.4002C33.0412 18.2234 34.337 17.7172 35.4564 16.9257C36.078 19.2817 36.1516 21.7488 35.6716 24.1376C35.1917 26.5265 34.1708 28.7739 32.6875 30.707C31.2042 32.64 29.2979 34.2078 27.1146 35.2897C24.9314 36.3717 22.5294 36.9392 20.0927 36.9486V37.0223Z" fill="#B2225E"/>
<path d="M62.7296 33.95C60.7963 33.95 59.0163 33.5367 57.3896 32.71C55.7696 31.8834 54.4229 30.5367 53.3496 28.67L57.5896 25.98C58.2163 27.2334 59.0063 28.1467 59.9596 28.72C60.9196 29.2934 61.9363 29.58 63.0096 29.58C64.1563 29.58 65.0563 29.3234 65.7096 28.81C66.3629 28.2967 66.6896 27.62 66.6896 26.78C66.6896 25.96 66.4296 25.3067 65.9096 24.82C65.4029 24.3267 64.7229 23.93 63.8696 23.63C63.0163 23.3234 62.0896 23.0434 61.0896 22.79C59.1963 22.2967 57.6896 21.4867 56.5696 20.36C55.4496 19.2267 54.8896 17.7367 54.8896 15.89C54.8896 14.4234 55.2496 13.14 55.9696 12.04C56.6963 10.9467 57.7063 10.0967 58.9996 9.49004C60.2996 8.88337 61.8129 8.58004 63.5396 8.58004C65.4529 8.58004 67.0496 8.97671 68.3296 9.77004C69.6163 10.5634 70.7129 11.6834 71.6196 13.13L67.4196 15.72C66.8396 14.76 66.2329 14.06 65.5996 13.62C64.9729 13.1734 64.2029 12.95 63.2896 12.95C62.3096 12.95 61.4996 13.1967 60.8596 13.69C60.2129 14.1767 59.8896 14.83 59.8896 15.65C59.8896 16.5567 60.2696 17.2167 61.0296 17.63C61.7896 18.0367 62.7063 18.4034 63.7796 18.73C64.5063 18.9634 65.3163 19.2367 66.2096 19.55C67.1096 19.8634 67.9796 20.2967 68.8196 20.85C69.6596 21.3967 70.3496 22.1234 70.8896 23.03C71.4229 23.9434 71.6896 25.1 71.6896 26.5C71.6896 27.9667 71.3296 29.26 70.6096 30.38C69.8829 31.5067 68.8563 32.3834 67.5296 33.01C66.1963 33.6367 64.5963 33.95 62.7296 33.95ZM80.6196 33.92C79.3129 33.92 78.1329 33.6167 77.0796 33.01C76.0329 32.4034 75.2063 31.5334 74.5996 30.4C73.9929 29.2667 73.6896 27.9434 73.6896 26.43V15.3H78.4096V25.27C78.4096 26.8367 78.7263 27.98 79.3596 28.7C79.9863 29.4267 80.8829 29.79 82.0496 29.79C83.0496 29.79 83.9296 29.4267 84.6896 28.7C85.4496 27.98 85.8296 26.8367 85.8296 25.27V15.3H90.5596V33.5H85.9696V30.77C85.5229 31.8167 84.8763 32.6034 84.0296 33.13C83.1763 33.6567 82.0396 33.92 80.6196 33.92ZM98.0796 33.5H93.3496V15.3H97.9396V18.76C98.2396 17.4534 98.8596 16.4567 99.7996 15.77C100.733 15.0834 101.993 14.7867 103.58 14.88V19.32H102.91C101.556 19.32 100.413 19.7534 99.4796 20.62C98.5463 21.48 98.0796 22.67 98.0796 24.19V33.5ZM112.99 33.95C111.123 33.95 109.476 33.52 108.05 32.66C106.63 31.7934 105.53 30.6434 104.75 29.21C103.97 27.7767 103.58 26.1834 103.58 24.43C103.58 22.6834 103.986 21.08 104.8 19.62C105.613 18.16 106.726 17 108.14 16.14C109.553 15.2734 111.17 14.84 112.99 14.84C114.81 14.84 116.413 15.2734 117.8 16.14C119.193 17 120.28 18.16 121.06 19.62C121.84 21.08 122.23 22.6834 122.23 24.43C122.23 24.69 122.216 24.96 122.19 25.24C122.17 25.52 122.136 25.81 122.09 26.11H108.48C108.733 27.19 109.25 28.0667 110.03 28.74C110.81 29.4134 111.796 29.75 112.99 29.75C114.016 29.75 114.91 29.5167 115.67 29.05C116.43 28.59 117.02 28.0067 117.44 27.3L121.11 30.07C120.39 31.2167 119.306 32.15 117.86 32.87C116.413 33.59 114.79 33.95 112.99 33.95ZM112.92 18.9C111.8 18.9 110.843 19.24 110.05 19.92C109.256 20.5934 108.733 21.48 108.48 22.58H117.47C117.216 21.5734 116.686 20.71 115.88 19.99C115.073 19.2634 114.086 18.9 112.92 18.9ZM136.55 33.95C134.73 33.95 133.043 33.6267 131.49 32.98C129.936 32.3267 128.583 31.4167 127.43 30.25C126.276 29.0767 125.376 27.7267 124.73 26.2C124.09 24.6734 123.77 23.0334 123.77 21.28C123.77 19.5334 124.08 17.89 124.7 16.35C125.32 14.81 126.193 13.4567 127.32 12.29C128.453 11.1234 129.803 10.2067 131.37 9.54004C132.93 8.87337 134.656 8.54004 136.55 8.54004C138.556 8.54004 140.276 8.85671 141.71 9.49004C143.143 10.1167 144.41 11.0834 145.51 12.39L142.04 15.4C140.573 13.86 138.743 13.09 136.55 13.09C134.983 13.09 133.623 13.4634 132.47 14.21C131.316 14.9567 130.423 15.95 129.79 17.19C129.163 18.4234 128.85 19.7867 128.85 21.28C128.85 22.7734 129.163 24.1334 129.79 25.36C130.423 26.5867 131.323 27.5667 132.49 28.3C133.656 29.04 135.043 29.41 136.65 29.41C137.843 29.41 138.893 29.21 139.8 28.81C140.713 28.41 141.53 27.8134 142.25 27.02L145.82 30.07C144.886 31.19 143.643 32.1167 142.09 32.85C140.543 33.5834 138.696 33.95 136.55 33.95ZM152.72 33.5H147.82V9.00004H155.73C158.483 9.00004 160.646 9.63671 162.22 10.91C163.793 12.1767 164.58 14.0134 164.58 16.42C164.58 18.3534 164.06 19.9167 163.02 21.11C161.986 22.2967 160.546 23.09 158.7 23.49L165.56 33.5H159.79L154.57 25.73C154.243 25.2367 153.93 24.64 153.63 23.94H152.72V33.5ZM152.72 13.41V19.53H155.45C156.776 19.53 157.803 19.27 158.53 18.75C159.25 18.2234 159.61 17.4567 159.61 16.45C159.61 15.47 159.25 14.72 158.53 14.2C157.803 13.6734 156.776 13.41 155.45 13.41H152.72ZM171.9 33.5H167.1V9.00004H173.19L178.27 19.81C178.85 21.07 179.32 22.11 179.68 22.93C180.046 23.7434 180.326 24.42 180.52 24.96C180.72 25.5 180.88 25.9667 181 26.36C181.113 25.9667 181.263 25.5 181.45 24.96C181.636 24.42 181.91 23.7434 182.27 22.93C182.63 22.11 183.103 21.07 183.69 19.81L188.8 9.00004H194.68V33.5H189.89V23.59C189.89 22.47 189.9 21.5134 189.92 20.72C189.946 19.9267 189.983 19.2 190.03 18.54C190.07 17.8734 190.14 17.19 190.24 16.49L182.08 33.5H179.7L171.55 16.49C171.643 17.19 171.713 17.8734 171.76 18.54C171.806 19.2 171.84 19.9267 171.86 20.72C171.886 21.5134 171.9 22.47 171.9 23.59V33.5Z" fill="#18181B"/>
</svg>
