<svg width="659" height="160" viewBox="0 0 659 160" fill="none" xmlns="http://www.w3.org/2000/svg">
<rect width="160" height="160" rx="50" fill="#005F5A"/>
<path d="M53.3332 120.58V106.667L38.2607 106.679V56.8116H52.1738V42.8986H127.536V61.4493H117.101V106.679L102.029 106.667V120.58H53.3332ZM55.6465 102.029H98.5506V61.4493H55.6523L55.6465 102.029Z" fill="white"/>
<path d="M621.95 132.279C614.558 132.279 608.043 130.569 602.407 127.15C596.77 123.731 592.381 119.204 589.239 113.567C586.19 107.838 584.665 101.508 584.665 94.5779C584.665 87.6476 586.282 81.3179 589.516 75.5889C592.75 69.7674 597.14 65.1472 602.684 61.7283C608.321 58.3093 614.743 56.5999 621.95 56.5999C629.158 56.5999 635.487 58.3093 640.939 61.7283C646.483 65.1472 650.78 69.7674 653.829 75.5889C656.971 81.3179 658.542 87.6476 658.542 94.5779C658.542 95.5944 658.496 96.657 658.403 97.7659C658.311 98.8747 658.172 100.03 657.988 101.231H604.07C605.086 105.482 607.119 108.947 610.169 111.626C613.31 114.306 617.237 115.646 621.95 115.646C626.016 115.646 629.527 114.722 632.484 112.874C635.533 111.026 637.89 108.716 639.553 105.944L654.107 116.894C651.242 121.421 646.945 125.117 641.216 127.982C635.487 130.847 629.065 132.279 621.95 132.279ZM621.673 72.6782C617.237 72.6782 613.449 74.018 610.307 76.6977C607.165 79.3775 605.086 82.8888 604.07 87.2318H639.692C638.675 83.2584 636.55 79.8395 633.316 76.975C630.174 74.1104 626.293 72.6782 621.673 72.6782Z" fill="#18181B"/>
<path d="M524.206 130.477V128.398L555.808 78.361C556.64 76.975 557.749 75.4965 559.135 73.9256H525.731V58.4017H587.826V60.4808L555.947 111.349C555.208 112.458 554.33 113.659 553.313 114.953H587.133V130.477H524.206Z" fill="#18181B"/>
<path d="M510.089 52.4416C506.948 52.4416 504.268 51.3789 502.05 49.2536C499.925 47.0359 498.862 44.4024 498.862 41.3531C498.862 38.3962 499.925 35.855 502.05 33.7298C504.268 31.512 506.948 30.4032 510.089 30.4032C513.324 30.4032 516.003 31.512 518.129 33.7298C520.254 35.855 521.316 38.3962 521.316 41.3531C521.316 44.4948 520.254 47.1283 518.129 49.2536C516.003 51.3789 513.324 52.4416 510.089 52.4416ZM500.803 130.477V58.4016H519.515V130.477H500.803Z" fill="#18181B"/>
<path d="M377.423 130.477V58.4017H395.857V68.9358C399.646 60.8042 406.992 56.7385 417.896 56.7385C422.978 56.7385 427.552 57.9397 431.618 60.3422C435.684 62.6523 438.918 65.9789 441.32 70.3219C443.723 65.9789 446.772 62.6523 450.468 60.3422C454.257 57.9397 459.339 56.7385 465.715 56.7385C470.89 56.7385 475.556 57.9397 479.714 60.3422C483.872 62.7447 487.153 66.1637 489.555 70.5991C491.958 75.0345 493.159 80.3015 493.159 86.4002V130.477H474.447V90.9742C474.447 84.6907 473.107 80.1629 470.428 77.3908C467.748 74.5262 464.283 73.094 460.032 73.094C455.689 73.094 452.132 74.3414 449.359 76.8363C446.68 79.3313 445.34 84.0439 445.34 90.9742V130.477H426.628V90.9742C426.628 84.6907 425.196 80.1629 422.331 77.3908C419.467 74.5262 415.724 73.094 411.104 73.094C407.131 73.094 403.619 74.5262 400.57 77.3908C397.613 80.1629 396.135 84.6907 396.135 90.9742V130.477H377.423Z" fill="#18181B"/>
<path d="M331.611 160C324.311 160 317.797 158.984 312.067 156.951C306.431 155.01 301.441 151.499 297.098 146.417L308.741 132.695C312.16 136.576 315.717 139.209 319.414 140.595C323.11 141.981 327.222 142.674 331.75 142.674C335.076 142.674 338.172 141.843 341.036 140.179C343.901 138.516 346.165 136.16 347.828 133.11C349.584 130.153 350.461 126.781 350.461 122.992V119.804C348.521 123.131 345.841 125.811 342.422 127.843C339.096 129.876 334.522 130.893 328.7 130.893C322.14 130.893 316.179 129.229 310.82 125.903C305.553 122.576 301.395 118.141 298.345 112.597C295.296 106.96 293.771 100.677 293.771 93.7463C293.771 86.816 295.296 80.5325 298.345 74.8959C301.395 69.2592 305.553 64.8238 310.82 61.5897C316.179 58.2631 322.14 56.5999 328.7 56.5999C334.706 56.5999 339.373 57.6625 342.699 59.7878C346.118 61.9131 348.798 64.7314 350.739 68.2428V58.4017H369.173V124.101C369.173 131.493 367.556 137.869 364.322 143.229C361.18 148.588 356.791 152.7 351.154 155.565C345.518 158.522 339.003 160 331.611 160ZM331.75 113.844C337.941 113.844 342.746 111.904 346.165 108.023C349.584 104.142 351.293 99.3829 351.293 93.7463C351.293 88.1096 349.584 83.3508 346.165 79.4699C342.746 75.5889 337.941 73.6484 331.75 73.6484C325.651 73.6484 320.892 75.5889 317.473 79.4699C314.147 83.3508 312.483 88.1096 312.483 93.7463C312.483 97.3501 313.223 100.677 314.701 103.726C316.272 106.775 318.49 109.224 321.354 111.072C324.219 112.92 327.684 113.844 331.75 113.844Z" fill="#18181B"/>
<path d="M278.824 52.4416C275.682 52.4416 273.002 51.3789 270.785 49.2536C268.659 47.0359 267.597 44.4024 267.597 41.3531C267.597 38.3962 268.659 35.855 270.785 33.7298C273.002 31.512 275.682 30.4032 278.824 30.4032C282.058 30.4032 284.738 31.512 286.863 33.7298C288.988 35.855 290.051 38.3962 290.051 41.3531C290.051 44.4948 288.988 47.1283 286.863 49.2536C284.738 51.3789 282.058 52.4416 278.824 52.4416ZM269.537 130.477V58.4016H288.249V130.477H269.537Z" fill="#18181B"/>
<path d="M227.719 130.508C220.079 130.508 213.037 128.897 206.593 125.675C200.242 122.361 194.949 117.022 190.715 109.658L207.422 99.0265C209.907 103.997 213.037 107.633 216.811 109.934C220.585 112.144 224.589 113.248 228.824 113.248C233.334 113.248 236.878 112.236 239.455 110.211C242.033 108.185 243.321 105.516 243.321 102.202C243.321 98.9805 242.309 96.4031 240.284 94.47C238.259 92.537 235.543 90.9721 232.137 89.7755C228.824 88.5788 225.188 87.4742 221.229 86.4617C213.773 84.5286 207.836 81.3529 203.418 76.9345C198.999 72.424 196.79 66.5328 196.79 59.2609C196.79 53.4617 198.217 48.399 201.07 44.0726C203.924 39.7463 207.882 36.3865 212.945 33.9931C218.1 31.5998 224.083 30.4032 230.895 30.4032C238.443 30.4032 244.748 31.9681 249.811 35.0977C254.874 38.2274 259.2 42.6459 262.79 48.353L246.221 58.5705C243.92 54.7965 241.526 52.035 239.041 50.286C236.556 48.5371 233.518 47.6626 229.928 47.6626C226.062 47.6626 222.84 48.6291 220.263 50.5622C217.778 52.4952 216.535 55.0726 216.535 58.2944C216.535 61.8843 218.008 64.5077 220.953 66.1646C223.991 67.7295 227.627 69.1563 231.861 70.445C234.715 71.3655 237.89 72.4701 241.388 73.7588C244.978 74.9554 248.43 76.6583 251.744 78.8675C255.058 80.9847 257.773 83.8382 259.89 87.4282C262.008 91.0181 263.066 95.5746 263.066 101.098C263.066 106.897 261.639 112.006 258.786 116.424C255.932 120.842 251.882 124.294 246.635 126.78C241.388 129.265 235.083 130.508 227.719 130.508Z" fill="#18181B"/>
</svg>
